STARTFONT 2.1
COMMENT
COMMENT Converted from OpenType font "IosevkaCustomNerdFontMono-Medium.ttf" by "otf2bdf 3.0".
COMMENT
FONT -FreeType-IosevkaCustom Nerd Font Mono Medium-Medium-R-Normal--24-240-72-72-C-116-ISO10646-1
SIZE 24 72 72
FONTBOUNDINGBOX 58 44 -29 -14
STARTPROPERTIES 19
FOUNDRY "FreeType"
FAMILY_NAME "IosevkaCustom Nerd Font Mono Medium"
WEIGHT_NAME "Medium"
SLANT "R"
SETWIDTH_NAME "Normal"
ADD_STYLE_NAME ""
PIXEL_SIZE 24
POINT_SIZE 240
RESOLUTION_X 72
RESOLUTION_Y 72
SPACING "C"
AVERAGE_WIDTH 116
CHARSET_REGISTRY "ISO10646"
CHARSET_ENCODING "1"
FONT_ASCENT 23
FONT_DESCENT 6
COPYRIGHT "Copyright 2015-2026, Renzhi Li (aka. Belleve Invis, belleve@typeof.net)."
_OTF_FONTFILE "IosevkaCustomNerdFontMono-Medium.ttf"
_OTF_PSNAME "IosevkaCustomNFM-Medium"
ENDPROPERTIES
CHARS 5707
STARTCHAR 000D
ENCODING 13
STARTCHAR 000D
SWIDTH 583 0
DWIDTH 58 0
BBX 0 0 0 0
BITMAP
ENDCHAR
STARTCHAR 0020
ENCODING 32
STARTCHAR 0020
SWIDTH 583 0
DWIDTH 58 0
BBX 0 0 0 0
BITMAP
ENDCHAR
STARTCHAR 0021
ENCODING 33
STARTCHAR 0021
SWIDTH 583 0
DWIDTH 58 0
BBX 3 18 6 0
BITMAP
60
60
60
60
60
60
60
60
60
60
60
60
00
00
00
E0
E0
E0
ENDCHAR
STARTCHAR 0022
ENCODING 34
STARTCHAR 0022
SWIDTH 583 0
DWIDTH 58 0
BBX 8 8 3 11
BITMAP
C3
C3
C3
C3
C3
C3
C3
C3
ENDCHAR
STARTCHAR 0023
ENCODING 35
STARTCHAR 0023
SWIDTH 583 0
DWIDTH 58 0
BBX 13 18 1 0
BITMAP
0E30
0E30
0C70
0C60
0C60
7FF8
7FF8
18E0
18C0
18C0
38C0
38C0
FFF0
FFF0
3180
7180
6180
6380
ENDCHAR
STARTCHAR 0024
ENCODING 36
STARTCHAR 0024
SWIDTH 583 0
DWIDTH 58 0
BBX 10 24 2 -3
BITMAP
0C00
0C00
0C00
3EC0
7FC0
FDC0
EDC0
CCC0
EC00
6C00
7C00
3F00
0F80
0D80
0DC0
CCC0
ECC0
EDC0
DF80
CF00
0C00
0C00
0C00
0C00
ENDCHAR
STARTCHAR 0025
ENCODING 37
STARTCHAR 0025
SWIDTH 583 0
DWIDTH 58 0
BBX 13 18 1 0
BITMAP
7830
FC70
CC60
CCE0
CCC0
CDC0
CD80
FF00
7B00
06F0
0FF8
0D98
1D98
1998
3998
3198
71F8
60F0
ENDCHAR
STARTCHAR 0026
ENCODING 38
STARTCHAR 0026
SWIDTH 583 0
DWIDTH 58 0
BBX 11 18 2 0
BITMAP
1F00
3F80
71C0
60C0
6000
6000
60C0
70C0
3FE0
3FE0
70C0
E0C0
C0C0
C0C0
E1C0
E1C0
7EC0
3CC0
ENDCHAR
STARTCHAR 0027
ENCODING 39
STARTCHAR 0027
SWIDTH 583 0
DWIDTH 58 0
BBX 2 8 6 11
BITMAP
C0
C0
C0
C0
C0
C0
C0
C0
ENDCHAR
STARTCHAR 0028
ENCODING 40
STARTCHAR 0028
SWIDTH 583 0
DWIDTH 58 0
BBX 8 25 3 -4
BITMAP
07
1F
3C
70
60
E0
E0
C0
C0
C0
C0
C0
C0
C0
C0
C0
C0
C0
E0
E0
60
70
3C
1F
07
ENDCHAR
STARTCHAR 0029
ENCODING 41
STARTCHAR 0029
SWIDTH 583 0
DWIDTH 58 0
BBX 8 25 4 -4
BITMAP
F0
F8
1C
0E
07
07
03
03
03
03
03
03
03
03
03
03
03
03
03
07
07
0E
1C
F8
F0
ENDCHAR
STARTCHAR 002A
ENCODING 42
STARTCHAR 002A
SWIDTH 583 0
DWIDTH 58 0
BBX 11 12 2 6
BITMAP
0C00
0C00
8C40
ECE0
7FC0
3F00
3F00
7FC0
ECE0
8C40
0C00
0C00
ENDCHAR
STARTCHAR 002B
ENCODING 43
STARTCHAR 002B
SWIDTH 583 0
DWIDTH 58 0
BBX 10 11 2 3
BITMAP
0C00
0C00
0C00
0C00
0C00
FFC0
FFC0
0C00
0C00
0C00
0C00
ENDCHAR
STARTCHAR 002C
ENCODING 44
STARTCHAR 002C
SWIDTH 583 0
DWIDTH 58 0
BBX 4 9 5 -5
BITMAP
F0
F0
F0
F0
30
30
60
E0
C0
ENDCHAR
STARTCHAR 002D
ENCODING 45
STARTCHAR 002D
SWIDTH 583 0
DWIDTH 58 0
BBX 10 2 2 7
BITMAP
FFC0
FFC0
ENDCHAR
STARTCHAR 002E
ENCODING 46
STARTCHAR 002E
SWIDTH 583 0
DWIDTH 58 0
BBX 4 4 5 0
BITMAP
F0
F0
F0
F0
ENDCHAR
STARTCHAR 002F
ENCODING 47
STARTCHAR 002F
SWIDTH 583 0
DWIDTH 58 0
BBX 10 24 2 -4
BITMAP
00C0
00C0
01C0
0180
0180
0380
0300
0300
0700
0600
0600
0E00
0C00
0C00
1C00
1800
1800
3800
3000
3000
7000
6000
6000
E000
ENDCHAR
STARTCHAR 0030
ENCODING 48
STARTCHAR 0030
SWIDTH 583 0
DWIDTH 58 0
BBX 10 18 2 0
BITMAP
1F00
7F80
71C0
E0C0
C0C0
C1C0
C3C0
C7C0
CEC0
CCC0
D8C0
F0C0
E0C0
E0C0
E0C0
61C0
7F80
1F00
ENDCHAR
STARTCHAR 0031
ENCODING 49
STARTCHAR 0031
SWIDTH 583 0
DWIDTH 58 0
BBX 10 18 2 0
BITMAP
1C00
3C00
7C00
EC00
CC00
0C00
0C00
0C00
0C00
0C00
0C00
0C00
0C00
0C00
0C00
0C00
FFC0
FFC0
ENDCHAR
STARTCHAR 0032
ENCODING 50
STARTCHAR 0032
SWIDTH 583 0
DWIDTH 58 0
BBX 10 18 2 0
BITMAP
3F00
7F80
E1C0
E1C0
C0C0
00C0
01C0
0180
0380
0700
0E00
0E00
1C00
3800
70C0
E0C0
FFC0
FFC0
ENDCHAR
STARTCHAR 0033
ENCODING 51
STARTCHAR 0033
SWIDTH 583 0
DWIDTH 58 0
BBX 10 18 2 0
BITMAP
FFC0
FFC0
01C0
0380
0700
0E00
1C00
1F00
1F80
01C0
00C0
00C0
00C0
C0C0
E0C0
E1C0
7F80
1F00
ENDCHAR
STARTCHAR 0034
ENCODING 52
STARTCHAR 0034
SWIDTH 583 0
DWIDTH 58 0
BBX 10 18 2 0
BITMAP
0380
0300
0700
0600
0E00
0C00
1800
3800
3180
7180
6180
E180
FFC0
FFC0
0180
0180
07C0
07C0
ENDCHAR
STARTCHAR 0035
ENCODING 53
STARTCHAR 0035
SWIDTH 583 0
DWIDTH 58 0
BBX 10 18 3 0
BITMAP
FF80
FF80
C180
C180
C000
C000
C000
FE00
FF80
0380
01C0
00C0
00C0
00C0
C1C0
E380
7F80
3E00
ENDCHAR
STARTCHAR 0036
ENCODING 54
STARTCHAR 0036
SWIDTH 583 0
DWIDTH 58 0
BBX 10 18 2 0
BITMAP
1F00
7F80
71C0
E0C0
C0C0
C000
C000
CF00
DF80
E1C0
E0C0
C0C0
C0C0
C0C0
E0C0
71C0
7F80
1F00
ENDCHAR
STARTCHAR 0037
ENCODING 55
STARTCHAR 0037
SWIDTH 583 0
DWIDTH 58 0
BBX 10 18 2 0
BITMAP
FFC0
FFC0
C0C0
C1C0
0180
0180
0380
0300
0300
0700
0600
0600
0E00
0C00
0C00
1C00
1800
1800
ENDCHAR
STARTCHAR 0038
ENCODING 56
STARTCHAR 0038
SWIDTH 583 0
DWIDTH 58 0
BBX 10 18 2 0
BITMAP
1F00
3F80
71C0
60C0
60C0
61C0
7180
3B80
1F00
3F00
7380
61C0
C0C0
C0C0
E0C0
E1C0
7F80
3F00
ENDCHAR
STARTCHAR 0039
ENCODING 57
STARTCHAR 0039
SWIDTH 583 0
DWIDTH 58 0
BBX 10 18 2 0
BITMAP
1F00
7F80
71C0
E0C0
C0C0
C0C0
C0C0
E0C0
F1C0
7EC0
3CC0
00C0
00C0
C0C0
E0C0
E1C0
7F80
3F00
ENDCHAR
STARTCHAR 003A
ENCODING 58
STARTCHAR 003A
SWIDTH 583 0
DWIDTH 58 0
BBX 4 13 5 0
BITMAP
F0
F0
F0
F0
00
00
00
00
00
F0
F0
F0
F0
ENDCHAR
STARTCHAR 003B
ENCODING 59
STARTCHAR 003B
SWIDTH 583 0
DWIDTH 58 0
BBX 4 18 5 -5
BITMAP
F0
F0
F0
F0
00
00
00
00
00
F0
F0
F0
F0
30
30
60
E0
C0
ENDCHAR
STARTCHAR 003C
ENCODING 60
STARTCHAR 003C
SWIDTH 583 0
DWIDTH 58 0
BBX 10 14 2 2
BITMAP
00C0
03C0
0700
1E00
3800
F000
C000
E000
7800
1C00
0F00
03C0
01C0
0040
ENDCHAR
STARTCHAR 003D
ENCODING 61
STARTCHAR 003D
SWIDTH 583 0
DWIDTH 58 0
BBX 10 7 2 5
BITMAP
FFC0
FFC0
0000
0000
0000
FFC0
FFC0
ENDCHAR
STARTCHAR 003E
ENCODING 62
STARTCHAR 003E
SWIDTH 583 0
DWIDTH 58 0
BBX 10 14 2 2
BITMAP
C000
F000
3800
1E00
0700
03C0
00C0
01C0
0780
0E00
3C00
F000
E000
8000
ENDCHAR
STARTCHAR 003F
ENCODING 63
STARTCHAR 003F
SWIDTH 583 0
DWIDTH 58 0
BBX 10 18 2 0
BITMAP
3F00
7F80
E1C0
C0C0
00C0
00C0
00C0
01C0
0F80
0F00
0C00
0C00
0000
0000
0000
0E00
0E00
0E00
ENDCHAR
STARTCHAR 0040
ENCODING 64
STARTCHAR 0040
SWIDTH 583 0
DWIDTH 58 0
BBX 13 21 1 -2
BITMAP
1FC0
3FF0
7078
E038
C018
CF18
DF98
D998
D998
D998
D998
D998
D998
D998
D998
DFF8
CFF0
E000
7000
3FF0
1FF0
ENDCHAR
STARTCHAR 0041
ENCODING 65
STARTCHAR 0041
SWIDTH 583 0
DWIDTH 58 0
BBX 13 18 1 0
BITMAP
0700
0700
0F80
0D80
0D80
0D80
0D80
1DC0
18C0
18C0
1FC0
3FE0
3060
3060
3060
7070
F8F8
F8F8
ENDCHAR
STARTCHAR 0042
ENCODING 66
STARTCHAR 0042
SWIDTH 583 0
DWIDTH 58 0
BBX 12 18 0 0
BITMAP
FF80
FFE0
30E0
3070
3030
3030
3070
30E0
3FC0
3FE0
3070
3030
3030
3030
3030
3070
FFE0
FF80
ENDCHAR
STARTCHAR 0043
ENCODING 67
STARTCHAR 0043
SWIDTH 583 0
DWIDTH 58 0
BBX 10 18 2 0
BITMAP
1F00
7FC0
71C0
E0C0
C0C0
C000
C000
C000
C000
C000
C000
C000
C000
C0C0
E0C0
71C0
7F80
1F00
ENDCHAR
STARTCHAR 0044
ENCODING 68
STARTCHAR 0044
SWIDTH 583 0
DWIDTH 58 0
BBX 12 18 0 0
BITMAP
FF80
FFE0
30F0
3070
3030
3030
3030
3030
3030
3030
3030
3030
3030
3030
3030
30F0
FFE0
FF80
ENDCHAR
STARTCHAR 0045
ENCODING 69
STARTCHAR 0045
SWIDTH 583 0
DWIDTH 58 0
BBX 12 18 1 0
BITMAP
FFF0
FFF0
3030
3030
3000
3000
3000
3000
3FC0
3FC0
3000
3000
3000
3000
3030
3030
FFF0
FFF0
ENDCHAR
STARTCHAR 0046
ENCODING 70
STARTCHAR 0046
SWIDTH 583 0
DWIDTH 58 0
BBX 10 18 2 0
BITMAP
FFC0
FFC0
60C0
60C0
6000
6000
6000
6000
7F00
7F00
6000
6000
6000
6000
6000
6000
F800
F800
ENDCHAR
STARTCHAR 0047
ENCODING 71
STARTCHAR 0047
SWIDTH 583 0
DWIDTH 58 0
BBX 10 18 2 0
BITMAP
3EC0
7FC0
F1C0
E0C0
C0C0
C000
C000
C000
C7C0
C7C0
C0C0
C0C0
C0C0
C0C0
E0C0
F1C0
7EC0
3CC0
ENDCHAR
STARTCHAR 0048
ENCODING 72
STARTCHAR 0048
SWIDTH 583 0
DWIDTH 58 0
BBX 13 18 1 0
BITMAP
F8F8
F8F8
6060
6060
6060
6060
6060
6060
7FE0
7FE0
6060
6060
6060
6060
6060
6060
F8F8
F8F8
ENDCHAR
STARTCHAR 0049
ENCODING 73
STARTCHAR 0049
SWIDTH 583 0
DWIDTH 58 0
BBX 10 18 2 0
BITMAP
FFC0
FFC0
0C00
0C00
0C00
0C00
0C00
0C00
0C00
0C00
0C00
0C00
0C00
0C00
0C00
0C00
FFC0
FFC0
ENDCHAR
STARTCHAR 004A
ENCODING 74
STARTCHAR 004A
SWIDTH 583 0
DWIDTH 58 0
BBX 10 18 2 0
BITMAP
0FC0
0FC0
00C0
00C0
00C0
00C0
00C0
00C0
00C0
00C0
00C0
00C0
00C0
C0C0
E1C0
E180
7F80
3F00
ENDCHAR
STARTCHAR 004B
ENCODING 75
STARTCHAR 004B
SWIDTH 583 0
DWIDTH 58 0
BBX 12 18 1 0
BITMAP
F8F0
F8F0
61C0
6380
6300
6700
6E00
6E00
7C00
7E00
7E00
7300
6300
6180
6180
60C0
F8F0
F870
ENDCHAR
STARTCHAR 004C
ENCODING 76
STARTCHAR 004C
SWIDTH 583 0
DWIDTH 58 0
BBX 10 18 2 0
BITMAP
F800
F800
6000
6000
6000
6000
6000
6000
6000
6000
6000
6000
6000
6000
60C0
60C0
FFC0
FFC0
ENDCHAR
STARTCHAR 004D
ENCODING 77
STARTCHAR 004D
SWIDTH 583 0
DWIDTH 58 0
BBX 13 18 1 0
BITMAP
F078
F078
7070
78F0
68F0
68B0
6DB0
6DB0
65B0
6530
6730
6730
6230
6030
6030
6030
F078
F078
ENDCHAR
STARTCHAR 004E
ENCODING 78
STARTCHAR 004E
SWIDTH 583 0
DWIDTH 58 0
BBX 13 18 1 0
BITMAP
F0F8
F0F8
7860
7860
7C60
6C60
6C60
6660
6660
6660
6360
6360
61E0
61E0
61E0
60E0
F8E0
F8E0
ENDCHAR
STARTCHAR 004F
ENCODING 79
STARTCHAR 004F
SWIDTH 583 0
DWIDTH 58 0
BBX 10 18 2 0
BITMAP
1F00
7F80
71C0
E0C0
C0C0
C0C0
C0C0
C0C0
C0C0
C0C0
C0C0
C0C0
C0C0
C0C0
E0C0
71C0
7F80
1F00
ENDCHAR
STARTCHAR 0050
ENCODING 80
STARTCHAR 0050
SWIDTH 583 0
DWIDTH 58 0
BBX 11 18 1 0
BITMAP
FF00
FFC0
61C0
60E0
6060
6060
6060
60E0
61C0
7FC0
7F00
6000
6000
6000
6000
6000
F800
F800
ENDCHAR
STARTCHAR 0051
ENCODING 81
STARTCHAR 0051
SWIDTH 583 0
DWIDTH 58 0
BBX 11 19 2 -1
BITMAP
1F00
7F80
71C0
E0C0
C0C0
C0C0
C0C0
C0C0
C0C0
C0C0
C0C0
C0C0
CEC0
C6C0
E3C0
71C0
7FC0
1FC0
0060
ENDCHAR
STARTCHAR 0052
ENCODING 82
STARTCHAR 0052
SWIDTH 583 0
DWIDTH 58 0
BBX 13 18 1 0
BITMAP
FF80
FFC0
60E0
6060
6060
6060
6060
6060
60E0
7FC0
7F80
6300
6380
6180
61C0
60C0
F8F8
F878
ENDCHAR
STARTCHAR 0053
ENCODING 83
STARTCHAR 0053
SWIDTH 583 0
DWIDTH 58 0
BBX 10 18 2 0
BITMAP
3CC0
7EC0
E1C0
E1C0
C0C0
C000
E000
7000
3E00
1F00
0380
01C0
00C0
C0C0
E1C0
E1C0
DF80
CF00
ENDCHAR
STARTCHAR 0054
ENCODING 84
STARTCHAR 0054
SWIDTH 583 0
DWIDTH 58 0
BBX 10 18 2 0
BITMAP
FFC0
FFC0
CCC0
CCC0
0C00
0C00
0C00
0C00
0C00
0C00
0C00
0C00
0C00
0C00
0C00
0C00
3F80
3F80
ENDCHAR
STARTCHAR 0055
ENCODING 85
STARTCHAR 0055
SWIDTH 583 0
DWIDTH 58 0
BBX 13 18 1 0
BITMAP
F8F8
F8F8
6060
6060
6060
6060
6060
6060
6060
6060
6060
6060
6060
6060
7060
30E0
3FC0
0F80
ENDCHAR
STARTCHAR 0056
ENCODING 86
STARTCHAR 0056
SWIDTH 583 0
DWIDTH 58 0
BBX 13 18 1 0
BITMAP
F8F8
F8F8
3060
3060
3060
38E0
18C0
18C0
18C0
18C0
0DC0
0D80
0D80
0D80
0D80
0700
0700
0700
ENDCHAR
STARTCHAR 0057
ENCODING 87
STARTCHAR 0057
SWIDTH 583 0
DWIDTH 58 0
BBX 13 18 1 0
BITMAP
F078
F078
6030
6030
6030
6730
6730
2720
2560
3560
3560
3DE0
3DE0
3DE0
38E0
18C0
18C0
18C0
ENDCHAR
STARTCHAR 0058
ENCODING 88
STARTCHAR 0058
SWIDTH 583 0
DWIDTH 58 0
BBX 13 18 1 0
BITMAP
F8F8
F8F8
38E0
18C0
1DC0
0D80
0F80
0700
0700
0700
0700
0F80
0D80
1DC0
18C0
38E0
F8F8
F8F8
ENDCHAR
STARTCHAR 0059
ENCODING 89
STARTCHAR 0059
SWIDTH 583 0
DWIDTH 58 0
BBX 13 18 1 0
BITMAP
F8F8
F8F8
3060
38E0
18C0
19C0
1D80
0F80
0F00
0700
0600
0600
0600
0600
0600
0600
1FC0
1FC0
ENDCHAR
STARTCHAR 005A
ENCODING 90
STARTCHAR 005A
SWIDTH 583 0
DWIDTH 58 0
BBX 10 18 2 0
BITMAP
FFC0
FFC0
C1C0
C380
0380
0700
0700
0E00
0E00
1C00
1C00
3800
3800
7000
70C0
E0C0
FFC0
FFC0
ENDCHAR
STARTCHAR 005B
ENCODING 91
STARTCHAR 005B
SWIDTH 583 0
DWIDTH 58 0
BBX 8 24 4 -4
BITMAP
FF
FF
C0
C0
C0
C0
C0
C0
C0
C0
C0
C0
C0
C0
C0
C0
C0
C0
C0
C0
C0
C0
FF
FF
ENDCHAR
STARTCHAR 005C
ENCODING 92
STARTCHAR 005C
SWIDTH 583 0
DWIDTH 58 0
BBX 10 24 2 -4
BITMAP
E000
6000
6000
7000
3000
3000
3800
1800
1800
1C00
0C00
0C00
0E00
0600
0600
0700
0300
0300
0380
0180
0180
01C0
00C0
00C0
ENDCHAR
STARTCHAR 005D
ENCODING 93
STARTCHAR 005D
SWIDTH 583 0
DWIDTH 58 0
BBX 7 24 3 -4
BITMAP
FE
FE
06
06
06
06
06
06
06
06
06
06
06
06
06
06
06
06
06
06
06
06
FE
FE
ENDCHAR
STARTCHAR 005E
ENCODING 94
STARTCHAR 005E
SWIDTH 583 0
DWIDTH 58 0
BBX 11 7 2 11
BITMAP
0E00
1F00
3B00
7380
E1C0
C0E0
4040
ENDCHAR
STARTCHAR 005F
ENCODING 95
STARTCHAR 005F
SWIDTH 583 0
DWIDTH 58 0
BBX 10 2 2 -2
BITMAP
FFC0
FFC0
ENDCHAR
STARTCHAR 0060
ENCODING 96
STARTCHAR 0060
SWIDTH 583 0
DWIDTH 58 0
BBX 6 6 3 13
BITMAP
40
E0
70
38
18
0C
ENDCHAR
STARTCHAR 0061
ENCODING 97
STARTCHAR 0061
SWIDTH 583 0
DWIDTH 58 0
BBX 12 13 2 0
BITMAP
3F00
7F80
E1C0
C0C0
00C0
1FC0
7FC0
E0C0
C0C0
C0C0
E1C0
7FF0
3CF0
ENDCHAR
STARTCHAR 0062
ENCODING 98
STARTCHAR 0062
SWIDTH 583 0
DWIDTH 58 0
BBX 11 18 1 0
BITMAP
E000
E000
6000
6000
6000
6780
6FC0
78E0
7060
6060
6060
6060
6060
6060
7060
78E0
EFC0
E780
ENDCHAR
STARTCHAR 0063
ENCODING 99
STARTCHAR 0063
SWIDTH 583 0
DWIDTH 58 0
BBX 10 13 2 0
BITMAP
3EC0
7FC0
F1C0
E0C0
C0C0
C000
C000
C000
C000
E0C0
71C0
7F80
1F00
ENDCHAR
STARTCHAR 0064
ENCODING 100
STARTCHAR 0064
SWIDTH 583 0
DWIDTH 58 0
BBX 12 18 2 0
BITMAP
01C0
01C0
00C0
00C0
00C0
3CC0
7EC0
F1C0
E0C0
C0C0
C0C0
C0C0
C0C0
C0C0
E0C0
F1C0
7EF0
3CF0
ENDCHAR
STARTCHAR 0065
ENCODING 101
STARTCHAR 0065
SWIDTH 583 0
DWIDTH 58 0
BBX 10 13 2 0
BITMAP
1F00
7F80
61C0
E0C0
C0C0
FFC0
FFC0
C000
C000
E0C0
71C0
7F80
1F00
ENDCHAR
STARTCHAR 0066
ENCODING 102
STARTCHAR 0066
SWIDTH 583 0
DWIDTH 58 0
BBX 10 18 2 0
BITMAP
0F00
1FC0
1CC0
1800
1800
1800
FF80
FF80
1800
1800
1800
1800
1800
1800
1800
1800
FF80
FF80
ENDCHAR
STARTCHAR 0067
ENCODING 103
STARTCHAR 0067
SWIDTH 583 0
DWIDTH 58 0
BBX 12 18 1 -5
BITMAP
1FF0
3FF0
70E0
6060
6060
70E0
3FC0
3F80
6000
7000
7FC0
3FE0
0070
0030
E030
7070
7FE0
1F80
ENDCHAR
STARTCHAR 0068
ENCODING 104
STARTCHAR 0068
SWIDTH 583 0
DWIDTH 58 0
BBX 13 18 1 0
BITMAP
E000
E000
6000
6000
6000
6780
6FC0
78E0
7060
6060
6060
6060
6060
6060
6060
6060
F8F8
F8F8
ENDCHAR
STARTCHAR 0069
ENCODING 105
STARTCHAR 0069
SWIDTH 583 0
DWIDTH 58 0
BBX 10 18 2 0
BITMAP
1C00
1C00
1C00
0000
0000
FC00
FC00
0C00
0C00
0C00
0C00
0C00
0C00
0C00
0C00
0C00
FFC0
FFC0
ENDCHAR
STARTCHAR 006A
ENCODING 106
STARTCHAR 006A
SWIDTH 583 0
DWIDTH 58 0
BBX 9 23 1 -5
BITMAP
0380
0380
0380
0000
0000
1F80
1F80
0180
0180
0180
0180
0180
0180
0180
0180
0180
0180
0180
0180
C380
E300
FF00
3E00
ENDCHAR
STARTCHAR 006B
ENCODING 107
STARTCHAR 006B
SWIDTH 583 0
DWIDTH 58 0
BBX 12 18 1 0
BITMAP
E000
E000
6000
6000
6000
60F0
61F0
6380
6380
6700
6E00
7E00
7F00
7300
6380
61C0
F8F0
F8F0
ENDCHAR
STARTCHAR 006C
ENCODING 108
STARTCHAR 006C
SWIDTH 583 0
DWIDTH 58 0
BBX 10 18 2 0
BITMAP
FC00
FC00
0C00
0C00
0C00
0C00
0C00
0C00
0C00
0C00
0C00
0C00
0C00
0C00
0C00
0C00
FFC0
FFC0
ENDCHAR
STARTCHAR 006D
ENCODING 109
STARTCHAR 006D
SWIDTH 583 0
DWIDTH 58 0
BBX 13 13 1 0
BITMAP
EE60
FFF0
7730
6330
6330
6330
6330
6330
6330
6330
6330
E338
E338
ENDCHAR
STARTCHAR 006E
ENCODING 110
STARTCHAR 006E
SWIDTH 583 0
DWIDTH 58 0
BBX 13 13 1 0
BITMAP
E780
EFC0
78E0
7060
6060
6060
6060
6060
6060
6060
6060
F8F8
F8F8
ENDCHAR
STARTCHAR 006F
ENCODING 111
STARTCHAR 006F
SWIDTH 583 0
DWIDTH 58 0
BBX 10 13 2 0
BITMAP
1F00
7F80
71C0
E0C0
C0C0
C0C0
C0C0
C0C0
C0C0
E0C0
71C0
7F80
1F00
ENDCHAR
STARTCHAR 0070
ENCODING 112
STARTCHAR 0070
SWIDTH 583 0
DWIDTH 58 0
BBX 11 18 1 -5
BITMAP
E780
EFC0
78E0
7060
6060
6060
6060
6060
6060
7060
78E0
6FC0
6780
6000
6000
6000
F800
F800
ENDCHAR
STARTCHAR 0071
ENCODING 113
STARTCHAR 0071
SWIDTH 583 0
DWIDTH 58 0
BBX 11 18 2 -5
BITMAP
3CE0
7EE0
F1C0
E0C0
C0C0
C0C0
C0C0
C0C0
C0C0
E0C0
F1C0
7EC0
3CC0
00C0
00C0
00C0
03E0
03E0
ENDCHAR
STARTCHAR 0072
ENCODING 114
STARTCHAR 0072
SWIDTH 583 0
DWIDTH 58 0
BBX 10 13 2 0
BITMAP
F380
F7C0
39C0
38C0
3000
3000
3000
3000
3000
3000
3000
FE00
FE00
ENDCHAR
STARTCHAR 0073
ENCODING 115
STARTCHAR 0073
SWIDTH 583 0
DWIDTH 58 0
BBX 10 13 2 0
BITMAP
3EC0
7FC0
E1C0
C0C0
E0C0
7800
3F00
0780
C1C0
C0C0
E1C0
FF80
DF00
ENDCHAR
STARTCHAR 0074
ENCODING 116
STARTCHAR 0074
SWIDTH 583 0
DWIDTH 58 0
BBX 11 18 2 0
BITMAP
1800
1800
1800
1800
1800
FFC0
FFC0
1800
1800
1800
1800
1800
1800
1860
1860
1CE0
0FC0
0780
ENDCHAR
STARTCHAR 0075
ENCODING 117
STARTCHAR 0075
SWIDTH 583 0
DWIDTH 58 0
BBX 14 13 0 0
BITMAP
F0F0
F0F0
3030
3030
3030
3030
3030
3030
3030
3870
3870
1FBC
0F3C
ENDCHAR
STARTCHAR 0076
ENCODING 118
STARTCHAR 0076
SWIDTH 583 0
DWIDTH 58 0
BBX 13 13 1 0
BITMAP
F8F8
F8F8
3060
38E0
38E0
18C0
18C0
1DC0
0D80
0D80
0F80
0700
0700
ENDCHAR
STARTCHAR 0077
ENCODING 119
STARTCHAR 0077
SWIDTH 583 0
DWIDTH 58 0
BBX 13 13 1 0
BITMAP
F078
F078
6030
6030
6730
2720
3560
3560
3DE0
3DE0
38E0
18C0
18C0
ENDCHAR
STARTCHAR 0078
ENCODING 120
STARTCHAR 0078
SWIDTH 583 0
DWIDTH 58 0
BBX 13 13 1 0
BITMAP
F8F8
F8F8
18C0
1DC0
0F80
0700
0700
0700
0F80
1DC0
18C0
F8F8
F8F8
ENDCHAR
STARTCHAR 0079
ENCODING 121
STARTCHAR 0079
SWIDTH 583 0
DWIDTH 58 0
BBX 13 18 1 -5
BITMAP
F8F8
F8F8
3060
3060
38E0
18C0
18C0
1DC0
0D80
0D80
0700
0700
0700
0600
0600
0E00
7C00
7800
ENDCHAR
STARTCHAR 007A
ENCODING 122
STARTCHAR 007A
SWIDTH 583 0
DWIDTH 58 0
BBX 10 13 2 0
BITMAP
FFC0
FFC0
C1C0
C380
0700
0E00
0C00
1C00
3800
70C0
E0C0
FFC0
FFC0
ENDCHAR
STARTCHAR 007B
ENCODING 123
STARTCHAR 007B
SWIDTH 583 0
DWIDTH 58 0
BBX 9 24 3 -4
BITMAP
0380
0F80
0E00
1C00
1800
1800
1800
1800
1800
1800
3800
F000
F000
3800
1800
1800
1800
1800
1800
1800
1C00
0E00
0F80
0380
ENDCHAR
STARTCHAR 007C
ENCODING 124
STARTCHAR 007C
SWIDTH 583 0
DWIDTH 58 0
BBX 2 24 6 -4
BITMAP
C0
C0
C0
C0
C0
C0
C0
C0
C0
C0
C0
C0
C0
C0
C0
C0
C0
C0
C0
C0
C0
C0
C0
C0
ENDCHAR
STARTCHAR 007D
ENCODING 125
STARTCHAR 007D
SWIDTH 583 0
DWIDTH 58 0
BBX 9 24 3 -4
BITMAP
E000
F000
3800
1800
1800
1800
1800
1800
1800
1C00
0E00
0F80
0F80
0E00
1C00
1800
1800
1800
1800
1800
1800
3800
F000
E000
ENDCHAR
STARTCHAR 007E
ENCODING 126
STARTCHAR 007E
SWIDTH 583 0
DWIDTH 58 0
BBX 11 5 2 6
BITMAP
7860
7CE0
CEC0
C780
8300
ENDCHAR
STARTCHAR 00A0
ENCODING 160
STARTCHAR 00A0
SWIDTH 583 0
DWIDTH 58 0
BBX 0 0 0 0
BITMAP
ENDCHAR
STARTCHAR 00A1
ENCODING 161
STARTCHAR 00A1
SWIDTH 583 0
DWIDTH 58 0
BBX 3 18 6 -5
BITMAP
E0
E0
E0
00
00
00
60
60
60
60
60
60
60
60
60
60
60
60
ENDCHAR
STARTCHAR 00A2
ENCODING 162
STARTCHAR 00A2
SWIDTH 583 0
DWIDTH 58 0
BBX 10 18 2 -3
BITMAP
0C00
0C00
3EC0
7FC0
FDC0
ECC0
CCC0
CC00
CC00
CC00
CC00
CCC0
EDC0
7FC0
3F80
0C00
0C00
0C00
ENDCHAR
STARTCHAR 00A3
ENCODING 163
STARTCHAR 00A3
SWIDTH 583 0
DWIDTH 58 0
BBX 10 18 2 0
BITMAP
0F00
1F80
39C0
31C0
3000
3000
3000
3000
FE00
FE00
3000
3000
3000
3000
70C0
70C0
FFC0
FFC0
ENDCHAR
STARTCHAR 00A4
ENCODING 164
STARTCHAR 00A4
SWIDTH 583 0
DWIDTH 58 0
BBX 11 12 2 2
BITMAP
4040
EFE0
7FC0
31C0
70C0
60C0
60C0
70C0
31C0
7FC0
EFE0
4040
ENDCHAR
STARTCHAR 00A5
ENCODING 165
STARTCHAR 00A5
SWIDTH 583 0
DWIDTH 58 0
BBX 13 18 1 0
BITMAP
F8F8
F8F8
3060
38C0
38C0
19C0
1D80
0F80
0F80
0700
7FE0
7FE0
0600
7FE0
7FE0
0600
1FC0
1FC0
ENDCHAR
STARTCHAR 00A6
ENCODING 166
STARTCHAR 00A6
SWIDTH 583 0
DWIDTH 58 0
BBX 2 24 6 -4
BITMAP
C0
C0
C0
C0
C0
C0
C0
C0
C0
C0
C0
00
00
C0
C0
C0
C0
C0
C0
C0
C0
C0
C0
C0
ENDCHAR
STARTCHAR 00A7
ENCODING 167
STARTCHAR 00A7
SWIDTH 583 0
DWIDTH 58 0
BBX 10 24 2 -4
BITMAP
3F00
7F80
61C0
E1C0
C0C0
C000
E000
7C00
7F00
6780
E1C0
C0C0
C0C0
E1C0
7980
3F80
0780
01C0
00C0
C0C0
E1C0
E180
7F80
3F00
ENDCHAR
STARTCHAR 00A8
ENCODING 168
STARTCHAR 00A8
SWIDTH 583 0
DWIDTH 58 0
BBX 9 3 3 15
BITMAP
E380
E380
E380
ENDCHAR
STARTCHAR 00A9
ENCODING 169
STARTCHAR 00A9
SWIDTH 583 0
DWIDTH 58 0
BBX 12 21 1 -2
BITMAP
1F80
3FC0
70E0
E060
C030
C030
CF30
D930
D830
D830
D830
D830
D830
D830
D930
CE30
C030
E060
70E0
3FC0
1F80
ENDCHAR
STARTCHAR 00AA
ENCODING 170
STARTCHAR 00AA
SWIDTH 583 0
DWIDTH 58 0
BBX 9 13 3 4
BITMAP
3C00
7E00
C300
0300
3F00
FF00
C300
FF80
7B80
0000
0000
0000
FF00
ENDCHAR
STARTCHAR 00AB
ENCODING 171
STARTCHAR 00AB
SWIDTH 583 0
DWIDTH 58 0
BBX 11 13 2 2
BITMAP
0840
1CE0
39C0
3180
6300
E700
C600
E700
6300
3180
39C0
18C0
0840
ENDCHAR
STARTCHAR 00AC
ENCODING 172
STARTCHAR 00AC
SWIDTH 583 0
DWIDTH 58 0
BBX 10 7 2 2
BITMAP
FFC0
FFC0
00C0
00C0
00C0
00C0
00C0
ENDCHAR
STARTCHAR 00AD
ENCODING 173
STARTCHAR 00AD
SWIDTH 583 0
DWIDTH 58 0
BBX 10 2 2 7
BITMAP
FFC0
FFC0
ENDCHAR
STARTCHAR 00AE
ENCODING 174
STARTCHAR 00AE
SWIDTH 583 0
DWIDTH 58 0
BBX 11 11 2 11
BITMAP
1F00
60C0
DE40
9160
9120
9F20
9220
9260
D940
60C0
1F00
ENDCHAR
STARTCHAR 00AF
ENCODING 175
STARTCHAR 00AF
SWIDTH 583 0
DWIDTH 58 0
BBX 10 2 2 16
BITMAP
FFC0
FFC0
ENDCHAR
STARTCHAR 00B0
ENCODING 176
STARTCHAR 00B0
SWIDTH 583 0
DWIDTH 58 0
BBX 5 6 4 13
BITMAP
70
F8
C8
C8
F8
70
ENDCHAR
STARTCHAR 00B1
ENCODING 177
STARTCHAR 00B1
SWIDTH 583 0
DWIDTH 58 0
BBX 10 14 2 0
BITMAP
0C00
0C00
0C00
0C00
0C00
FFC0
FFC0
0C00
0C00
0C00
0C00
0000
FFC0
FFC0
ENDCHAR
STARTCHAR 00B2
ENCODING 178
STARTCHAR 00B2
SWIDTH 583 0
DWIDTH 58 0
BBX 8 13 3 8
BITMAP
3C
7E
C3
03
03
07
0E
1C
18
30
63
FF
FF
ENDCHAR
STARTCHAR 00B3
ENCODING 179
STARTCHAR 00B3
SWIDTH 583 0
DWIDTH 58 0
BBX 8 13 3 8
BITMAP
FF
FF
0E
1C
38
3C
3E
03
03
03
C3
FE
3C
ENDCHAR
STARTCHAR 00B4
ENCODING 180
STARTCHAR 00B4
SWIDTH 583 0
DWIDTH 58 0
BBX 6 7 5 13
BITMAP
08
1C
1C
38
70
E0
40
ENDCHAR
STARTCHAR 00B5
ENCODING 181
STARTCHAR 00B5
SWIDTH 583 0
DWIDTH 58 0
BBX 14 18 0 -5
BITMAP
F0F0
F0F0
3030
3030
3030
3030
3030
3030
3030
3870
3870
3FBC
3F3C
3000
3000
3000
3000
3000
ENDCHAR
STARTCHAR 00B6
ENCODING 182
STARTCHAR 00B6
SWIDTH 583 0
DWIDTH 58 0
BBX 11 18 2 0
BITMAP
1FE0
3FE0
7E60
7E60
7E60
FE60
7E60
7E60
7E60
1E60
0660
0660
0660
0660
0660
0660
0660
0660
ENDCHAR
STARTCHAR 00B7
ENCODING 183
STARTCHAR 00B7
SWIDTH 583 0
DWIDTH 58 0
BBX 4 4 5 7
BITMAP
F0
F0
F0
F0
ENDCHAR
STARTCHAR 00B8
ENCODING 184
STARTCHAR 00B8
SWIDTH 583 0
DWIDTH 58 0
BBX 6 5 4 -5
BITMAP
30
38
0C
FC
F8
ENDCHAR
STARTCHAR 00B9
ENCODING 185
STARTCHAR 00B9
SWIDTH 583 0
DWIDTH 58 0
BBX 7 13 4 8
BITMAP
38
78
F8
18
18
18
18
18
18
18
18
FE
FE
ENDCHAR
STARTCHAR 00BA
ENCODING 186
STARTCHAR 00BA
SWIDTH 583 0
DWIDTH 58 0
BBX 8 13 3 4
BITMAP
3C
7E
C3
C3
C3
C3
C3
7E
3C
00
00
FF
FF
ENDCHAR
STARTCHAR 00BB
ENCODING 187
STARTCHAR 00BB
SWIDTH 583 0
DWIDTH 58 0
BBX 11 12 2 3
BITMAP
C600
6300
7380
3180
18C0
1CE0
18C0
39C0
7380
6300
C600
C600
ENDCHAR
STARTCHAR 00BC
ENCODING 188
STARTCHAR 00BC
SWIDTH 583 0
DWIDTH 58 0
BBX 10 25 2 -4
BITMAP
1C00
3C00
2C00
0C00
0C00
0C00
0C00
0C00
3E00
3E00
0000
0000
FFC0
0000
0000
0600
0C00
1800
1800
3600
7600
7F00
7F00
0700
0700
ENDCHAR
STARTCHAR 00BD
ENCODING 189
STARTCHAR 00BD
SWIDTH 583 0
DWIDTH 58 0
BBX 10 25 2 -4
BITMAP
1C00
3C00
2C00
0C00
0C00
0C00
0C00
0C00
3E00
3E00
0000
0000
FFC0
0000
0000
1E00
3F00
2300
0300
0200
0E00
1800
3300
7F00
7F00
ENDCHAR
STARTCHAR 00BE
ENCODING 190
STARTCHAR 00BE
SWIDTH 583 0
DWIDTH 58 0
BBX 10 25 2 -4
BITMAP
3F00
3F00
0600
0C00
0F00
0380
0180
3180
3F80
1F00
0000
0000
FFC0
0000
0000
0300
0600
0C00
0800
1B00
3300
3F00
3F00
0700
0700
ENDCHAR
STARTCHAR 00BF
ENCODING 191
STARTCHAR 00BF
SWIDTH 583 0
DWIDTH 58 0
BBX 10 18 2 -5
BITMAP
0E00
0E00
0E00
0000
0000
0C00
0C00
1C00
7C00
6000
E000
C000
C000
C0C0
E0C0
71C0
7F80
1F00
ENDCHAR
STARTCHAR 00C0
ENCODING 192
STARTCHAR 00C0
SWIDTH 583 0
DWIDTH 58 0
BBX 13 24 1 0
BITMAP
0800
1C00
0E00
0300
0000
0000
0700
0700
0F80
0D80
0D80
0D80
0D80
1DC0
18C0
18C0
1FC0
3FE0
3060
3060
3060
7070
F8F8
F8F8
ENDCHAR
STARTCHAR 00C1
ENCODING 193
STARTCHAR 00C1
SWIDTH 583 0
DWIDTH 58 0
BBX 13 24 1 0
BITMAP
0080
01C0
0380
0600
0000
0000
0700
0700
0F80
0D80
0D80
0D80
0D80
1DC0
18C0
18C0
1FC0
3FE0
3060
3060
3060
7070
F8F8
F8F8
ENDCHAR
STARTCHAR 00C2
ENCODING 194
STARTCHAR 00C2
SWIDTH 583 0
DWIDTH 58 0
BBX 13 24 1 0
BITMAP
0700
0D80
1DC0
18C0
0000
0000
0700
0700
0F80
0D80
0D80
0D80
0D80
1DC0
18C0
18C0
1FC0
3FE0
3060
3060
3060
7070
F8F8
F8F8
ENDCHAR
STARTCHAR 00C3
ENCODING 195
STARTCHAR 00C3
SWIDTH 583 0
DWIDTH 58 0
BBX 13 24 1 0
BITMAP
1C20
3E60
33E0
21C0
0000
0000
0700
0700
0F80
0D80
0D80
0D80
0D80
1DC0
18C0
18C0
1FC0
3FE0
3060
3060
3060
7070
F8F8
F8F8
ENDCHAR
STARTCHAR 00C4
ENCODING 196
STARTCHAR 00C4
SWIDTH 583 0
DWIDTH 58 0
BBX 13 23 1 0
BITMAP
38E0
38E0
38E0
0000
0000
0700
0700
0F80
0D80
0D80
0D80
1DC0
1DC0
18C0
18C0
1FC0
3FE0
3060
3060
3060
7070
F8F8
F8F8
ENDCHAR
STARTCHAR 00C5
ENCODING 197
STARTCHAR 00C5
SWIDTH 583 0
DWIDTH 58 0
BBX 13 24 1 0
BITMAP
0700
0F80
0980
0F80
0700
0000
0700
0700
0F80
0D80
0D80
0D80
0D80
1DC0
18C0
18C0
1FC0
3FE0
3060
3060
3060
7070
F8F8
F8F8
ENDCHAR
STARTCHAR 00C6
ENCODING 198
STARTCHAR 00C6
SWIDTH 583 0
DWIDTH 58 0
BBX 13 18 1 0
BITMAP
0FF8
0FF8
0798
0798
0780
0D80
0D80
0D80
0DF0
19F0
1980
1980
3F80
3F80
3180
3198
F9F8
F9F8
ENDCHAR
STARTCHAR 00C7
ENCODING 199
STARTCHAR 00C7
SWIDTH 583 0
DWIDTH 58 0
BBX 10 23 2 -5
BITMAP
1F00
7FC0
70C0
E0C0
C0C0
C000
C000
C000
C000
C000
C000
C000
C000
C0C0
E0C0
71C0
7F80
1F00
0C00
0F00
0300
3F00
3E00
ENDCHAR
STARTCHAR 00C8
ENCODING 200
STARTCHAR 00C8
SWIDTH 583 0
DWIDTH 58 0
BBX 12 24 1 0
BITMAP
0C00
0E00
0700
0380
0100
0000
FFF0
FFF0
3030
3030
3000
3000
3000
3000
3FC0
3FC0
3000
3000
3000
3000
3030
3030
FFF0
FFF0
ENDCHAR
STARTCHAR 00C9
ENCODING 201
STARTCHAR 00C9
SWIDTH 583 0
DWIDTH 58 0
BBX 12 24 1 0
BITMAP
0080
01C0
0380
0700
0200
0000
FFF0
FFF0
3030
3030
3000
3000
3000
3000
3FC0
3FC0
3000
3000
3000
3000
3030
3030
FFF0
FFF0
ENDCHAR
STARTCHAR 00CA
ENCODING 202
STARTCHAR 00CA
SWIDTH 583 0
DWIDTH 58 0
BBX 12 24 1 0
BITMAP
0780
0FC0
0CC0
1860
0000
0000
FFF0
FFF0
3030
3030
3000
3000
3000
3000
3FC0
3FC0
3000
3000
3000
3000
3030
3030
FFF0
FFF0
ENDCHAR
STARTCHAR 00CB
ENCODING 203
STARTCHAR 00CB
SWIDTH 583 0
DWIDTH 58 0
BBX 12 23 1 0
BITMAP
1CE0
1CE0
1CE0
0000
0000
FFF0
FFF0
3030
3030
3000
3000
3000
3000
3FC0
3FC0
3000
3000
3000
3000
3030
3030
FFF0
FFF0
ENDCHAR
STARTCHAR 00CC
ENCODING 204
STARTCHAR 00CC
SWIDTH 583 0
DWIDTH 58 0
BBX 10 24 2 0
BITMAP
3000
3800
1C00
0C00
0000
0000
FFC0
FFC0
0C00
0C00
0C00
0C00
0C00
0C00
0C00
0C00
0C00
0C00
0C00
0C00
0C00
0C00
FFC0
FFC0
ENDCHAR
STARTCHAR 00CD
ENCODING 205
STARTCHAR 00CD
SWIDTH 583 0
DWIDTH 58 0
BBX 10 24 2 0
BITMAP
0200
0700
0E00
1C00
0800
0000
FFC0
FFC0
0C00
0C00
0C00
0C00
0C00
0C00
0C00
0C00
0C00
0C00
0C00
0C00
0C00
0C00
FFC0
FFC0
ENDCHAR
STARTCHAR 00CE
ENCODING 206
STARTCHAR 00CE
SWIDTH 583 0
DWIDTH 58 0
BBX 10 24 2 0
BITMAP
1E00
3E00
3300
6180
0000
0000
FFC0
FFC0
0C00
0C00
0C00
0C00
0C00
0C00
0C00
0C00
0C00
0C00
0C00
0C00
0C00
0C00
FFC0
FFC0
ENDCHAR
STARTCHAR 00CF
ENCODING 207
STARTCHAR 00CF
SWIDTH 583 0
DWIDTH 58 0
BBX 10 23 2 0
BITMAP
7380
7380
7380
0000
0000
FFC0
FFC0
0C00
0C00
0C00
0C00
0C00
0C00
0C00
0C00
0C00
0C00
0C00
0C00
0C00
0C00
FFC0
FFC0
ENDCHAR
STARTCHAR 00D0
ENCODING 208
STARTCHAR 00D0
SWIDTH 583 0
DWIDTH 58 0
BBX 12 18 1 0
BITMAP
FF80
FFE0
30E0
3070
3030
3030
3030
3030
FE30
FE30
3030
3030
3030
3030
3070
30E0
FFE0
FF80
ENDCHAR
STARTCHAR 00D1
ENCODING 209
STARTCHAR 00D1
SWIDTH 583 0
DWIDTH 58 0
BBX 13 24 1 0
BITMAP
1C60
3E60
77C0
2380
0000
0000
F0F8
F0F8
7860
7860
7C60
6C60
6C60
6660
6660
6660
6360
6360
61E0
61E0
61E0
60E0
F8E0
F8E0
ENDCHAR
STARTCHAR 00D2
ENCODING 210
STARTCHAR 00D2
SWIDTH 583 0
DWIDTH 58 0
BBX 10 24 2 0
BITMAP
1000
3800
1C00
0E00
0400
0000
1F00
7F80
71C0
E0C0
C0C0
C0C0
C0C0
C0C0
C0C0
C0C0
C0C0
C0C0
C0C0
C0C0
E0C0
71C0
7F80
1F00
ENDCHAR
STARTCHAR 00D3
ENCODING 211
STARTCHAR 00D3
SWIDTH 583 0
DWIDTH 58 0
BBX 10 24 2 0
BITMAP
0200
0700
0600
0C00
0800
0000
1F00
7F80
71C0
E0C0
C0C0
C0C0
C0C0
C0C0
C0C0
C0C0
C0C0
C0C0
C0C0
C0C0
E0C0
71C0
7F80
1F00
ENDCHAR
STARTCHAR 00D4
ENCODING 212
STARTCHAR 00D4
SWIDTH 583 0
DWIDTH 58 0
BBX 10 25 2 0
BITMAP
0C00
1E00
3F00
3380
2180
0000
0000
1F00
7F80
71C0
E0C0
C0C0
C0C0
C0C0
C0C0
C0C0
C0C0
C0C0
C0C0
C0C0
C0C0
E0C0
71C0
7F80
1F00
ENDCHAR
STARTCHAR 00D5
ENCODING 213
STARTCHAR 00D5
SWIDTH 583 0
DWIDTH 58 0
BBX 10 24 2 0
BITMAP
3880
7DC0
EF80
4700
0000
0000
1F00
7F80
71C0
E0C0
C0C0
C0C0
C0C0
C0C0
C0C0
C0C0
C0C0
C0C0
C0C0
C0C0
E0C0
71C0
7F80
1F00
ENDCHAR
STARTCHAR 00D6
ENCODING 214
STARTCHAR 00D6
SWIDTH 583 0
DWIDTH 58 0
BBX 10 23 2 0
BITMAP
7380
7380
7380
0000
0000
1F00
7F80
71C0
E0C0
C0C0
C0C0
C0C0
C0C0
C0C0
C0C0
C0C0
C0C0
C0C0
C0C0
E0C0
71C0
7F80
1F00
ENDCHAR
STARTCHAR 00D7
ENCODING 215
STARTCHAR 00D7
SWIDTH 583 0
DWIDTH 58 0
BBX 12 13 1 2
BITMAP
4000
E030
7070
38E0
1DC0
0F80
0700
0F80
1D80
38C0
7060
E070
4030
ENDCHAR
STARTCHAR 00D8
ENCODING 216
STARTCHAR 00D8
SWIDTH 583 0
DWIDTH 58 0
BBX 10 20 2 -1
BITMAP
00C0
1FC0
7FC0
71C0
E1C0
C3C0
C3C0
C6C0
C6C0
CCC0
CCC0
DCC0
D8C0
D8C0
F0C0
F0C0
71C0
7F80
DF00
C000
ENDCHAR
STARTCHAR 00D9
ENCODING 217
STARTCHAR 00D9
SWIDTH 583 0
DWIDTH 58 0
BBX 13 24 1 0
BITMAP
0800
1C00
0E00
0700
0000
0000
F8F8
F8F8
6060
6060
6060
6060
6060
6060
6060
6060
6060
6060
6060
6060
7060
30E0
3FC0
0F80
ENDCHAR
STARTCHAR 00DA
ENCODING 218
STARTCHAR 00DA
SWIDTH 583 0
DWIDTH 58 0
BBX 13 24 1 0
BITMAP
0080
0180
0300
0600
0000
0000
F8F8
F8F8
6060
6060
6060
6060
6060
6060
6060
6060
6060
6060
6060
6060
7060
30E0
3FC0
0F80
ENDCHAR
STARTCHAR 00DB
ENCODING 219
STARTCHAR 00DB
SWIDTH 583 0
DWIDTH 58 0
BBX 13 25 1 0
BITMAP
0700
0F80
1D80
18C0
10C0
0000
0000
F8F8
F8F8
6060
6060
6060
6060
6060
6060
6060
6060
6060
6060
6060
6060
7060
30E0
3FC0
0F80
ENDCHAR
STARTCHAR 00DC
ENCODING 220
STARTCHAR 00DC
SWIDTH 583 0
DWIDTH 58 0
BBX 13 23 1 0
BITMAP
38E0
38E0
38E0
0000
0000
F8F8
F8F8
6060
6060
6060
6060
6060
6060
6060
6060
6060
6060
6060
6060
7060
30E0
3FC0
0F80
ENDCHAR
STARTCHAR 00DD
ENCODING 221
STARTCHAR 00DD
SWIDTH 583 0
DWIDTH 58 0
BBX 13 24 1 0
BITMAP
0080
01C0
0380
0600
0000
0000
F8F8
F8F8
3060
38E0
18C0
19C0
1D80
0F80
0F00
0700
0600
0600
0600
0600
0600
0600
1FC0
1FC0
ENDCHAR
STARTCHAR 00DE
ENCODING 222
STARTCHAR 00DE
SWIDTH 583 0
DWIDTH 58 0
BBX 11 18 1 0
BITMAP
F800
F800
6000
6000
7F80
7FC0
60E0
60E0
6060
6060
60E0
60E0
7FC0
7F80
6000
6000
F800
F800
ENDCHAR
STARTCHAR 00DF
ENCODING 223
STARTCHAR 00DF
SWIDTH 583 0
DWIDTH 58 0
BBX 12 18 0 0
BITMAP
0F80
1FC0
18E0
3860
3060
3060
3060
30E0
33C0
33E0
3070
3030
3030
3030
3030
3070
F7E0
F780
ENDCHAR
STARTCHAR 00E0
ENCODING 224
STARTCHAR 00E0
SWIDTH 583 0
DWIDTH 58 0
BBX 12 19 2 0
BITMAP
1000
3800
1C00
0E00
0400
0000
3F00
7F80
E1C0
C0C0
00C0
1FC0
7FC0
E0C0
C0C0
C0C0
E1C0
7FF0
3CF0
ENDCHAR
STARTCHAR 00E1
ENCODING 225
STARTCHAR 00E1
SWIDTH 583 0
DWIDTH 58 0
BBX 12 19 2 0
BITMAP
0200
0300
0600
0C00
0000
0000
3F00
7F80
E1C0
C0C0
00C0
1FC0
7FC0
E0C0
C0C0
C0C0
E1C0
7FF0
3CF0
ENDCHAR
STARTCHAR 00E2
ENCODING 226
STARTCHAR 00E2
SWIDTH 583 0
DWIDTH 58 0
BBX 12 19 2 0
BITMAP
0E00
1F00
3300
6180
0000
0000
3F00
7F80
E1C0
C0C0
00C0
1FC0
7FC0
E0C0
C0C0
C0C0
E1C0
7FF0
3CF0
ENDCHAR
STARTCHAR 00E3
ENCODING 227
STARTCHAR 00E3
SWIDTH 583 0
DWIDTH 58 0
BBX 12 18 2 1
BITMAP
3CC0
6FC0
E780
0000
0000
3F00
7F80
E1C0
C0C0
00C0
1FC0
7FC0
E0C0
C0C0
C0C0
E1C0
7FF0
3CF0
ENDCHAR
STARTCHAR 00E4
ENCODING 228
STARTCHAR 00E4
SWIDTH 583 0
DWIDTH 58 0
BBX 12 18 2 0
BITMAP
7380
7380
7380
0000
0000
3F00
7F80
E1C0
C0C0
00C0
1FC0
7FC0
E0C0
C0C0
C0C0
E1C0
7FF0
3CF0
ENDCHAR
STARTCHAR 00E5
ENCODING 229
STARTCHAR 00E5
SWIDTH 583 0
DWIDTH 58 0
BBX 12 19 2 0
BITMAP
0E00
1F00
1300
1F00
0E00
0000
3F00
7F80
E1C0
C0C0
00C0
1FC0
7FC0
E0C0
C0C0
C0C0
E1C0
7FF0
3CF0
ENDCHAR
STARTCHAR 00E6
ENCODING 230
STARTCHAR 00E6
SWIDTH 583 0
DWIDTH 58 0
BBX 12 13 1 0
BITMAP
7BC0
7FE0
EE70
C670
0670
3FF0
7FF0
E600
C600
C670
EE70
FFE0
7BC0
ENDCHAR
STARTCHAR 00E7
ENCODING 231
STARTCHAR 00E7
SWIDTH 583 0
DWIDTH 58 0
BBX 10 18 2 -5
BITMAP
3EC0
7FC0
F1C0
E0C0
C0C0
C000
C000
C000
C000
E0C0
71C0
7F80
1F00
0C00
0F00
0300
3F00
3E00
ENDCHAR
STARTCHAR 00E8
ENCODING 232
STARTCHAR 00E8
SWIDTH 583 0
DWIDTH 58 0
BBX 10 19 2 0
BITMAP
1000
3800
1C00
0E00
0400
0000
1F00
7F80
61C0
E0C0
C0C0
FFC0
FFC0
C000
C000
E0C0
71C0
7F80
1F00
ENDCHAR
STARTCHAR 00E9
ENCODING 233
STARTCHAR 00E9
SWIDTH 583 0
DWIDTH 58 0
BBX 10 19 2 0
BITMAP
0200
0700
0600
0C00
0800
0000
1F00
7F80
61C0
E0C0
C0C0
FFC0
FFC0
C000
C000
E0C0
71C0
7F80
1F00
ENDCHAR
STARTCHAR 00EA
ENCODING 234
STARTCHAR 00EA
SWIDTH 583 0
DWIDTH 58 0
BBX 10 19 2 0
BITMAP
1E00
1F00
3300
6180
0000
0000
1F00
7F80
61C0
E0C0
C0C0
FFC0
FFC0
C000
C000
E0C0
71C0
7F80
1F00
ENDCHAR
STARTCHAR 00EB
ENCODING 235
STARTCHAR 00EB
SWIDTH 583 0
DWIDTH 58 0
BBX 10 18 2 0
BITMAP
7380
7380
7380
0000
0000
1F00
7F80
61C0
E0C0
C0C0
FFC0
FFC0
C000
C000
E0C0
71C0
7F80
1F00
ENDCHAR
STARTCHAR 00EC
ENCODING 236
STARTCHAR 00EC
SWIDTH 583 0
DWIDTH 58 0
BBX 10 19 2 0
BITMAP
1000
3800
1C00
0E00
0400
0000
FC00
FC00
0C00
0C00
0C00
0C00
0C00
0C00
0C00
0C00
0C00
FFC0
FFC0
ENDCHAR
STARTCHAR 00ED
ENCODING 237
STARTCHAR 00ED
SWIDTH 583 0
DWIDTH 58 0
BBX 10 19 2 0
BITMAP
0300
0700
0E00
0C00
0000
0000
FC00
FC00
0C00
0C00
0C00
0C00
0C00
0C00
0C00
0C00
0C00
FFC0
FFC0
ENDCHAR
STARTCHAR 00EE
ENCODING 238
STARTCHAR 00EE
SWIDTH 583 0
DWIDTH 58 0
BBX 10 19 2 0
BITMAP
1E00
1F00
3300
6180
0000
0000
FC00
FC00
0C00
0C00
0C00
0C00
0C00
0C00
0C00
0C00
0C00
FFC0
FFC0
ENDCHAR
STARTCHAR 00EF
ENCODING 239
STARTCHAR 00EF
SWIDTH 583 0
DWIDTH 58 0
BBX 10 18 2 0
BITMAP
7380
7380
7380
0000
0000
7C00
7C00
0C00
0C00
0C00
0C00
0C00
0C00
0C00
0C00
0C00
FFC0
FFC0
ENDCHAR
STARTCHAR 00F0
ENCODING 240
STARTCHAR 00F0
SWIDTH 583 0
DWIDTH 58 0
BBX 10 18 2 0
BITMAP
3000
3C00
1E00
07C0
7F80
7B80
01C0
3DC0
7EC0
E1C0
E0C0
C0C0
C0C0
C0C0
E0C0
71C0
7F80
1F00
ENDCHAR
STARTCHAR 00F1
ENCODING 241
STARTCHAR 00F1
SWIDTH 583 0
DWIDTH 58 0
BBX 13 18 1 1
BITMAP
3E60
37E0
63C0
0100
0000
E780
EFC0
78E0
7060
6060
6060
6060
6060
6060
6060
6060
F8F8
F8F8
ENDCHAR
STARTCHAR 00F2
ENCODING 242
STARTCHAR 00F2
SWIDTH 583 0
DWIDTH 58 0
BBX 10 19 2 0
BITMAP
1000
3800
1C00
0E00
0400
0000
1F00
7F80
71C0
E0C0
C0C0
C0C0
C0C0
C0C0
C0C0
E0C0
71C0
7F80
1F00
ENDCHAR
STARTCHAR 00F3
ENCODING 243
STARTCHAR 00F3
SWIDTH 583 0
DWIDTH 58 0
BBX 10 19 2 0
BITMAP
0200
0700
0600
0C00
0800
0000
1F00
7F80
71C0
E0C0
C0C0
C0C0
C0C0
C0C0
C0C0
E0C0
71C0
7F80
1F00
ENDCHAR
STARTCHAR 00F4
ENCODING 244
STARTCHAR 00F4
SWIDTH 583 0
DWIDTH 58 0
BBX 10 19 2 0
BITMAP
1E00
1F00
3300
6180
0000
0000
1F00
7F80
71C0
E0C0
C0C0
C0C0
C0C0
C0C0
C0C0
E0C0
71C0
7F80
1F00
ENDCHAR
STARTCHAR 00F5
ENCODING 245
STARTCHAR 00F5
SWIDTH 583 0
DWIDTH 58 0
BBX 10 19 2 0
BITMAP
3880
7DC0
EF80
4700
0000
0000
1F00
7F80
71C0
E0C0
C0C0
C0C0
C0C0
C0C0
C0C0
E0C0
71C0
7F80
1F00
ENDCHAR
STARTCHAR 00F6
ENCODING 246
STARTCHAR 00F6
SWIDTH 583 0
DWIDTH 58 0
BBX 10 18 2 0
BITMAP
7380
7380
7380
0000
0000
1F00
7F80
71C0
E0C0
C0C0
C0C0
C0C0
C0C0
C0C0
E0C0
71C0
7F80
1F00
ENDCHAR
STARTCHAR 00F7
ENCODING 247
STARTCHAR 00F7
SWIDTH 583 0
DWIDTH 58 0
BBX 10 13 2 2
BITMAP
1C00
1C00
1C00
0000
0000
FFC0
FFC0
0000
0000
0000
1C00
1C00
1C00
ENDCHAR
STARTCHAR 00F8
ENCODING 248
STARTCHAR 00F8
SWIDTH 583 0
DWIDTH 58 0
BBX 10 15 2 -1
BITMAP
0080
1FC0
7F80
71C0
E3C0
C6C0
C6C0
CCC0
DCC0
D8C0
F0C0
71C0
7F80
FF00
4000
ENDCHAR
STARTCHAR 00F9
ENCODING 249
STARTCHAR 00F9
SWIDTH 583 0
DWIDTH 58 0
BBX 14 19 0 0
BITMAP
0400
0E00
0700
0380
0000
0000
F0F0
F0F0
3030
3030
3030
3030
3030
3030
3030
3870
3870
1FBC
0F3C
ENDCHAR
STARTCHAR 00FA
ENCODING 250
STARTCHAR 00FA
SWIDTH 583 0
DWIDTH 58 0
BBX 14 19 0 0
BITMAP
0080
01C0
0380
0700
0000
0000
F0F0
F0F0
3030
3030
3030
3030
3030
3030
3030
3870
3870
1FBC
0F3C
ENDCHAR
STARTCHAR 00FB
ENCODING 251
STARTCHAR 00FB
SWIDTH 583 0
DWIDTH 58 0
BBX 14 19 0 0
BITMAP
0780
0FC0
0CC0
1860
0000
0000
F0F0
F0F0
3030
3030
3030
3030
3030
3030
3030
3870
3870
1FBC
0F3C
ENDCHAR
STARTCHAR 00FC
ENCODING 252
STARTCHAR 00FC
SWIDTH 583 0
DWIDTH 58 0
BBX 14 18 0 0
BITMAP
1CE0
1CE0
1CE0
0000
0000
F0F0
F0F0
3030
3030
3030
3030
3030
3030
3030
3870
3870
1FBC
0F3C
ENDCHAR
STARTCHAR 00FD
ENCODING 253
STARTCHAR 00FD
SWIDTH 583 0
DWIDTH 58 0
BBX 13 24 1 -5
BITMAP
0080
01C0
0300
0600
0000
0000
F8F8
F8F8
3060
3060
38E0
18C0
18C0
1DC0
0D80
0D80
0700
0700
0700
0600
0600
0E00
7C00
7800
ENDCHAR
STARTCHAR 00FE
ENCODING 254
STARTCHAR 00FE
SWIDTH 583 0
DWIDTH 58 0
BBX 11 23 1 -5
BITMAP
E000
E000
6000
6000
6000
6780
6FC0
78E0
7060
6060
6060
6060
6060
6060
7060
78E0
6FC0
6780
6000
6000
6000
F800
F800
ENDCHAR
STARTCHAR 00FF
ENCODING 255
STARTCHAR 00FF
SWIDTH 583 0
DWIDTH 58 0
BBX 13 23 1 -5
BITMAP
38E0
38E0
38E0
0000
0000
F8F8
F8F8
3060
3060
38E0
18C0
18C0
1D80
0D80
0D80
0F00
0700
0700
0600
0E00
0E00
7C00
7800
ENDCHAR
ENDFONT
