STARTFONT 2.1
COMMENT
COMMENT Converted from OpenType font "IosevkaCustomNerdFontMono-ExtraBold.ttf" by "otf2bdf 3.0".
COMMENT
FONT -FreeType-IosevkaCustom Nerd Font Mono ExtraBold-Medium-R-Normal--12-120-72-72-C-61-ISO10646-1
SIZE 12 72 72
FONTBOUNDINGBOX 29 21 -14 -7
STARTPROPERTIES 19
FOUNDRY "FreeType"
FAMILY_NAME "IosevkaCustom Nerd Font Mono ExtraBold"
WEIGHT_NAME "Medium"
SLANT "R"
SETWIDTH_NAME "Normal"
ADD_STYLE_NAME ""
PIXEL_SIZE 12
POINT_SIZE 120
RESOLUTION_X 72
RESOLUTION_Y 72
SPACING "C"
AVERAGE_WIDTH 61
CHARSET_REGISTRY "ISO10646"
CHARSET_ENCODING "1"
FONT_ASCENT 11
FONT_DESCENT 3
COPYRIGHT "Copyright 2015-2026, Renzhi Li (aka. Belleve Invis, belleve@typeof.net)."
_OTF_FONTFILE "IosevkaCustomNerdFontMono-ExtraBold.ttf"
_OTF_PSNAME "IosevkaCustomNFM-ExtraBold"
ENDPROPERTIES
CHARS 5707
STARTCHAR 000D
ENCODING 13
STARTCHAR 000D
SWIDTH 583 0
DWIDTH 29 0
BBX 0 0 0 0
BITMAP
ENDCHAR
STARTCHAR 0020
ENCODING 32
STARTCHAR 0020
SWIDTH 583 0
DWIDTH 29 0
BBX 0 0 0 0
BITMAP
ENDCHAR
STARTCHAR 0021
ENCODING 33
STARTCHAR 0021
SWIDTH 583 0
DWIDTH 29 0
BBX 2 8 3 0
BITMAP
C0
C0
C0
C0
C0
00
00
C0
ENDCHAR
STARTCHAR 0022
ENCODING 34
STARTCHAR 0022
SWIDTH 583 0
DWIDTH 29 0
BBX 5 4 1 5
BITMAP
D8
D8
D8
D8
ENDCHAR
STARTCHAR 0023
ENCODING 35
STARTCHAR 0023
SWIDTH 583 0
DWIDTH 29 0
BBX 7 8 1 0
BITMAP
34
24
7E
2C
28
FC
48
58
ENDCHAR
STARTCHAR 0024
ENCODING 36
STARTCHAR 0024
SWIDTH 583 0
DWIDTH 29 0
BBX 5 11 1 -1
BITMAP
30
30
F8
F8
F0
70
38
B8
F8
30
30
ENDCHAR
STARTCHAR 0025
ENCODING 37
STARTCHAR 0025
SWIDTH 583 0
DWIDTH 29 0
BBX 7 8 1 0
BITMAP
E4
EC
E8
F0
3C
3E
5E
CC
ENDCHAR
STARTCHAR 0026
ENCODING 38
STARTCHAR 0026
SWIDTH 583 0
DWIDTH 29 0
BBX 7 8 0 0
BITMAP
78
60
4C
3E
6C
CC
4C
7C
ENDCHAR
STARTCHAR 0027
ENCODING 39
STARTCHAR 0027
SWIDTH 583 0
DWIDTH 29 0
BBX 2 4 3 5
BITMAP
C0
C0
C0
C0
ENDCHAR
STARTCHAR 0028
ENCODING 40
STARTCHAR 0028
SWIDTH 583 0
DWIDTH 29 0
BBX 4 11 1 -2
BITMAP
30
60
C0
C0
C0
C0
C0
C0
C0
C0
70
ENDCHAR
STARTCHAR 0029
ENCODING 41
STARTCHAR 0029
SWIDTH 583 0
DWIDTH 29 0
BBX 5 11 2 -2
BITMAP
E0
30
10
18
18
18
18
18
10
30
E0
ENDCHAR
STARTCHAR 002A
ENCODING 42
STARTCHAR 002A
SWIDTH 583 0
DWIDTH 29 0
BBX 6 5 1 3
BITMAP
30
FC
30
FC
30
ENDCHAR
STARTCHAR 002B
ENCODING 43
STARTCHAR 002B
SWIDTH 583 0
DWIDTH 29 0
BBX 5 5 1 1
BITMAP
30
30
F8
30
30
ENDCHAR
STARTCHAR 002C
ENCODING 44
STARTCHAR 002C
SWIDTH 583 0
DWIDTH 29 0
BBX 2 4 3 -2
BITMAP
C0
C0
40
80
ENDCHAR
STARTCHAR 002D
ENCODING 45
STARTCHAR 002D
SWIDTH 583 0
DWIDTH 29 0
BBX 5 1 1 3
BITMAP
F8
ENDCHAR
STARTCHAR 002E
ENCODING 46
STARTCHAR 002E
SWIDTH 583 0
DWIDTH 29 0
BBX 2 2 3 0
BITMAP
C0
C0
ENDCHAR
STARTCHAR 002F
ENCODING 47
STARTCHAR 002F
SWIDTH 583 0
DWIDTH 29 0
BBX 5 11 1 -2
BITMAP
08
18
10
30
30
20
60
60
40
C0
C0
ENDCHAR
STARTCHAR 0030
ENCODING 48
STARTCHAR 0030
SWIDTH 583 0
DWIDTH 29 0
BBX 6 8 1 0
BITMAP
78
C8
CC
FC
EC
CC
C8
78
ENDCHAR
STARTCHAR 0031
ENCODING 49
STARTCHAR 0031
SWIDTH 583 0
DWIDTH 29 0
BBX 5 8 1 0
BITMAP
70
F0
30
30
30
30
30
F8
ENDCHAR
STARTCHAR 0032
ENCODING 50
STARTCHAR 0032
SWIDTH 583 0
DWIDTH 29 0
BBX 5 8 1 0
BITMAP
70
D8
08
18
30
60
C8
F8
ENDCHAR
STARTCHAR 0033
ENCODING 51
STARTCHAR 0033
SWIDTH 583 0
DWIDTH 29 0
BBX 5 8 1 0
BITMAP
F8
18
30
78
18
08
D8
78
ENDCHAR
STARTCHAR 0034
ENCODING 52
STARTCHAR 0034
SWIDTH 583 0
DWIDTH 29 0
BBX 5 8 1 0
BITMAP
30
30
60
58
D8
F8
18
38
ENDCHAR
STARTCHAR 0035
ENCODING 53
STARTCHAR 0035
SWIDTH 583 0
DWIDTH 29 0
BBX 5 8 1 0
BITMAP
F8
D8
C0
F0
18
18
D8
70
ENDCHAR
STARTCHAR 0036
ENCODING 54
STARTCHAR 0036
SWIDTH 583 0
DWIDTH 29 0
BBX 6 8 1 0
BITMAP
78
C8
C0
F8
C8
CC
C8
78
ENDCHAR
STARTCHAR 0037
ENCODING 55
STARTCHAR 0037
SWIDTH 583 0
DWIDTH 29 0
BBX 5 8 1 0
BITMAP
F8
98
18
10
30
20
60
60
ENDCHAR
STARTCHAR 0038
ENCODING 56
STARTCHAR 0038
SWIDTH 583 0
DWIDTH 29 0
BBX 5 8 1 0
BITMAP
70
D8
D8
70
78
C8
D8
70
ENDCHAR
STARTCHAR 0039
ENCODING 57
STARTCHAR 0039
SWIDTH 583 0
DWIDTH 29 0
BBX 6 8 1 0
BITMAP
78
D8
CC
CC
7C
0C
C8
78
ENDCHAR
STARTCHAR 003A
ENCODING 58
STARTCHAR 003A
SWIDTH 583 0
DWIDTH 29 0
BBX 2 6 3 0
BITMAP
C0
C0
00
00
C0
C0
ENDCHAR
STARTCHAR 003B
ENCODING 59
STARTCHAR 003B
SWIDTH 583 0
DWIDTH 29 0
BBX 2 8 3 -2
BITMAP
C0
C0
00
00
C0
C0
40
80
ENDCHAR
STARTCHAR 003C
ENCODING 60
STARTCHAR 003C
SWIDTH 583 0
DWIDTH 29 0
BBX 5 6 1 0
BITMAP
18
30
C0
C0
70
18
ENDCHAR
STARTCHAR 003D
ENCODING 61
STARTCHAR 003D
SWIDTH 583 0
DWIDTH 29 0
BBX 5 3 1 2
BITMAP
F8
00
F8
ENDCHAR
STARTCHAR 003E
ENCODING 62
STARTCHAR 003E
SWIDTH 583 0
DWIDTH 29 0
BBX 5 6 1 0
BITMAP
C0
60
18
18
70
C0
ENDCHAR
STARTCHAR 003F
ENCODING 63
STARTCHAR 003F
SWIDTH 583 0
DWIDTH 29 0
BBX 5 8 1 0
BITMAP
78
D8
08
08
30
00
00
30
ENDCHAR
STARTCHAR 0040
ENCODING 64
STARTCHAR 0040
SWIDTH 583 0
DWIDTH 29 0
BBX 7 10 1 -2
BITMAP
78
CC
C6
FE
FE
FE
FE
FC
C0
7C
ENDCHAR
STARTCHAR 0041
ENCODING 65
STARTCHAR 0041
SWIDTH 583 0
DWIDTH 29 0
BBX 6 8 1 0
BITMAP
30
30
30
78
78
78
48
FC
ENDCHAR
STARTCHAR 0042
ENCODING 66
STARTCHAR 0042
SWIDTH 583 0
DWIDTH 29 0
BBX 7 8 0 0
BITMAP
F8
6C
6C
78
64
66
6C
FC
ENDCHAR
STARTCHAR 0043
ENCODING 67
STARTCHAR 0043
SWIDTH 583 0
DWIDTH 29 0
BBX 6 8 1 0
BITMAP
78
CC
C0
C0
C0
C0
D8
78
ENDCHAR
STARTCHAR 0044
ENCODING 68
STARTCHAR 0044
SWIDTH 583 0
DWIDTH 29 0
BBX 6 8 0 0
BITMAP
F8
6C
6C
6C
6C
6C
6C
F8
ENDCHAR
STARTCHAR 0045
ENCODING 69
STARTCHAR 0045
SWIDTH 583 0
DWIDTH 29 0
BBX 5 8 1 0
BITMAP
F8
C8
C0
F0
C0
C0
C8
F8
ENDCHAR
STARTCHAR 0046
ENCODING 70
STARTCHAR 0046
SWIDTH 583 0
DWIDTH 29 0
BBX 5 8 1 0
BITMAP
F8
C8
C0
F0
C0
C0
C0
E0
ENDCHAR
STARTCHAR 0047
ENCODING 71
STARTCHAR 0047
SWIDTH 583 0
DWIDTH 29 0
BBX 6 8 1 0
BITMAP
7C
CC
C0
DC
CC
CC
DC
6C
ENDCHAR
STARTCHAR 0048
ENCODING 72
STARTCHAR 0048
SWIDTH 583 0
DWIDTH 29 0
BBX 6 8 1 0
BITMAP
FC
CC
CC
FC
CC
CC
CC
FC
ENDCHAR
STARTCHAR 0049
ENCODING 73
STARTCHAR 0049
SWIDTH 583 0
DWIDTH 29 0
BBX 5 8 1 0
BITMAP
F8
60
60
60
60
60
60
F8
ENDCHAR
STARTCHAR 004A
ENCODING 74
STARTCHAR 004A
SWIDTH 583 0
DWIDTH 29 0
BBX 5 8 1 0
BITMAP
78
18
18
18
18
18
90
F0
ENDCHAR
STARTCHAR 004B
ENCODING 75
STARTCHAR 004B
SWIDTH 583 0
DWIDTH 29 0
BBX 6 8 1 0
BITMAP
EC
D8
F0
F0
F0
D8
C8
EC
ENDCHAR
STARTCHAR 004C
ENCODING 76
STARTCHAR 004C
SWIDTH 583 0
DWIDTH 29 0
BBX 5 8 1 0
BITMAP
E0
C0
C0
C0
C0
C0
C8
F8
ENDCHAR
STARTCHAR 004D
ENCODING 77
STARTCHAR 004D
SWIDTH 583 0
DWIDTH 29 0
BBX 7 8 1 0
BITMAP
C6
EE
EE
EE
D6
D6
C6
C6
ENDCHAR
STARTCHAR 004E
ENCODING 78
STARTCHAR 004E
SWIDTH 583 0
DWIDTH 29 0
BBX 6 8 1 0
BITMAP
DC
EC
EC
EC
DC
DC
DC
EC
ENDCHAR
STARTCHAR 004F
ENCODING 79
STARTCHAR 004F
SWIDTH 583 0
DWIDTH 29 0
BBX 6 8 1 0
BITMAP
78
C8
CC
CC
CC
CC
C8
78
ENDCHAR
STARTCHAR 0050
ENCODING 80
STARTCHAR 0050
SWIDTH 583 0
DWIDTH 29 0
BBX 6 8 1 0
BITMAP
F8
C8
CC
C8
F8
C0
C0
E0
ENDCHAR
STARTCHAR 0051
ENCODING 81
STARTCHAR 0051
SWIDTH 583 0
DWIDTH 29 0
BBX 6 9 1 -1
BITMAP
78
C8
CC
CC
CC
FC
D8
78
04
ENDCHAR
STARTCHAR 0052
ENCODING 82
STARTCHAR 0052
SWIDTH 583 0
DWIDTH 29 0
BBX 6 8 1 0
BITMAP
F8
CC
CC
CC
F8
D8
C8
EC
ENDCHAR
STARTCHAR 0053
ENCODING 83
STARTCHAR 0053
SWIDTH 583 0
DWIDTH 29 0
BBX 5 8 1 0
BITMAP
68
D8
C0
60
30
18
D8
B0
ENDCHAR
STARTCHAR 0054
ENCODING 84
STARTCHAR 0054
SWIDTH 583 0
DWIDTH 29 0
BBX 6 8 1 0
BITMAP
FC
B4
30
30
30
30
30
78
ENDCHAR
STARTCHAR 0055
ENCODING 85
STARTCHAR 0055
SWIDTH 583 0
DWIDTH 29 0
BBX 6 8 1 0
BITMAP
FC
CC
CC
CC
CC
CC
48
78
ENDCHAR
STARTCHAR 0056
ENCODING 86
STARTCHAR 0056
SWIDTH 583 0
DWIDTH 29 0
BBX 7 8 1 0
BITMAP
EE
4C
6C
6C
28
28
38
30
ENDCHAR
STARTCHAR 0057
ENCODING 87
STARTCHAR 0057
SWIDTH 583 0
DWIDTH 29 0
BBX 7 8 1 0
BITMAP
C6
C4
54
74
6C
6C
6C
6C
ENDCHAR
STARTCHAR 0058
ENCODING 88
STARTCHAR 0058
SWIDTH 583 0
DWIDTH 29 0
BBX 6 8 1 0
BITMAP
FC
78
30
30
30
30
78
FC
ENDCHAR
STARTCHAR 0059
ENCODING 89
STARTCHAR 0059
SWIDTH 583 0
DWIDTH 29 0
BBX 6 8 1 0
BITMAP
FC
68
78
30
30
30
30
78
ENDCHAR
STARTCHAR 005A
ENCODING 90
STARTCHAR 005A
SWIDTH 583 0
DWIDTH 29 0
BBX 5 8 1 0
BITMAP
F8
98
30
30
60
60
C8
F8
ENDCHAR
STARTCHAR 005B
ENCODING 91
STARTCHAR 005B
SWIDTH 583 0
DWIDTH 29 0
BBX 4 11 2 -1
BITMAP
F0
C0
C0
C0
C0
C0
C0
C0
C0
C0
F0
ENDCHAR
STARTCHAR 005C
ENCODING 92
STARTCHAR 005C
SWIDTH 583 0
DWIDTH 29 0
BBX 5 11 1 -2
BITMAP
C0
C0
40
60
60
20
30
30
10
18
08
ENDCHAR
STARTCHAR 005D
ENCODING 93
STARTCHAR 005D
SWIDTH 583 0
DWIDTH 29 0
BBX 4 11 2 -1
BITMAP
F0
30
30
30
30
30
30
30
30
30
F0
ENDCHAR
STARTCHAR 005E
ENCODING 94
STARTCHAR 005E
SWIDTH 583 0
DWIDTH 29 0
BBX 6 3 1 5
BITMAP
70
58
CC
ENDCHAR
STARTCHAR 005F
ENCODING 95
STARTCHAR 005F
SWIDTH 583 0
DWIDTH 29 0
BBX 5 1 1 -1
BITMAP
F8
ENDCHAR
STARTCHAR 0060
ENCODING 96
STARTCHAR 0060
SWIDTH 583 0
DWIDTH 29 0
BBX 4 3 1 6
BITMAP
C0
60
30
ENDCHAR
STARTCHAR 0061
ENCODING 97
STARTCHAR 0061
SWIDTH 583 0
DWIDTH 29 0
BBX 6 6 1 0
BITMAP
78
C8
7C
CC
DC
7C
ENDCHAR
STARTCHAR 0062
ENCODING 98
STARTCHAR 0062
SWIDTH 583 0
DWIDTH 29 0
BBX 6 8 1 0
BITMAP
C0
C0
F8
C8
CC
CC
C8
F8
ENDCHAR
STARTCHAR 0063
ENCODING 99
STARTCHAR 0063
SWIDTH 583 0
DWIDTH 29 0
BBX 6 6 1 0
BITMAP
7C
CC
C0
C0
D8
78
ENDCHAR
STARTCHAR 0064
ENCODING 100
STARTCHAR 0064
SWIDTH 583 0
DWIDTH 29 0
BBX 5 8 1 0
BITMAP
18
18
78
D8
D8
D8
D8
78
ENDCHAR
STARTCHAR 0065
ENCODING 101
STARTCHAR 0065
SWIDTH 583 0
DWIDTH 29 0
BBX 6 6 1 0
BITMAP
78
C8
FC
C0
C8
78
ENDCHAR
STARTCHAR 0066
ENCODING 102
STARTCHAR 0066
SWIDTH 583 0
DWIDTH 29 0
BBX 6 8 1 0
BITMAP
38
6C
60
F8
60
60
60
F0
ENDCHAR
STARTCHAR 0067
ENCODING 103
STARTCHAR 0067
SWIDTH 583 0
DWIDTH 29 0
BBX 6 8 1 -2
BITMAP
7C
D8
F8
80
C0
78
88
F8
ENDCHAR
STARTCHAR 0068
ENCODING 104
STARTCHAR 0068
SWIDTH 583 0
DWIDTH 29 0
BBX 6 8 1 0
BITMAP
C0
C0
F8
C8
CC
CC
CC
FC
ENDCHAR
STARTCHAR 0069
ENCODING 105
STARTCHAR 0069
SWIDTH 583 0
DWIDTH 29 0
BBX 5 8 1 0
BITMAP
30
30
F0
30
30
30
30
F8
ENDCHAR
STARTCHAR 006A
ENCODING 106
STARTCHAR 006A
SWIDTH 583 0
DWIDTH 29 0
BBX 6 10 0 -2
BITMAP
18
18
3C
0C
0C
0C
0C
0C
C8
78
ENDCHAR
STARTCHAR 006B
ENCODING 107
STARTCHAR 006B
SWIDTH 583 0
DWIDTH 29 0
BBX 6 8 1 0
BITMAP
C0
C0
CC
D8
F0
F0
D8
EC
ENDCHAR
STARTCHAR 006C
ENCODING 108
STARTCHAR 006C
SWIDTH 583 0
DWIDTH 29 0
BBX 5 8 1 0
BITMAP
F0
30
30
30
30
30
30
F8
ENDCHAR
STARTCHAR 006D
ENCODING 109
STARTCHAR 006D
SWIDTH 583 0
DWIDTH 29 0
BBX 7 6 0 0
BITMAP
F6
7E
7E
7E
7E
FE
ENDCHAR
STARTCHAR 006E
ENCODING 110
STARTCHAR 006E
SWIDTH 583 0
DWIDTH 29 0
BBX 6 6 1 0
BITMAP
F8
C8
CC
CC
CC
FC
ENDCHAR
STARTCHAR 006F
ENCODING 111
STARTCHAR 006F
SWIDTH 583 0
DWIDTH 29 0
BBX 6 6 1 0
BITMAP
78
C8
CC
CC
C8
78
ENDCHAR
STARTCHAR 0070
ENCODING 112
STARTCHAR 0070
SWIDTH 583 0
DWIDTH 29 0
BBX 6 8 1 -2
BITMAP
F8
C8
CC
CC
C8
F8
C0
E0
ENDCHAR
STARTCHAR 0071
ENCODING 113
STARTCHAR 0071
SWIDTH 583 0
DWIDTH 29 0
BBX 6 8 1 -2
BITMAP
7C
D8
D8
D8
D8
78
18
1C
ENDCHAR
STARTCHAR 0072
ENCODING 114
STARTCHAR 0072
SWIDTH 583 0
DWIDTH 29 0
BBX 6 6 1 0
BITMAP
F8
6C
60
60
60
F0
ENDCHAR
STARTCHAR 0073
ENCODING 115
STARTCHAR 0073
SWIDTH 583 0
DWIDTH 29 0
BBX 5 6 1 0
BITMAP
78
C8
E0
38
98
F8
ENDCHAR
STARTCHAR 0074
ENCODING 116
STARTCHAR 0074
SWIDTH 583 0
DWIDTH 29 0
BBX 5 8 1 0
BITMAP
60
60
F8
60
60
60
68
38
ENDCHAR
STARTCHAR 0075
ENCODING 117
STARTCHAR 0075
SWIDTH 583 0
DWIDTH 29 0
BBX 5 6 1 0
BITMAP
D8
D8
D8
D8
D8
78
ENDCHAR
STARTCHAR 0076
ENCODING 118
STARTCHAR 0076
SWIDTH 583 0
DWIDTH 29 0
BBX 7 6 1 0
BITMAP
EE
6C
6C
28
38
38
ENDCHAR
STARTCHAR 0077
ENCODING 119
STARTCHAR 0077
SWIDTH 583 0
DWIDTH 29 0
BBX 7 6 1 0
BITMAP
C6
84
B4
BC
6C
4C
ENDCHAR
STARTCHAR 0078
ENCODING 120
STARTCHAR 0078
SWIDTH 583 0
DWIDTH 29 0
BBX 6 6 1 0
BITMAP
FC
78
30
30
78
FC
ENDCHAR
STARTCHAR 0079
ENCODING 121
STARTCHAR 0079
SWIDTH 583 0
DWIDTH 29 0
BBX 6 8 1 -2
BITMAP
FC
78
78
30
30
30
20
60
ENDCHAR
STARTCHAR 007A
ENCODING 122
STARTCHAR 007A
SWIDTH 583 0
DWIDTH 29 0
BBX 5 6 1 0
BITMAP
F8
98
30
60
C8
F8
ENDCHAR
STARTCHAR 007B
ENCODING 123
STARTCHAR 007B
SWIDTH 583 0
DWIDTH 29 0
BBX 5 11 1 -2
BITMAP
18
30
30
30
20
E0
20
30
30
30
18
ENDCHAR
STARTCHAR 007C
ENCODING 124
STARTCHAR 007C
SWIDTH 583 0
DWIDTH 29 0
BBX 2 11 3 -2
BITMAP
C0
C0
C0
C0
C0
C0
C0
C0
C0
C0
C0
ENDCHAR
STARTCHAR 007D
ENCODING 125
STARTCHAR 007D
SWIDTH 583 0
DWIDTH 29 0
BBX 5 11 1 -2
BITMAP
E0
20
30
30
30
18
30
30
30
20
E0
ENDCHAR
STARTCHAR 007E
ENCODING 126
STARTCHAR 007E
SWIDTH 583 0
DWIDTH 29 0
BBX 7 2 0 3
BITMAP
76
DC
ENDCHAR
STARTCHAR 00A0
ENCODING 160
STARTCHAR 00A0
SWIDTH 583 0
DWIDTH 29 0
BBX 0 0 0 0
BITMAP
ENDCHAR
STARTCHAR 00A1
ENCODING 161
STARTCHAR 00A1
SWIDTH 583 0
DWIDTH 29 0
BBX 2 8 3 -2
BITMAP
C0
00
00
C0
C0
C0
C0
C0
ENDCHAR
STARTCHAR 00A2
ENCODING 162
STARTCHAR 00A2
SWIDTH 583 0
DWIDTH 29 0
BBX 6 8 1 -1
BITMAP
30
7C
FC
F0
F0
F8
78
30
ENDCHAR
STARTCHAR 00A3
ENCODING 163
STARTCHAR 00A3
SWIDTH 583 0
DWIDTH 29 0
BBX 6 8 1 0
BITMAP
78
78
60
F0
60
60
CC
FC
ENDCHAR
STARTCHAR 00A4
ENCODING 164
STARTCHAR 00A4
SWIDTH 583 0
DWIDTH 29 0
BBX 5 6 1 1
BITMAP
F8
D8
88
C8
F8
88
ENDCHAR
STARTCHAR 00A5
ENCODING 165
STARTCHAR 00A5
SWIDTH 583 0
DWIDTH 29 0
BBX 6 8 1 0
BITMAP
FC
78
78
30
FC
FC
30
78
ENDCHAR
STARTCHAR 00A6
ENCODING 166
STARTCHAR 00A6
SWIDTH 583 0
DWIDTH 29 0
BBX 2 11 3 -2
BITMAP
C0
C0
C0
C0
C0
00
C0
C0
C0
C0
C0
ENDCHAR
STARTCHAR 00A7
ENCODING 167
STARTCHAR 00A7
SWIDTH 583 0
DWIDTH 29 0
BBX 5 11 1 -1
BITMAP
70
D8
C0
F0
F8
D8
D8
78
18
D8
70
ENDCHAR
STARTCHAR 00A8
ENCODING 168
STARTCHAR 00A8
SWIDTH 583 0
DWIDTH 29 0
BBX 5 1 1 7
BITMAP
D8
ENDCHAR
STARTCHAR 00A9
ENCODING 169
STARTCHAR 00A9
SWIDTH 583 0
DWIDTH 29 0
BBX 6 9 1 -1
BITMAP
78
CC
FC
DC
CC
DC
FC
CC
78
ENDCHAR
STARTCHAR 00AA
ENCODING 170
STARTCHAR 00AA
SWIDTH 583 0
DWIDTH 29 0
BBX 4 6 2 2
BITMAP
F0
90
F0
F0
00
F0
ENDCHAR
STARTCHAR 00AB
ENCODING 171
STARTCHAR 00AB
SWIDTH 583 0
DWIDTH 29 0
BBX 5 6 1 1
BITMAP
28
48
D0
B0
58
68
ENDCHAR
STARTCHAR 00AC
ENCODING 172
STARTCHAR 00AC
SWIDTH 583 0
DWIDTH 29 0
BBX 6 3 1 1
BITMAP
FC
0C
0C
ENDCHAR
STARTCHAR 00AD
ENCODING 173
STARTCHAR 00AD
SWIDTH 583 0
DWIDTH 29 0
BBX 5 1 1 3
BITMAP
F8
ENDCHAR
STARTCHAR 00AE
ENCODING 174
STARTCHAR 00AE
SWIDTH 583 0
DWIDTH 29 0
BBX 6 5 1 5
BITMAP
78
FC
FC
FC
78
ENDCHAR
STARTCHAR 00AF
ENCODING 175
STARTCHAR 00AF
SWIDTH 583 0
DWIDTH 29 0
BBX 5 1 1 7
BITMAP
F8
ENDCHAR
STARTCHAR 00B0
ENCODING 176
STARTCHAR 00B0
SWIDTH 583 0
DWIDTH 29 0
BBX 3 3 2 6
BITMAP
E0
A0
E0
ENDCHAR
STARTCHAR 00B1
ENCODING 177
STARTCHAR 00B1
SWIDTH 583 0
DWIDTH 29 0
BBX 5 6 1 0
BITMAP
30
30
F8
30
30
F8
ENDCHAR
STARTCHAR 00B2
ENCODING 178
STARTCHAR 00B2
SWIDTH 583 0
DWIDTH 29 0
BBX 4 6 2 4
BITMAP
F0
90
10
20
50
F0
ENDCHAR
STARTCHAR 00B3
ENCODING 179
STARTCHAR 00B3
SWIDTH 583 0
DWIDTH 29 0
BBX 4 6 2 4
BITMAP
F0
20
60
10
90
E0
ENDCHAR
STARTCHAR 00B4
ENCODING 180
STARTCHAR 00B4
SWIDTH 583 0
DWIDTH 29 0
BBX 3 3 3 6
BITMAP
60
C0
80
ENDCHAR
STARTCHAR 00B5
ENCODING 181
STARTCHAR 00B5
SWIDTH 583 0
DWIDTH 29 0
BBX 5 8 1 -2
BITMAP
D8
D8
D8
D8
D8
F8
C0
C0
ENDCHAR
STARTCHAR 00B6
ENCODING 182
STARTCHAR 00B6
SWIDTH 583 0
DWIDTH 29 0
BBX 5 8 1 0
BITMAP
F8
F8
F8
F8
78
38
38
38
ENDCHAR
STARTCHAR 00B7
ENCODING 183
STARTCHAR 00B7
SWIDTH 583 0
DWIDTH 29 0
BBX 2 2 3 3
BITMAP
C0
C0
ENDCHAR
STARTCHAR 00B8
ENCODING 184
STARTCHAR 00B8
SWIDTH 583 0
DWIDTH 29 0
BBX 3 2 2 -2
BITMAP
40
E0
ENDCHAR
STARTCHAR 00B9
ENCODING 185
STARTCHAR 00B9
SWIDTH 583 0
DWIDTH 29 0
BBX 3 6 2 4
BITMAP
C0
C0
40
40
40
E0
ENDCHAR
STARTCHAR 00BA
ENCODING 186
STARTCHAR 00BA
SWIDTH 583 0
DWIDTH 29 0
BBX 4 6 2 2
BITMAP
F0
90
90
F0
00
F0
ENDCHAR
STARTCHAR 00BB
ENCODING 187
STARTCHAR 00BB
SWIDTH 583 0
DWIDTH 29 0
BBX 5 6 1 1
BITMAP
80
D0
48
68
D8
B0
ENDCHAR
STARTCHAR 00BC
ENCODING 188
STARTCHAR 00BC
SWIDTH 583 0
DWIDTH 29 0
BBX 6 12 1 -2
BITMAP
30
70
30
30
70
00
FC
00
30
20
78
18
ENDCHAR
STARTCHAR 00BD
ENCODING 189
STARTCHAR 00BD
SWIDTH 583 0
DWIDTH 29 0
BBX 5 12 1 -2
BITMAP
30
70
30
30
70
00
F8
70
50
10
60
70
ENDCHAR
STARTCHAR 00BE
ENCODING 190
STARTCHAR 00BE
SWIDTH 583 0
DWIDTH 29 0
BBX 6 12 1 -2
BITMAP
78
10
30
18
70
00
FC
00
30
70
78
10
ENDCHAR
STARTCHAR 00BF
ENCODING 191
STARTCHAR 00BF
SWIDTH 583 0
DWIDTH 29 0
BBX 4 8 1 -2
BITMAP
60
00
00
60
80
80
B0
E0
ENDCHAR
STARTCHAR 00C0
ENCODING 192
STARTCHAR 00C0
SWIDTH 583 0
DWIDTH 29 0
BBX 6 11 1 0
BITMAP
20
30
00
30
30
30
78
78
78
48
FC
ENDCHAR
STARTCHAR 00C1
ENCODING 193
STARTCHAR 00C1
SWIDTH 583 0
DWIDTH 29 0
BBX 6 11 1 0
BITMAP
10
30
00
30
30
30
78
78
78
48
FC
ENDCHAR
STARTCHAR 00C2
ENCODING 194
STARTCHAR 00C2
SWIDTH 583 0
DWIDTH 29 0
BBX 6 11 1 0
BITMAP
30
48
00
30
30
30
78
78
78
48
FC
ENDCHAR
STARTCHAR 00C3
ENCODING 195
STARTCHAR 00C3
SWIDTH 583 0
DWIDTH 29 0
BBX 6 11 1 0
BITMAP
68
D8
00
30
30
30
78
78
78
48
FC
ENDCHAR
STARTCHAR 00C4
ENCODING 196
STARTCHAR 00C4
SWIDTH 583 0
DWIDTH 29 0
BBX 6 11 1 0
BITMAP
D8
00
00
30
30
30
78
78
78
48
FC
ENDCHAR
STARTCHAR 00C5
ENCODING 197
STARTCHAR 00C5
SWIDTH 583 0
DWIDTH 29 0
BBX 6 11 1 0
BITMAP
30
70
00
30
30
30
78
78
78
48
FC
ENDCHAR
STARTCHAR 00C6
ENCODING 198
STARTCHAR 00C6
SWIDTH 583 0
DWIDTH 29 0
BBX 7 8 1 0
BITMAP
7E
3E
38
7C
58
78
5E
DE
ENDCHAR
STARTCHAR 00C7
ENCODING 199
STARTCHAR 00C7
SWIDTH 583 0
DWIDTH 29 0
BBX 6 10 1 -2
BITMAP
78
CC
C0
C0
C0
C0
C8
78
30
70
ENDCHAR
STARTCHAR 00C8
ENCODING 200
STARTCHAR 00C8
SWIDTH 583 0
DWIDTH 29 0
BBX 5 11 1 0
BITMAP
40
20
00
F8
C8
C0
F0
C0
C0
C8
F8
ENDCHAR
STARTCHAR 00C9
ENCODING 201
STARTCHAR 00C9
SWIDTH 583 0
DWIDTH 29 0
BBX 5 11 1 0
BITMAP
10
20
00
F8
C8
C0
F0
C0
C0
C8
F8
ENDCHAR
STARTCHAR 00CA
ENCODING 202
STARTCHAR 00CA
SWIDTH 583 0
DWIDTH 29 0
BBX 5 11 1 0
BITMAP
70
50
00
F8
C8
C0
F0
C0
C0
C8
F8
ENDCHAR
STARTCHAR 00CB
ENCODING 203
STARTCHAR 00CB
SWIDTH 583 0
DWIDTH 29 0
BBX 5 11 1 0
BITMAP
D8
00
00
F8
C8
C0
F0
C0
C0
C8
F8
ENDCHAR
STARTCHAR 00CC
ENCODING 204
STARTCHAR 00CC
SWIDTH 583 0
DWIDTH 29 0
BBX 5 11 1 0
BITMAP
40
60
00
F8
60
60
60
60
60
60
F8
ENDCHAR
STARTCHAR 00CD
ENCODING 205
STARTCHAR 00CD
SWIDTH 583 0
DWIDTH 29 0
BBX 5 11 1 0
BITMAP
10
20
00
F8
60
60
60
60
60
60
F8
ENDCHAR
STARTCHAR 00CE
ENCODING 206
STARTCHAR 00CE
SWIDTH 583 0
DWIDTH 29 0
BBX 5 11 1 0
BITMAP
60
D0
00
F8
60
60
60
60
60
60
F8
ENDCHAR
STARTCHAR 00CF
ENCODING 207
STARTCHAR 00CF
SWIDTH 583 0
DWIDTH 29 0
BBX 5 11 1 0
BITMAP
D8
00
00
F8
60
60
60
60
60
60
F8
ENDCHAR
STARTCHAR 00D0
ENCODING 208
STARTCHAR 00D0
SWIDTH 583 0
DWIDTH 29 0
BBX 6 8 0 0
BITMAP
F8
6C
6C
FC
6C
6C
6C
F8
ENDCHAR
STARTCHAR 00D1
ENCODING 209
STARTCHAR 00D1
SWIDTH 583 0
DWIDTH 29 0
BBX 6 11 1 0
BITMAP
6C
D8
00
DC
EC
EC
EC
DC
DC
DC
EC
ENDCHAR
STARTCHAR 00D2
ENCODING 210
STARTCHAR 00D2
SWIDTH 583 0
DWIDTH 29 0
BBX 6 10 1 1
BITMAP
60
00
78
C8
CC
CC
CC
CC
C8
78
ENDCHAR
STARTCHAR 00D3
ENCODING 211
STARTCHAR 00D3
SWIDTH 583 0
DWIDTH 29 0
BBX 6 11 1 0
BITMAP
10
30
00
78
C8
CC
CC
CC
CC
C8
78
ENDCHAR
STARTCHAR 00D4
ENCODING 212
STARTCHAR 00D4
SWIDTH 583 0
DWIDTH 29 0
BBX 6 12 1 0
BITMAP
30
70
48
00
78
C8
CC
CC
CC
CC
C8
78
ENDCHAR
STARTCHAR 00D5
ENCODING 213
STARTCHAR 00D5
SWIDTH 583 0
DWIDTH 29 0
BBX 6 11 1 0
BITMAP
68
10
00
78
C8
CC
CC
CC
CC
C8
78
ENDCHAR
STARTCHAR 00D6
ENCODING 214
STARTCHAR 00D6
SWIDTH 583 0
DWIDTH 29 0
BBX 6 11 1 0
BITMAP
D8
00
00
78
C8
CC
CC
CC
CC
C8
78
ENDCHAR
STARTCHAR 00D7
ENCODING 215
STARTCHAR 00D7
SWIDTH 583 0
DWIDTH 29 0
BBX 7 6 0 1
BITMAP
46
6C
38
38
6C
C6
ENDCHAR
STARTCHAR 00D8
ENCODING 216
STARTCHAR 00D8
SWIDTH 583 0
DWIDTH 29 0
BBX 6 8 1 0
BITMAP
78
C8
DC
FC
EC
EC
C8
F8
ENDCHAR
STARTCHAR 00D9
ENCODING 217
STARTCHAR 00D9
SWIDTH 583 0
DWIDTH 29 0
BBX 6 11 1 0
BITMAP
20
30
00
FC
CC
CC
CC
CC
CC
48
78
ENDCHAR
STARTCHAR 00DA
ENCODING 218
STARTCHAR 00DA
SWIDTH 583 0
DWIDTH 29 0
BBX 6 11 1 0
BITMAP
10
30
00
FC
CC
CC
CC
CC
CC
48
78
ENDCHAR
STARTCHAR 00DB
ENCODING 219
STARTCHAR 00DB
SWIDTH 583 0
DWIDTH 29 0
BBX 6 12 1 0
BITMAP
30
30
48
00
FC
CC
CC
CC
CC
CC
48
78
ENDCHAR
STARTCHAR 00DC
ENCODING 220
STARTCHAR 00DC
SWIDTH 583 0
DWIDTH 29 0
BBX 6 11 1 0
BITMAP
D8
00
00
FC
CC
CC
CC
CC
CC
48
78
ENDCHAR
STARTCHAR 00DD
ENCODING 221
STARTCHAR 00DD
SWIDTH 583 0
DWIDTH 29 0
BBX 6 11 1 0
BITMAP
10
30
00
FC
68
78
30
30
30
30
78
ENDCHAR
STARTCHAR 00DE
ENCODING 222
STARTCHAR 00DE
SWIDTH 583 0
DWIDTH 29 0
BBX 5 8 1 0
BITMAP
E0
C0
F8
C8
C8
F8
C0
E0
ENDCHAR
STARTCHAR 00DF
ENCODING 223
STARTCHAR 00DF
SWIDTH 583 0
DWIDTH 29 0
BBX 5 8 1 0
BITMAP
70
D8
D8
F0
D8
C8
D8
F0
ENDCHAR
STARTCHAR 00E0
ENCODING 224
STARTCHAR 00E0
SWIDTH 583 0
DWIDTH 29 0
BBX 6 8 1 1
BITMAP
20
00
78
C8
7C
CC
DC
7C
ENDCHAR
STARTCHAR 00E1
ENCODING 225
STARTCHAR 00E1
SWIDTH 583 0
DWIDTH 29 0
BBX 6 9 1 0
BITMAP
10
30
00
78
C8
7C
CC
DC
7C
ENDCHAR
STARTCHAR 00E2
ENCODING 226
STARTCHAR 00E2
SWIDTH 583 0
DWIDTH 29 0
BBX 6 9 1 0
BITMAP
30
58
00
78
C8
7C
CC
DC
7C
ENDCHAR
STARTCHAR 00E3
ENCODING 227
STARTCHAR 00E3
SWIDTH 583 0
DWIDTH 29 0
BBX 6 8 1 0
BITMAP
68
10
78
C8
7C
CC
DC
7C
ENDCHAR
STARTCHAR 00E4
ENCODING 228
STARTCHAR 00E4
SWIDTH 583 0
DWIDTH 29 0
BBX 6 8 1 0
BITMAP
D8
00
78
C8
7C
CC
DC
7C
ENDCHAR
STARTCHAR 00E5
ENCODING 229
STARTCHAR 00E5
SWIDTH 583 0
DWIDTH 29 0
BBX 6 8 1 0
BITMAP
70
70
78
C8
7C
CC
DC
7C
ENDCHAR
STARTCHAR 00E6
ENCODING 230
STARTCHAR 00E6
SWIDTH 583 0
DWIDTH 29 0
BBX 6 6 1 0
BITMAP
DC
BC
FC
B0
BC
D8
ENDCHAR
STARTCHAR 00E7
ENCODING 231
STARTCHAR 00E7
SWIDTH 583 0
DWIDTH 29 0
BBX 6 8 1 -2
BITMAP
7C
CC
C0
C0
C8
78
30
70
ENDCHAR
STARTCHAR 00E8
ENCODING 232
STARTCHAR 00E8
SWIDTH 583 0
DWIDTH 29 0
BBX 6 8 1 1
BITMAP
20
00
78
C8
FC
C0
C8
78
ENDCHAR
STARTCHAR 00E9
ENCODING 233
STARTCHAR 00E9
SWIDTH 583 0
DWIDTH 29 0
BBX 6 9 1 0
BITMAP
10
30
00
78
C8
FC
C0
C8
78
ENDCHAR
STARTCHAR 00EA
ENCODING 234
STARTCHAR 00EA
SWIDTH 583 0
DWIDTH 29 0
BBX 6 9 1 0
BITMAP
30
58
00
78
C8
FC
C0
C8
78
ENDCHAR
STARTCHAR 00EB
ENCODING 235
STARTCHAR 00EB
SWIDTH 583 0
DWIDTH 29 0
BBX 6 8 1 0
BITMAP
D8
00
78
C8
FC
C0
C8
78
ENDCHAR
STARTCHAR 00EC
ENCODING 236
STARTCHAR 00EC
SWIDTH 583 0
DWIDTH 29 0
BBX 5 9 1 0
BITMAP
40
20
00
F0
30
30
30
30
F8
ENDCHAR
STARTCHAR 00ED
ENCODING 237
STARTCHAR 00ED
SWIDTH 583 0
DWIDTH 29 0
BBX 5 9 1 0
BITMAP
10
30
00
F0
30
30
30
30
F8
ENDCHAR
STARTCHAR 00EE
ENCODING 238
STARTCHAR 00EE
SWIDTH 583 0
DWIDTH 29 0
BBX 5 9 1 0
BITMAP
30
50
00
F0
30
30
30
30
F8
ENDCHAR
STARTCHAR 00EF
ENCODING 239
STARTCHAR 00EF
SWIDTH 583 0
DWIDTH 29 0
BBX 5 8 1 0
BITMAP
D8
00
F0
30
30
30
30
F8
ENDCHAR
STARTCHAR 00F0
ENCODING 240
STARTCHAR 00F0
SWIDTH 583 0
DWIDTH 29 0
BBX 6 8 1 0
BITMAP
60
38
58
78
DC
C8
D8
78
ENDCHAR
STARTCHAR 00F1
ENCODING 241
STARTCHAR 00F1
SWIDTH 583 0
DWIDTH 29 0
BBX 6 8 1 0
BITMAP
7C
00
F8
C8
CC
CC
CC
FC
ENDCHAR
STARTCHAR 00F2
ENCODING 242
STARTCHAR 00F2
SWIDTH 583 0
DWIDTH 29 0
BBX 6 8 1 1
BITMAP
60
00
78
C8
CC
CC
C8
78
ENDCHAR
STARTCHAR 00F3
ENCODING 243
STARTCHAR 00F3
SWIDTH 583 0
DWIDTH 29 0
BBX 6 9 1 0
BITMAP
10
30
00
78
C8
CC
CC
C8
78
ENDCHAR
STARTCHAR 00F4
ENCODING 244
STARTCHAR 00F4
SWIDTH 583 0
DWIDTH 29 0
BBX 6 9 1 0
BITMAP
30
58
00
78
C8
CC
CC
C8
78
ENDCHAR
STARTCHAR 00F5
ENCODING 245
STARTCHAR 00F5
SWIDTH 583 0
DWIDTH 29 0
BBX 6 8 1 0
BITMAP
68
10
78
C8
CC
CC
C8
78
ENDCHAR
STARTCHAR 00F6
ENCODING 246
STARTCHAR 00F6
SWIDTH 583 0
DWIDTH 29 0
BBX 6 8 1 0
BITMAP
D8
00
78
C8
CC
CC
C8
78
ENDCHAR
STARTCHAR 00F7
ENCODING 247
STARTCHAR 00F7
SWIDTH 583 0
DWIDTH 29 0
BBX 5 6 1 1
BITMAP
30
00
F8
00
00
30
ENDCHAR
STARTCHAR 00F8
ENCODING 248
STARTCHAR 00F8
SWIDTH 583 0
DWIDTH 29 0
BBX 6 6 1 0
BITMAP
78
D8
FC
EC
C8
F8
ENDCHAR
STARTCHAR 00F9
ENCODING 249
STARTCHAR 00F9
SWIDTH 583 0
DWIDTH 29 0
BBX 5 9 1 0
BITMAP
40
20
00
D8
D8
D8
D8
D8
78
ENDCHAR
STARTCHAR 00FA
ENCODING 250
STARTCHAR 00FA
SWIDTH 583 0
DWIDTH 29 0
BBX 5 9 1 0
BITMAP
10
20
00
D8
D8
D8
D8
D8
78
ENDCHAR
STARTCHAR 00FB
ENCODING 251
STARTCHAR 00FB
SWIDTH 583 0
DWIDTH 29 0
BBX 5 9 1 0
BITMAP
20
50
00
D8
D8
D8
D8
D8
78
ENDCHAR
STARTCHAR 00FC
ENCODING 252
STARTCHAR 00FC
SWIDTH 583 0
DWIDTH 29 0
BBX 5 8 1 0
BITMAP
D8
00
D8
D8
D8
D8
D8
78
ENDCHAR
STARTCHAR 00FD
ENCODING 253
STARTCHAR 00FD
SWIDTH 583 0
DWIDTH 29 0
BBX 6 11 1 -2
BITMAP
10
30
00
FC
78
78
30
30
30
20
60
ENDCHAR
STARTCHAR 00FE
ENCODING 254
STARTCHAR 00FE
SWIDTH 583 0
DWIDTH 29 0
BBX 6 10 1 -2
BITMAP
C0
C0
F8
C8
CC
CC
C8
F8
C0
E0
ENDCHAR
STARTCHAR 00FF
ENCODING 255
STARTCHAR 00FF
SWIDTH 583 0
DWIDTH 29 0
BBX 6 10 1 -2
BITMAP
D8
00
FC
78
78
30
30
30
20
60
ENDCHAR
ENDFONT
