STARTFONT 2.1
COMMENT
COMMENT Converted from OpenType font "IosevkaCustomNerdFontMono-Medium.ttf" by "otf2bdf 3.0".
COMMENT
FONT -FreeType-IosevkaCustom Nerd Font Mono Medium-Medium-R-Normal--14-140-72-72-C-69-ISO10646-1
SIZE 14 72 72
FONTBOUNDINGBOX 34 29 -17 -10
STARTPROPERTIES 19
FOUNDRY "FreeType"
FAMILY_NAME "IosevkaCustom Nerd Font Mono Medium"
WEIGHT_NAME "Medium"
SLANT "R"
SETWIDTH_NAME "Normal"
ADD_STYLE_NAME ""
PIXEL_SIZE 14
POINT_SIZE 140
RESOLUTION_X 72
RESOLUTION_Y 72
SPACING "C"
AVERAGE_WIDTH 69
CHARSET_REGISTRY "ISO10646"
CHARSET_ENCODING "1"
FONT_ASCENT 13
FONT_DESCENT 3
COPYRIGHT "Copyright 2015-2026, Renzhi Li (aka. Belleve Invis, belleve@typeof.net)."
_OTF_FONTFILE "IosevkaCustomNerdFontMono-Medium.ttf"
_OTF_PSNAME "IosevkaCustomNFM-Medium"
ENDPROPERTIES
CHARS 5707
STARTCHAR 000D
ENCODING 13
STARTCHAR 000D
SWIDTH 571 0
DWIDTH 34 0
BBX 0 0 0 0
BITMAP
ENDCHAR
STARTCHAR 0020
ENCODING 32
STARTCHAR 0020
SWIDTH 571 0
DWIDTH 34 0
BBX 0 0 0 0
BITMAP
ENDCHAR
STARTCHAR 0021
ENCODING 33
STARTCHAR 0021
SWIDTH 571 0
DWIDTH 34 0
BBX 1 11 4 0
BITMAP
80
80
80
80
80
80
80
00
00
80
80
ENDCHAR
STARTCHAR 0022
ENCODING 34
STARTCHAR 0022
SWIDTH 571 0
DWIDTH 34 0
BBX 4 5 2 7
BITMAP
90
90
90
90
90
ENDCHAR
STARTCHAR 0023
ENCODING 35
STARTCHAR 0023
SWIDTH 571 0
DWIDTH 34 0
BBX 8 11 1 0
BITMAP
12
12
16
7F
24
24
24
FE
68
48
48
ENDCHAR
STARTCHAR 0024
ENCODING 36
STARTCHAR 0024
SWIDTH 571 0
DWIDTH 34 0
BBX 6 15 2 -2
BITMAP
20
20
20
F4
AC
A4
A0
E0
38
2C
A4
AC
F8
20
20
ENDCHAR
STARTCHAR 0025
ENCODING 37
STARTCHAR 0025
SWIDTH 571 0
DWIDTH 34 0
BBX 7 11 1 0
BITMAP
E6
A4
AC
A8
F8
10
3E
2A
6A
4A
CE
ENDCHAR
STARTCHAR 0026
ENCODING 38
STARTCHAR 0026
SWIDTH 571 0
DWIDTH 34 0
BBX 6 11 1 0
BITMAP
70
D8
80
80
C8
7C
C8
88
88
D8
68
ENDCHAR
STARTCHAR 0027
ENCODING 39
STARTCHAR 0027
SWIDTH 571 0
DWIDTH 34 0
BBX 1 5 4 7
BITMAP
80
80
80
80
80
ENDCHAR
STARTCHAR 0028
ENCODING 40
STARTCHAR 0028
SWIDTH 571 0
DWIDTH 34 0
BBX 4 15 2 -2
BITMAP
30
60
C0
80
80
80
80
80
80
80
80
80
C0
60
30
ENDCHAR
STARTCHAR 0029
ENCODING 41
STARTCHAR 0029
SWIDTH 571 0
DWIDTH 34 0
BBX 4 15 3 -2
BITMAP
C0
60
30
30
10
10
10
10
10
10
10
10
30
60
C0
ENDCHAR
STARTCHAR 002A
ENCODING 42
STARTCHAR 002A
SWIDTH 571 0
DWIDTH 34 0
BBX 6 7 1 4
BITMAP
10
10
FC
38
FC
10
10
ENDCHAR
STARTCHAR 002B
ENCODING 43
STARTCHAR 002B
SWIDTH 571 0
DWIDTH 34 0
BBX 6 7 1 2
BITMAP
10
10
10
FC
10
10
10
ENDCHAR
STARTCHAR 002C
ENCODING 44
STARTCHAR 002C
SWIDTH 571 0
DWIDTH 34 0
BBX 2 5 3 -3
BITMAP
C0
C0
40
40
80
ENDCHAR
STARTCHAR 002D
ENCODING 45
STARTCHAR 002D
SWIDTH 571 0
DWIDTH 34 0
BBX 6 1 1 5
BITMAP
FC
ENDCHAR
STARTCHAR 002E
ENCODING 46
STARTCHAR 002E
SWIDTH 571 0
DWIDTH 34 0
BBX 2 2 3 0
BITMAP
C0
C0
ENDCHAR
STARTCHAR 002F
ENCODING 47
STARTCHAR 002F
SWIDTH 571 0
DWIDTH 34 0
BBX 6 15 1 -2
BITMAP
04
04
0C
08
08
18
10
10
30
20
20
60
40
40
C0
ENDCHAR
STARTCHAR 0030
ENCODING 48
STARTCHAR 0030
SWIDTH 571 0
DWIDTH 34 0
BBX 6 11 1 0
BITMAP
78
CC
8C
8C
9C
B4
E4
C4
84
CC
78
ENDCHAR
STARTCHAR 0031
ENCODING 49
STARTCHAR 0031
SWIDTH 571 0
DWIDTH 34 0
BBX 6 11 1 0
BITMAP
30
70
90
10
10
10
10
10
10
10
FC
ENDCHAR
STARTCHAR 0032
ENCODING 50
STARTCHAR 0032
SWIDTH 571 0
DWIDTH 34 0
BBX 6 11 1 0
BITMAP
78
CC
C4
04
0C
08
10
30
60
C4
FC
ENDCHAR
STARTCHAR 0033
ENCODING 51
STARTCHAR 0033
SWIDTH 571 0
DWIDTH 34 0
BBX 6 11 1 0
BITMAP
FC
0C
18
30
38
0C
04
04
84
CC
78
ENDCHAR
STARTCHAR 0034
ENCODING 52
STARTCHAR 0034
SWIDTH 571 0
DWIDTH 34 0
BBX 6 11 1 0
BITMAP
18
10
30
20
68
48
C8
FC
08
08
1C
ENDCHAR
STARTCHAR 0035
ENCODING 53
STARTCHAR 0035
SWIDTH 571 0
DWIDTH 34 0
BBX 6 11 1 0
BITMAP
7C
44
40
40
78
0C
04
04
C4
4C
78
ENDCHAR
STARTCHAR 0036
ENCODING 54
STARTCHAR 0036
SWIDTH 571 0
DWIDTH 34 0
BBX 6 11 1 0
BITMAP
78
CC
84
80
B8
CC
84
84
84
CC
78
ENDCHAR
STARTCHAR 0037
ENCODING 55
STARTCHAR 0037
SWIDTH 571 0
DWIDTH 34 0
BBX 6 11 1 0
BITMAP
FC
8C
0C
08
18
18
10
30
30
20
60
ENDCHAR
STARTCHAR 0038
ENCODING 56
STARTCHAR 0038
SWIDTH 571 0
DWIDTH 34 0
BBX 5 11 1 0
BITMAP
70
D8
88
88
D0
70
D8
88
88
D8
70
ENDCHAR
STARTCHAR 0039
ENCODING 57
STARTCHAR 0039
SWIDTH 571 0
DWIDTH 34 0
BBX 6 11 1 0
BITMAP
78
CC
8C
8C
8C
F4
04
04
84
CC
78
ENDCHAR
STARTCHAR 003A
ENCODING 58
STARTCHAR 003A
SWIDTH 571 0
DWIDTH 34 0
BBX 2 8 3 0
BITMAP
C0
C0
00
00
00
00
C0
C0
ENDCHAR
STARTCHAR 003B
ENCODING 59
STARTCHAR 003B
SWIDTH 571 0
DWIDTH 34 0
BBX 2 11 3 -3
BITMAP
C0
C0
00
00
00
00
C0
C0
40
40
80
ENDCHAR
STARTCHAR 003C
ENCODING 60
STARTCHAR 003C
SWIDTH 571 0
DWIDTH 34 0
BBX 6 9 1 1
BITMAP
04
0C
38
60
C0
C0
70
18
0C
ENDCHAR
STARTCHAR 003D
ENCODING 61
STARTCHAR 003D
SWIDTH 571 0
DWIDTH 34 0
BBX 6 4 1 3
BITMAP
FC
00
00
FC
ENDCHAR
STARTCHAR 003E
ENCODING 62
STARTCHAR 003E
SWIDTH 571 0
DWIDTH 34 0
BBX 6 9 1 1
BITMAP
80
C0
70
18
0C
0C
38
60
C0
ENDCHAR
STARTCHAR 003F
ENCODING 63
STARTCHAR 003F
SWIDTH 571 0
DWIDTH 34 0
BBX 6 11 2 0
BITMAP
78
CC
84
04
0C
38
20
20
00
20
20
ENDCHAR
STARTCHAR 0040
ENCODING 64
STARTCHAR 0040
SWIDTH 571 0
DWIDTH 34 0
BBX 7 13 1 -1
BITMAP
7C
C6
82
BA
AA
AA
AA
AA
AA
BE
80
C0
7C
ENDCHAR
STARTCHAR 0041
ENCODING 65
STARTCHAR 0041
SWIDTH 571 0
DWIDTH 34 0
BBX 7 11 1 0
BITMAP
10
10
28
28
28
28
7C
6C
44
44
EE
ENDCHAR
STARTCHAR 0042
ENCODING 66
STARTCHAR 0042
SWIDTH 571 0
DWIDTH 34 0
BBX 7 11 0 0
BITMAP
F8
4C
46
46
44
78
46
42
42
46
FC
ENDCHAR
STARTCHAR 0043
ENCODING 67
STARTCHAR 0043
SWIDTH 571 0
DWIDTH 34 0
BBX 6 11 1 0
BITMAP
78
CC
84
80
80
80
80
80
84
CC
78
ENDCHAR
STARTCHAR 0044
ENCODING 68
STARTCHAR 0044
SWIDTH 571 0
DWIDTH 34 0
BBX 7 11 0 0
BITMAP
FC
46
42
42
42
42
42
42
42
46
FC
ENDCHAR
STARTCHAR 0045
ENCODING 69
STARTCHAR 0045
SWIDTH 571 0
DWIDTH 34 0
BBX 6 11 1 0
BITMAP
FC
44
40
40
40
78
40
40
40
44
FC
ENDCHAR
STARTCHAR 0046
ENCODING 70
STARTCHAR 0046
SWIDTH 571 0
DWIDTH 34 0
BBX 6 11 1 0
BITMAP
FC
44
40
40
40
78
40
40
40
40
E0
ENDCHAR
STARTCHAR 0047
ENCODING 71
STARTCHAR 0047
SWIDTH 571 0
DWIDTH 34 0
BBX 6 11 1 0
BITMAP
74
CC
84
80
80
9C
84
84
84
CC
74
ENDCHAR
STARTCHAR 0048
ENCODING 72
STARTCHAR 0048
SWIDTH 571 0
DWIDTH 34 0
BBX 7 11 1 0
BITMAP
EE
44
44
44
44
7C
44
44
44
44
EE
ENDCHAR
STARTCHAR 0049
ENCODING 73
STARTCHAR 0049
SWIDTH 571 0
DWIDTH 34 0
BBX 6 11 1 0
BITMAP
FC
20
20
20
20
20
20
20
20
20
FC
ENDCHAR
STARTCHAR 004A
ENCODING 74
STARTCHAR 004A
SWIDTH 571 0
DWIDTH 34 0
BBX 6 11 1 0
BITMAP
1C
04
04
04
04
04
04
04
C4
4C
78
ENDCHAR
STARTCHAR 004B
ENCODING 75
STARTCHAR 004B
SWIDTH 571 0
DWIDTH 34 0
BBX 7 11 1 0
BITMAP
E6
4C
48
50
70
70
70
58
48
4C
E6
ENDCHAR
STARTCHAR 004C
ENCODING 76
STARTCHAR 004C
SWIDTH 571 0
DWIDTH 34 0
BBX 6 11 1 0
BITMAP
E0
40
40
40
40
40
40
40
40
44
FC
ENDCHAR
STARTCHAR 004D
ENCODING 77
STARTCHAR 004D
SWIDTH 571 0
DWIDTH 34 0
BBX 8 11 1 0
BITMAP
C3
66
66
66
5A
5A
5A
5A
42
42
C3
ENDCHAR
STARTCHAR 004E
ENCODING 78
STARTCHAR 004E
SWIDTH 571 0
DWIDTH 34 0
BBX 7 11 1 0
BITMAP
EE
62
62
72
52
5A
4A
4A
4E
46
E6
ENDCHAR
STARTCHAR 004F
ENCODING 79
STARTCHAR 004F
SWIDTH 571 0
DWIDTH 34 0
BBX 6 11 1 0
BITMAP
78
CC
84
84
84
84
84
84
84
CC
78
ENDCHAR
STARTCHAR 0050
ENCODING 80
STARTCHAR 0050
SWIDTH 571 0
DWIDTH 34 0
BBX 6 11 1 0
BITMAP
F8
4C
44
44
4C
78
40
40
40
40
E0
ENDCHAR
STARTCHAR 0051
ENCODING 81
STARTCHAR 0051
SWIDTH 571 0
DWIDTH 34 0
BBX 7 12 1 -1
BITMAP
78
CC
84
84
84
84
84
B4
9C
CC
7C
06
ENDCHAR
STARTCHAR 0052
ENCODING 82
STARTCHAR 0052
SWIDTH 571 0
DWIDTH 34 0
BBX 7 11 1 0
BITMAP
F8
44
44
44
44
7C
58
48
48
44
E6
ENDCHAR
STARTCHAR 0053
ENCODING 83
STARTCHAR 0053
SWIDTH 571 0
DWIDTH 34 0
BBX 6 11 2 0
BITMAP
74
CC
84
80
C0
70
18
04
84
CC
B8
ENDCHAR
STARTCHAR 0054
ENCODING 84
STARTCHAR 0054
SWIDTH 571 0
DWIDTH 34 0
BBX 6 11 1 0
BITMAP
FC
94
10
10
10
10
10
10
10
10
78
ENDCHAR
STARTCHAR 0055
ENCODING 85
STARTCHAR 0055
SWIDTH 571 0
DWIDTH 34 0
BBX 7 11 1 0
BITMAP
EE
44
44
44
44
44
44
44
44
6C
38
ENDCHAR
STARTCHAR 0056
ENCODING 86
STARTCHAR 0056
SWIDTH 571 0
DWIDTH 34 0
BBX 8 11 1 0
BITMAP
E7
42
66
66
24
24
2C
3C
38
18
18
ENDCHAR
STARTCHAR 0057
ENCODING 87
STARTCHAR 0057
SWIDTH 571 0
DWIDTH 34 0
BBX 8 11 1 0
BITMAP
C3
C3
42
5A
5A
5A
5A
66
66
66
26
ENDCHAR
STARTCHAR 0058
ENCODING 88
STARTCHAR 0058
SWIDTH 571 0
DWIDTH 34 0
BBX 7 11 1 0
BITMAP
EE
6C
28
28
10
10
10
28
28
6C
EE
ENDCHAR
STARTCHAR 0059
ENCODING 89
STARTCHAR 0059
SWIDTH 571 0
DWIDTH 34 0
BBX 7 11 1 0
BITMAP
EE
64
2C
28
28
38
10
10
10
10
3C
ENDCHAR
STARTCHAR 005A
ENCODING 90
STARTCHAR 005A
SWIDTH 571 0
DWIDTH 34 0
BBX 6 11 1 0
BITMAP
FC
8C
08
18
10
30
20
60
40
C4
FC
ENDCHAR
STARTCHAR 005B
ENCODING 91
STARTCHAR 005B
SWIDTH 571 0
DWIDTH 34 0
BBX 4 14 2 -2
BITMAP
F0
80
80
80
80
80
80
80
80
80
80
80
80
F0
ENDCHAR
STARTCHAR 005C
ENCODING 92
STARTCHAR 005C
SWIDTH 571 0
DWIDTH 34 0
BBX 6 15 1 -2
BITMAP
C0
C0
40
60
60
20
20
30
10
10
18
08
08
0C
04
ENDCHAR
STARTCHAR 005D
ENCODING 93
STARTCHAR 005D
SWIDTH 571 0
DWIDTH 34 0
BBX 4 14 2 -2
BITMAP
F0
10
10
10
10
10
10
10
10
10
10
10
10
F0
ENDCHAR
STARTCHAR 005E
ENCODING 94
STARTCHAR 005E
SWIDTH 571 0
DWIDTH 34 0
BBX 6 4 1 7
BITMAP
30
68
4C
C4
ENDCHAR
STARTCHAR 005F
ENCODING 95
STARTCHAR 005F
SWIDTH 571 0
DWIDTH 34 0
BBX 6 1 1 -1
BITMAP
FC
ENDCHAR
STARTCHAR 0060
ENCODING 96
STARTCHAR 0060
SWIDTH 571 0
DWIDTH 34 0
BBX 3 4 2 8
BITMAP
80
C0
60
20
ENDCHAR
STARTCHAR 0061
ENCODING 97
STARTCHAR 0061
SWIDTH 571 0
DWIDTH 34 0
BBX 7 8 1 0
BITMAP
78
CC
04
7C
C4
84
CC
76
ENDCHAR
STARTCHAR 0062
ENCODING 98
STARTCHAR 0062
SWIDTH 571 0
DWIDTH 34 0
BBX 7 11 1 0
BITMAP
C0
40
40
5C
66
42
42
42
42
66
DC
ENDCHAR
STARTCHAR 0063
ENCODING 99
STARTCHAR 0063
SWIDTH 571 0
DWIDTH 34 0
BBX 6 8 1 0
BITMAP
74
CC
84
80
80
84
CC
78
ENDCHAR
STARTCHAR 0064
ENCODING 100
STARTCHAR 0064
SWIDTH 571 0
DWIDTH 34 0
BBX 7 11 1 0
BITMAP
0C
04
04
74
CC
84
84
84
84
CC
76
ENDCHAR
STARTCHAR 0065
ENCODING 101
STARTCHAR 0065
SWIDTH 571 0
DWIDTH 34 0
BBX 6 8 1 0
BITMAP
78
CC
84
FC
80
84
CC
78
ENDCHAR
STARTCHAR 0066
ENCODING 102
STARTCHAR 0066
SWIDTH 571 0
DWIDTH 34 0
BBX 5 11 1 0
BITMAP
38
28
20
20
F8
20
20
20
20
20
F8
ENDCHAR
STARTCHAR 0067
ENCODING 103
STARTCHAR 0067
SWIDTH 571 0
DWIDTH 34 0
BBX 7 11 1 -3
BITMAP
3E
6C
44
4C
78
40
40
7C
02
C6
7C
ENDCHAR
STARTCHAR 0068
ENCODING 104
STARTCHAR 0068
SWIDTH 571 0
DWIDTH 34 0
BBX 7 11 1 0
BITMAP
C0
40
40
58
6C
44
44
44
44
44
EE
ENDCHAR
STARTCHAR 0069
ENCODING 105
STARTCHAR 0069
SWIDTH 571 0
DWIDTH 34 0
BBX 6 11 1 0
BITMAP
30
30
00
F0
10
10
10
10
10
10
FC
ENDCHAR
STARTCHAR 006A
ENCODING 106
STARTCHAR 006A
SWIDTH 571 0
DWIDTH 34 0
BBX 5 14 1 -3
BITMAP
18
18
00
38
08
08
08
08
08
08
08
08
98
F0
ENDCHAR
STARTCHAR 006B
ENCODING 107
STARTCHAR 006B
SWIDTH 571 0
DWIDTH 34 0
BBX 7 11 1 0
BITMAP
C0
40
40
46
4C
58
70
70
48
4C
E6
ENDCHAR
STARTCHAR 006C
ENCODING 108
STARTCHAR 006C
SWIDTH 571 0
DWIDTH 34 0
BBX 6 11 1 0
BITMAP
F0
10
10
10
10
10
10
10
10
10
FC
ENDCHAR
STARTCHAR 006D
ENCODING 109
STARTCHAR 006D
SWIDTH 571 0
DWIDTH 34 0
BBX 8 8 0 0
BITMAP
FE
5A
4A
4A
4A
4A
4A
CB
ENDCHAR
STARTCHAR 006E
ENCODING 110
STARTCHAR 006E
SWIDTH 571 0
DWIDTH 34 0
BBX 7 8 1 0
BITMAP
D8
6C
44
44
44
44
44
EE
ENDCHAR
STARTCHAR 006F
ENCODING 111
STARTCHAR 006F
SWIDTH 571 0
DWIDTH 34 0
BBX 6 8 1 0
BITMAP
78
CC
84
84
84
84
CC
78
ENDCHAR
STARTCHAR 0070
ENCODING 112
STARTCHAR 0070
SWIDTH 571 0
DWIDTH 34 0
BBX 7 11 1 -3
BITMAP
DC
66
42
42
42
42
66
5C
40
40
E0
ENDCHAR
STARTCHAR 0071
ENCODING 113
STARTCHAR 0071
SWIDTH 571 0
DWIDTH 34 0
BBX 6 11 1 -3
BITMAP
74
CC
84
84
84
84
CC
74
04
04
1C
ENDCHAR
STARTCHAR 0072
ENCODING 114
STARTCHAR 0072
SWIDTH 571 0
DWIDTH 34 0
BBX 6 8 1 0
BITMAP
E8
3C
20
20
20
20
20
F0
ENDCHAR
STARTCHAR 0073
ENCODING 115
STARTCHAR 0073
SWIDTH 571 0
DWIDTH 34 0
BBX 6 8 2 0
BITMAP
74
CC
C4
F0
38
8C
CC
F8
ENDCHAR
STARTCHAR 0074
ENCODING 116
STARTCHAR 0074
SWIDTH 571 0
DWIDTH 34 0
BBX 7 11 1 0
BITMAP
20
20
20
FC
20
20
20
20
26
34
1C
ENDCHAR
STARTCHAR 0075
ENCODING 117
STARTCHAR 0075
SWIDTH 571 0
DWIDTH 34 0
BBX 7 8 1 0
BITMAP
CC
44
44
44
44
44
6C
36
ENDCHAR
STARTCHAR 0076
ENCODING 118
STARTCHAR 0076
SWIDTH 571 0
DWIDTH 34 0
BBX 8 8 1 0
BITMAP
E7
46
66
24
2C
3C
18
18
ENDCHAR
STARTCHAR 0077
ENCODING 119
STARTCHAR 0077
SWIDTH 571 0
DWIDTH 34 0
BBX 8 8 1 0
BITMAP
C3
42
5A
5A
5A
66
66
66
ENDCHAR
STARTCHAR 0078
ENCODING 120
STARTCHAR 0078
SWIDTH 571 0
DWIDTH 34 0
BBX 7 8 1 0
BITMAP
EE
6C
28
10
10
28
6C
EE
ENDCHAR
STARTCHAR 0079
ENCODING 121
STARTCHAR 0079
SWIDTH 571 0
DWIDTH 34 0
BBX 7 11 1 -3
BITMAP
EE
44
6C
28
28
28
18
10
10
30
60
ENDCHAR
STARTCHAR 007A
ENCODING 122
STARTCHAR 007A
SWIDTH 571 0
DWIDTH 34 0
BBX 6 8 1 0
BITMAP
FC
8C
18
10
20
60
C4
FC
ENDCHAR
STARTCHAR 007B
ENCODING 123
STARTCHAR 007B
SWIDTH 571 0
DWIDTH 34 0
BBX 5 15 2 -2
BITMAP
18
30
20
20
20
20
60
C0
60
20
20
20
20
30
18
ENDCHAR
STARTCHAR 007C
ENCODING 124
STARTCHAR 007C
SWIDTH 571 0
DWIDTH 34 0
BBX 1 15 4 -2
BITMAP
80
80
80
80
80
80
80
80
80
80
80
80
80
80
80
ENDCHAR
STARTCHAR 007D
ENCODING 125
STARTCHAR 007D
SWIDTH 571 0
DWIDTH 34 0
BBX 5 15 2 -2
BITMAP
C0
60
20
20
20
20
30
18
30
20
20
20
20
60
C0
ENDCHAR
STARTCHAR 007E
ENCODING 126
STARTCHAR 007E
SWIDTH 571 0
DWIDTH 34 0
BBX 7 3 1 4
BITMAP
66
DC
98
ENDCHAR
STARTCHAR 00A0
ENCODING 160
STARTCHAR 00A0
SWIDTH 571 0
DWIDTH 34 0
BBX 0 0 0 0
BITMAP
ENDCHAR
STARTCHAR 00A1
ENCODING 161
STARTCHAR 00A1
SWIDTH 571 0
DWIDTH 34 0
BBX 1 11 4 -3
BITMAP
80
80
00
00
80
80
80
80
80
80
80
ENDCHAR
STARTCHAR 00A2
ENCODING 162
STARTCHAR 00A2
SWIDTH 571 0
DWIDTH 34 0
BBX 5 11 1 -2
BITMAP
20
68
F8
A8
A0
A0
A8
B8
F0
20
20
ENDCHAR
STARTCHAR 00A3
ENCODING 163
STARTCHAR 00A3
SWIDTH 571 0
DWIDTH 34 0
BBX 6 11 1 0
BITMAP
38
2C
20
20
20
F0
20
20
60
64
FC
ENDCHAR
STARTCHAR 00A4
ENCODING 164
STARTCHAR 00A4
SWIDTH 571 0
DWIDTH 34 0
BBX 6 7 1 2
BITMAP
FC
6C
44
44
4C
7C
04
ENDCHAR
STARTCHAR 00A5
ENCODING 165
STARTCHAR 00A5
SWIDTH 571 0
DWIDTH 34 0
BBX 7 11 1 0
BITMAP
EE
66
2C
2C
28
10
7E
10
7E
10
3C
ENDCHAR
STARTCHAR 00A6
ENCODING 166
STARTCHAR 00A6
SWIDTH 571 0
DWIDTH 34 0
BBX 1 15 4 -2
BITMAP
80
80
80
80
80
80
80
00
80
80
80
80
80
80
80
ENDCHAR
STARTCHAR 00A7
ENCODING 167
STARTCHAR 00A7
SWIDTH 571 0
DWIDTH 34 0
BBX 6 15 2 -2
BITMAP
78
CC
84
80
C0
F8
8C
84
84
7C
1C
04
84
CC
78
ENDCHAR
STARTCHAR 00A8
ENCODING 168
STARTCHAR 00A8
SWIDTH 571 0
DWIDTH 34 0
BBX 5 2 2 9
BITMAP
98
98
ENDCHAR
STARTCHAR 00A9
ENCODING 169
STARTCHAR 00A9
SWIDTH 571 0
DWIDTH 34 0
BBX 7 13 1 -1
BITMAP
7C
C6
86
82
BA
CA
C2
C2
CA
FA
82
C6
7C
ENDCHAR
STARTCHAR 00AA
ENCODING 170
STARTCHAR 00AA
SWIDTH 571 0
DWIDTH 34 0
BBX 5 8 2 2
BITMAP
70
90
18
F8
F8
00
00
F8
ENDCHAR
STARTCHAR 00AB
ENCODING 171
STARTCHAR 00AB
SWIDTH 571 0
DWIDTH 34 0
BBX 6 8 1 1
BITMAP
34
6C
48
D0
D8
48
24
24
ENDCHAR
STARTCHAR 00AC
ENCODING 172
STARTCHAR 00AC
SWIDTH 571 0
DWIDTH 34 0
BBX 6 4 1 2
BITMAP
FC
04
04
04
ENDCHAR
STARTCHAR 00AD
ENCODING 173
STARTCHAR 00AD
SWIDTH 571 0
DWIDTH 34 0
BBX 6 1 1 5
BITMAP
FC
ENDCHAR
STARTCHAR 00AE
ENCODING 174
STARTCHAR 00AE
SWIDTH 571 0
DWIDTH 34 0
BBX 6 7 1 6
BITMAP
78
FC
B4
B4
B4
EC
78
ENDCHAR
STARTCHAR 00AF
ENCODING 175
STARTCHAR 00AF
SWIDTH 571 0
DWIDTH 34 0
BBX 6 1 1 10
BITMAP
FC
ENDCHAR
STARTCHAR 00B0
ENCODING 176
STARTCHAR 00B0
SWIDTH 571 0
DWIDTH 34 0
BBX 4 3 3 8
BITMAP
E0
B0
E0
ENDCHAR
STARTCHAR 00B1
ENCODING 177
STARTCHAR 00B1
SWIDTH 571 0
DWIDTH 34 0
BBX 6 9 1 0
BITMAP
10
10
10
FC
10
10
10
00
FC
ENDCHAR
STARTCHAR 00B2
ENCODING 178
STARTCHAR 00B2
SWIDTH 571 0
DWIDTH 34 0
BBX 5 7 2 5
BITMAP
70
90
10
10
20
C8
F8
ENDCHAR
STARTCHAR 00B3
ENCODING 179
STARTCHAR 00B3
SWIDTH 571 0
DWIDTH 34 0
BBX 5 7 2 5
BITMAP
F0
20
70
18
08
88
70
ENDCHAR
STARTCHAR 00B4
ENCODING 180
STARTCHAR 00B4
SWIDTH 571 0
DWIDTH 34 0
BBX 3 4 3 8
BITMAP
20
60
C0
80
ENDCHAR
STARTCHAR 00B5
ENCODING 181
STARTCHAR 00B5
SWIDTH 571 0
DWIDTH 34 0
BBX 7 11 1 -3
BITMAP
CC
44
44
44
44
44
6C
76
40
40
40
ENDCHAR
STARTCHAR 00B6
ENCODING 182
STARTCHAR 00B6
SWIDTH 571 0
DWIDTH 34 0
BBX 6 11 1 0
BITMAP
7C
74
F4
F4
F4
74
14
14
14
14
14
ENDCHAR
STARTCHAR 00B7
ENCODING 183
STARTCHAR 00B7
SWIDTH 571 0
DWIDTH 34 0
BBX 2 2 3 4
BITMAP
C0
C0
ENDCHAR
STARTCHAR 00B8
ENCODING 184
STARTCHAR 00B8
SWIDTH 571 0
DWIDTH 34 0
BBX 3 3 3 -3
BITMAP
40
20
E0
ENDCHAR
STARTCHAR 00B9
ENCODING 185
STARTCHAR 00B9
SWIDTH 571 0
DWIDTH 34 0
BBX 4 7 2 5
BITMAP
60
A0
20
20
20
20
F0
ENDCHAR
STARTCHAR 00BA
ENCODING 186
STARTCHAR 00BA
SWIDTH 571 0
DWIDTH 34 0
BBX 5 8 2 2
BITMAP
70
88
88
88
70
00
00
F8
ENDCHAR
STARTCHAR 00BB
ENCODING 187
STARTCHAR 00BB
SWIDTH 571 0
DWIDTH 34 0
BBX 6 8 1 1
BITMAP
90
48
6C
24
24
68
D8
90
ENDCHAR
STARTCHAR 00BC
ENCODING 188
STARTCHAR 00BC
SWIDTH 571 0
DWIDTH 34 0
BBX 7 16 1 -3
BITMAP
10
30
10
10
10
10
38
00
FE
00
18
10
20
28
7C
18
ENDCHAR
STARTCHAR 00BD
ENCODING 189
STARTCHAR 00BD
SWIDTH 571 0
DWIDTH 34 0
BBX 6 16 1 -3
BITMAP
10
30
10
10
10
10
38
00
FC
00
38
48
08
10
68
78
ENDCHAR
STARTCHAR 00BE
ENCODING 190
STARTCHAR 00BE
SWIDTH 571 0
DWIDTH 34 0
BBX 6 16 1 -3
BITMAP
78
18
30
38
08
48
38
00
FC
00
18
10
20
28
78
18
ENDCHAR
STARTCHAR 00BF
ENCODING 191
STARTCHAR 00BF
SWIDTH 571 0
DWIDTH 34 0
BBX 5 11 1 -3
BITMAP
20
20
00
20
20
E0
80
80
88
D8
70
ENDCHAR
STARTCHAR 00C0
ENCODING 192
STARTCHAR 00C0
SWIDTH 571 0
DWIDTH 34 0
BBX 7 15 1 0
BITMAP
20
30
10
00
10
10
28
28
28
28
7C
6C
44
44
EE
ENDCHAR
STARTCHAR 00C1
ENCODING 193
STARTCHAR 00C1
SWIDTH 571 0
DWIDTH 34 0
BBX 7 15 1 0
BITMAP
08
18
10
00
10
10
28
28
28
28
7C
6C
44
44
EE
ENDCHAR
STARTCHAR 00C2
ENCODING 194
STARTCHAR 00C2
SWIDTH 571 0
DWIDTH 34 0
BBX 7 15 1 0
BITMAP
10
28
00
00
10
10
28
28
28
28
7C
6C
44
44
EE
ENDCHAR
STARTCHAR 00C3
ENCODING 195
STARTCHAR 00C3
SWIDTH 571 0
DWIDTH 34 0
BBX 7 15 1 0
BITMAP
34
5C
00
00
10
10
28
28
28
28
7C
6C
44
44
EE
ENDCHAR
STARTCHAR 00C4
ENCODING 196
STARTCHAR 00C4
SWIDTH 571 0
DWIDTH 34 0
BBX 7 14 1 0
BITMAP
4C
4C
00
10
10
28
28
28
28
7C
6C
44
44
EE
ENDCHAR
STARTCHAR 00C5
ENCODING 197
STARTCHAR 00C5
SWIDTH 571 0
DWIDTH 34 0
BBX 7 15 1 0
BITMAP
10
28
38
00
10
10
28
28
28
28
7C
6C
44
44
EE
ENDCHAR
STARTCHAR 00C6
ENCODING 198
STARTCHAR 00C6
SWIDTH 571 0
DWIDTH 34 0
BBX 7 11 1 0
BITMAP
3E
1A
18
28
28
2E
28
78
48
4A
EE
ENDCHAR
STARTCHAR 00C7
ENCODING 199
STARTCHAR 00C7
SWIDTH 571 0
DWIDTH 34 0
BBX 6 14 1 -3
BITMAP
78
CC
84
80
80
80
80
80
84
CC
78
20
10
70
ENDCHAR
STARTCHAR 00C8
ENCODING 200
STARTCHAR 00C8
SWIDTH 571 0
DWIDTH 34 0
BBX 6 15 1 0
BITMAP
20
30
10
00
FC
44
40
40
40
78
40
40
40
44
FC
ENDCHAR
STARTCHAR 00C9
ENCODING 201
STARTCHAR 00C9
SWIDTH 571 0
DWIDTH 34 0
BBX 6 15 1 0
BITMAP
08
18
10
00
FC
44
40
40
40
78
40
40
40
44
FC
ENDCHAR
STARTCHAR 00CA
ENCODING 202
STARTCHAR 00CA
SWIDTH 571 0
DWIDTH 34 0
BBX 6 15 1 0
BITMAP
38
28
00
00
FC
44
40
40
40
78
40
40
40
44
FC
ENDCHAR
STARTCHAR 00CB
ENCODING 203
STARTCHAR 00CB
SWIDTH 571 0
DWIDTH 34 0
BBX 6 14 1 0
BITMAP
4C
4C
00
FC
44
40
40
40
78
40
40
40
44
FC
ENDCHAR
STARTCHAR 00CC
ENCODING 204
STARTCHAR 00CC
SWIDTH 571 0
DWIDTH 34 0
BBX 6 15 1 0
BITMAP
40
60
20
00
FC
20
20
20
20
20
20
20
20
20
FC
ENDCHAR
STARTCHAR 00CD
ENCODING 205
STARTCHAR 00CD
SWIDTH 571 0
DWIDTH 34 0
BBX 6 15 1 0
BITMAP
10
30
20
00
FC
20
20
20
20
20
20
20
20
20
FC
ENDCHAR
STARTCHAR 00CE
ENCODING 206
STARTCHAR 00CE
SWIDTH 571 0
DWIDTH 34 0
BBX 6 15 1 0
BITMAP
70
58
08
00
FC
20
20
20
20
20
20
20
20
20
FC
ENDCHAR
STARTCHAR 00CF
ENCODING 207
STARTCHAR 00CF
SWIDTH 571 0
DWIDTH 34 0
BBX 6 14 1 0
BITMAP
4C
4C
00
FC
20
20
20
20
20
20
20
20
20
FC
ENDCHAR
STARTCHAR 00D0
ENCODING 208
STARTCHAR 00D0
SWIDTH 571 0
DWIDTH 34 0
BBX 7 11 1 0
BITMAP
FC
46
42
42
42
F2
42
42
42
46
FC
ENDCHAR
STARTCHAR 00D1
ENCODING 209
STARTCHAR 00D1
SWIDTH 571 0
DWIDTH 34 0
BBX 7 15 1 0
BITMAP
32
5C
00
00
EE
62
62
72
52
5A
4A
4A
4E
46
E6
ENDCHAR
STARTCHAR 00D2
ENCODING 210
STARTCHAR 00D2
SWIDTH 571 0
DWIDTH 34 0
BBX 6 14 1 1
BITMAP
60
30
00
78
CC
84
84
84
84
84
84
84
CC
78
ENDCHAR
STARTCHAR 00D3
ENCODING 211
STARTCHAR 00D3
SWIDTH 571 0
DWIDTH 34 0
BBX 6 14 1 1
BITMAP
18
30
00
78
CC
84
84
84
84
84
84
84
CC
78
ENDCHAR
STARTCHAR 00D4
ENCODING 212
STARTCHAR 00D4
SWIDTH 571 0
DWIDTH 34 0
BBX 6 15 1 0
BITMAP
30
58
48
00
78
CC
84
84
84
84
84
84
84
CC
78
ENDCHAR
STARTCHAR 00D5
ENCODING 213
STARTCHAR 00D5
SWIDTH 571 0
DWIDTH 34 0
BBX 6 15 1 0
BITMAP
64
F8
00
00
78
CC
84
84
84
84
84
84
84
CC
78
ENDCHAR
STARTCHAR 00D6
ENCODING 214
STARTCHAR 00D6
SWIDTH 571 0
DWIDTH 34 0
BBX 6 15 1 0
BITMAP
4C
4C
00
00
78
CC
84
84
84
84
84
84
84
CC
78
ENDCHAR
STARTCHAR 00D7
ENCODING 215
STARTCHAR 00D7
SWIDTH 571 0
DWIDTH 34 0
BBX 7 8 1 1
BITMAP
86
C4
68
30
38
6C
C6
80
ENDCHAR
STARTCHAR 00D8
ENCODING 216
STARTCHAR 00D8
SWIDTH 571 0
DWIDTH 34 0
BBX 6 12 1 0
BITMAP
7C
CC
8C
9C
94
B4
A4
E4
C4
CC
F8
80
ENDCHAR
STARTCHAR 00D9
ENCODING 217
STARTCHAR 00D9
SWIDTH 571 0
DWIDTH 34 0
BBX 7 15 1 0
BITMAP
20
30
10
00
EE
44
44
44
44
44
44
44
44
6C
38
ENDCHAR
STARTCHAR 00DA
ENCODING 218
STARTCHAR 00DA
SWIDTH 571 0
DWIDTH 34 0
BBX 7 15 1 0
BITMAP
08
18
10
00
EE
44
44
44
44
44
44
44
44
6C
38
ENDCHAR
STARTCHAR 00DB
ENCODING 219
STARTCHAR 00DB
SWIDTH 571 0
DWIDTH 34 0
BBX 7 15 1 0
BITMAP
10
28
08
00
EE
44
44
44
44
44
44
44
44
6C
38
ENDCHAR
STARTCHAR 00DC
ENCODING 220
STARTCHAR 00DC
SWIDTH 571 0
DWIDTH 34 0
BBX 7 15 1 0
BITMAP
4C
4C
00
00
EE
44
44
44
44
44
44
44
44
6C
38
ENDCHAR
STARTCHAR 00DD
ENCODING 221
STARTCHAR 00DD
SWIDTH 571 0
DWIDTH 34 0
BBX 7 15 1 0
BITMAP
08
18
10
00
EE
64
2C
28
28
38
10
10
10
10
3C
ENDCHAR
STARTCHAR 00DE
ENCODING 222
STARTCHAR 00DE
SWIDTH 571 0
DWIDTH 34 0
BBX 6 11 1 0
BITMAP
E0
40
78
4C
44
44
4C
78
40
40
E0
ENDCHAR
STARTCHAR 00DF
ENCODING 223
STARTCHAR 00DF
SWIDTH 571 0
DWIDTH 34 0
BBX 7 11 1 0
BITMAP
38
6C
44
44
4C
5C
46
42
42
46
FC
ENDCHAR
STARTCHAR 00E0
ENCODING 224
STARTCHAR 00E0
SWIDTH 571 0
DWIDTH 34 0
BBX 7 11 1 1
BITMAP
20
10
00
78
CC
04
7C
C4
84
CC
76
ENDCHAR
STARTCHAR 00E1
ENCODING 225
STARTCHAR 00E1
SWIDTH 571 0
DWIDTH 34 0
BBX 7 11 1 1
BITMAP
18
30
00
78
CC
04
7C
C4
84
CC
76
ENDCHAR
STARTCHAR 00E2
ENCODING 226
STARTCHAR 00E2
SWIDTH 571 0
DWIDTH 34 0
BBX 7 12 1 0
BITMAP
30
38
48
00
78
CC
04
7C
C4
84
CC
76
ENDCHAR
STARTCHAR 00E3
ENCODING 227
STARTCHAR 00E3
SWIDTH 571 0
DWIDTH 34 0
BBX 7 11 1 0
BITMAP
64
D8
00
78
CC
04
7C
C4
84
CC
76
ENDCHAR
STARTCHAR 00E4
ENCODING 228
STARTCHAR 00E4
SWIDTH 571 0
DWIDTH 34 0
BBX 7 11 1 0
BITMAP
4C
4C
00
78
CC
04
7C
C4
84
CC
76
ENDCHAR
STARTCHAR 00E5
ENCODING 229
STARTCHAR 00E5
SWIDTH 571 0
DWIDTH 34 0
BBX 7 12 1 0
BITMAP
30
28
30
00
78
CC
04
7C
C4
84
CC
76
ENDCHAR
STARTCHAR 00E6
ENCODING 230
STARTCHAR 00E6
SWIDTH 571 0
DWIDTH 34 0
BBX 7 8 1 0
BITMAP
FC
92
12
7E
D0
92
96
FC
ENDCHAR
STARTCHAR 00E7
ENCODING 231
STARTCHAR 00E7
SWIDTH 571 0
DWIDTH 34 0
BBX 6 11 1 -3
BITMAP
74
CC
84
80
80
84
CC
78
20
10
70
ENDCHAR
STARTCHAR 00E8
ENCODING 232
STARTCHAR 00E8
SWIDTH 571 0
DWIDTH 34 0
BBX 6 11 1 1
BITMAP
60
30
00
78
CC
84
FC
80
84
CC
78
ENDCHAR
STARTCHAR 00E9
ENCODING 233
STARTCHAR 00E9
SWIDTH 571 0
DWIDTH 34 0
BBX 6 11 1 1
BITMAP
18
30
00
78
CC
84
FC
80
84
CC
78
ENDCHAR
STARTCHAR 00EA
ENCODING 234
STARTCHAR 00EA
SWIDTH 571 0
DWIDTH 34 0
BBX 6 12 1 0
BITMAP
30
78
48
00
78
CC
84
FC
80
84
CC
78
ENDCHAR
STARTCHAR 00EB
ENCODING 235
STARTCHAR 00EB
SWIDTH 571 0
DWIDTH 34 0
BBX 6 11 1 0
BITMAP
4C
4C
00
78
CC
84
FC
80
84
CC
78
ENDCHAR
STARTCHAR 00EC
ENCODING 236
STARTCHAR 00EC
SWIDTH 571 0
DWIDTH 34 0
BBX 6 12 1 0
BITMAP
20
20
10
00
F0
10
10
10
10
10
10
FC
ENDCHAR
STARTCHAR 00ED
ENCODING 237
STARTCHAR 00ED
SWIDTH 571 0
DWIDTH 34 0
BBX 6 12 1 0
BITMAP
08
18
30
00
F0
10
10
10
10
10
10
FC
ENDCHAR
STARTCHAR 00EE
ENCODING 238
STARTCHAR 00EE
SWIDTH 571 0
DWIDTH 34 0
BBX 6 12 1 0
BITMAP
10
38
4C
00
F0
10
10
10
10
10
10
FC
ENDCHAR
STARTCHAR 00EF
ENCODING 239
STARTCHAR 00EF
SWIDTH 571 0
DWIDTH 34 0
BBX 6 11 1 0
BITMAP
4C
4C
00
F0
10
10
10
10
10
10
FC
ENDCHAR
STARTCHAR 00F0
ENCODING 240
STARTCHAR 00F0
SWIDTH 571 0
DWIDTH 34 0
BBX 6 11 1 0
BITMAP
60
3C
F8
0C
7C
CC
84
84
84
CC
78
ENDCHAR
STARTCHAR 00F1
ENCODING 241
STARTCHAR 00F1
SWIDTH 571 0
DWIDTH 34 0
BBX 7 11 1 0
BITMAP
34
58
00
D8
6C
44
44
44
44
44
EE
ENDCHAR
STARTCHAR 00F2
ENCODING 242
STARTCHAR 00F2
SWIDTH 571 0
DWIDTH 34 0
BBX 6 11 1 1
BITMAP
60
30
00
78
CC
84
84
84
84
CC
78
ENDCHAR
STARTCHAR 00F3
ENCODING 243
STARTCHAR 00F3
SWIDTH 571 0
DWIDTH 34 0
BBX 6 11 1 1
BITMAP
18
30
00
78
CC
84
84
84
84
CC
78
ENDCHAR
STARTCHAR 00F4
ENCODING 244
STARTCHAR 00F4
SWIDTH 571 0
DWIDTH 34 0
BBX 6 12 1 0
BITMAP
30
78
C8
00
78
CC
84
84
84
84
CC
78
ENDCHAR
STARTCHAR 00F5
ENCODING 245
STARTCHAR 00F5
SWIDTH 571 0
DWIDTH 34 0
BBX 6 11 1 0
BITMAP
64
98
00
78
CC
84
84
84
84
CC
78
ENDCHAR
STARTCHAR 00F6
ENCODING 246
STARTCHAR 00F6
SWIDTH 571 0
DWIDTH 34 0
BBX 6 11 1 0
BITMAP
4C
4C
00
78
CC
84
84
84
84
CC
78
ENDCHAR
STARTCHAR 00F7
ENCODING 247
STARTCHAR 00F7
SWIDTH 571 0
DWIDTH 34 0
BBX 6 8 1 2
BITMAP
10
10
00
00
FC
00
00
10
ENDCHAR
STARTCHAR 00F8
ENCODING 248
STARTCHAR 00F8
SWIDTH 571 0
DWIDTH 34 0
BBX 6 8 1 0
BITMAP
7C
CC
9C
94
A4
E4
CC
F8
ENDCHAR
STARTCHAR 00F9
ENCODING 249
STARTCHAR 00F9
SWIDTH 571 0
DWIDTH 34 0
BBX 7 12 1 0
BITMAP
20
30
10
00
CC
44
44
44
44
44
6C
36
ENDCHAR
STARTCHAR 00FA
ENCODING 250
STARTCHAR 00FA
SWIDTH 571 0
DWIDTH 34 0
BBX 7 11 1 1
BITMAP
18
10
00
CC
44
44
44
44
44
6C
36
ENDCHAR
STARTCHAR 00FB
ENCODING 251
STARTCHAR 00FB
SWIDTH 571 0
DWIDTH 34 0
BBX 7 12 1 0
BITMAP
10
28
48
00
CC
44
44
44
44
44
6C
36
ENDCHAR
STARTCHAR 00FC
ENCODING 252
STARTCHAR 00FC
SWIDTH 571 0
DWIDTH 34 0
BBX 7 11 1 0
BITMAP
4C
4C
00
CC
44
44
44
44
44
6C
36
ENDCHAR
STARTCHAR 00FD
ENCODING 253
STARTCHAR 00FD
SWIDTH 571 0
DWIDTH 34 0
BBX 7 15 1 -3
BITMAP
08
18
10
00
EE
44
6C
28
28
28
18
10
10
30
60
ENDCHAR
STARTCHAR 00FE
ENCODING 254
STARTCHAR 00FE
SWIDTH 571 0
DWIDTH 34 0
BBX 7 14 1 -3
BITMAP
C0
40
40
5C
66
42
42
42
42
66
5C
40
40
E0
ENDCHAR
STARTCHAR 00FF
ENCODING 255
STARTCHAR 00FF
SWIDTH 571 0
DWIDTH 34 0
BBX 7 14 1 -3
BITMAP
4C
4C
00
EE
44
6C
28
28
28
18
10
10
30
60
ENDCHAR
ENDFONT
