STARTFONT 2.1
COMMENT
COMMENT Converted from OpenType font "IosevkaCustomNerdFontMono-ExtraBold.ttf" by "otf2bdf 3.0".
COMMENT
FONT -FreeType-IosevkaCustom Nerd Font Mono ExtraBold-Medium-R-Normal--10-100-72-72-C-51-ISO10646-1
SIZE 10 72 72
FONTBOUNDINGBOX 24 18 -12 -6
STARTPROPERTIES 19
FOUNDRY "FreeType"
FAMILY_NAME "IosevkaCustom Nerd Font Mono ExtraBold"
WEIGHT_NAME "Medium"
SLANT "R"
SETWIDTH_NAME "Normal"
ADD_STYLE_NAME ""
PIXEL_SIZE 10
POINT_SIZE 100
RESOLUTION_X 72
RESOLUTION_Y 72
SPACING "C"
AVERAGE_WIDTH 51
CHARSET_REGISTRY "ISO10646"
CHARSET_ENCODING "1"
FONT_ASCENT 9
FONT_DESCENT 2
COPYRIGHT "Copyright 2015-2026, Renzhi Li (aka. Belleve Invis, belleve@typeof.net)."
_OTF_FONTFILE "IosevkaCustomNerdFontMono-ExtraBold.ttf"
_OTF_PSNAME "IosevkaCustomNFM-ExtraBold"
ENDPROPERTIES
CHARS 5707
STARTCHAR 000D
ENCODING 13
STARTCHAR 000D
SWIDTH 600 0
DWIDTH 24 0
BBX 0 0 0 0
BITMAP
ENDCHAR
STARTCHAR 0020
ENCODING 32
STARTCHAR 0020
SWIDTH 600 0
DWIDTH 24 0
BBX 0 0 0 0
BITMAP
ENDCHAR
STARTCHAR 0021
ENCODING 33
STARTCHAR 0021
SWIDTH 600 0
DWIDTH 24 0
BBX 1 7 3 0
BITMAP
80
80
80
80
00
00
80
ENDCHAR
STARTCHAR 0022
ENCODING 34
STARTCHAR 0022
SWIDTH 600 0
DWIDTH 24 0
BBX 3 3 1 4
BITMAP
A0
A0
A0
ENDCHAR
STARTCHAR 0023
ENCODING 35
STARTCHAR 0023
SWIDTH 600 0
DWIDTH 24 0
BBX 6 7 1 0
BITMAP
28
28
7C
38
F8
50
50
ENDCHAR
STARTCHAR 0024
ENCODING 36
STARTCHAR 0024
SWIDTH 600 0
DWIDTH 24 0
BBX 4 9 1 -1
BITMAP
20
F0
B0
E0
70
30
B0
F0
20
ENDCHAR
STARTCHAR 0025
ENCODING 37
STARTCHAR 0025
SWIDTH 600 0
DWIDTH 24 0
BBX 5 7 1 0
BITMAP
C8
D0
D0
20
58
58
98
ENDCHAR
STARTCHAR 0026
ENCODING 38
STARTCHAR 0026
SWIDTH 600 0
DWIDTH 24 0
BBX 5 7 1 0
BITMAP
70
80
90
78
90
90
F0
ENDCHAR
STARTCHAR 0027
ENCODING 39
STARTCHAR 0027
SWIDTH 600 0
DWIDTH 24 0
BBX 1 3 3 4
BITMAP
80
80
80
ENDCHAR
STARTCHAR 0028
ENCODING 40
STARTCHAR 0028
SWIDTH 600 0
DWIDTH 24 0
BBX 3 9 1 -1
BITMAP
60
C0
80
80
80
80
80
C0
60
ENDCHAR
STARTCHAR 0029
ENCODING 41
STARTCHAR 0029
SWIDTH 600 0
DWIDTH 24 0
BBX 3 9 2 -1
BITMAP
C0
60
20
20
20
20
20
60
C0
ENDCHAR
STARTCHAR 002A
ENCODING 42
STARTCHAR 002A
SWIDTH 600 0
DWIDTH 24 0
BBX 5 5 1 2
BITMAP
20
F8
60
F8
20
ENDCHAR
STARTCHAR 002B
ENCODING 43
STARTCHAR 002B
SWIDTH 600 0
DWIDTH 24 0
BBX 5 4 1 1
BITMAP
20
F8
20
20
ENDCHAR
STARTCHAR 002C
ENCODING 44
STARTCHAR 002C
SWIDTH 600 0
DWIDTH 24 0
BBX 1 4 2 -2
BITMAP
80
80
80
80
ENDCHAR
STARTCHAR 002D
ENCODING 45
STARTCHAR 002D
SWIDTH 600 0
DWIDTH 24 0
BBX 4 1 1 3
BITMAP
F0
ENDCHAR
STARTCHAR 002E
ENCODING 46
STARTCHAR 002E
SWIDTH 600 0
DWIDTH 24 0
BBX 1 2 2 0
BITMAP
80
80
ENDCHAR
STARTCHAR 002F
ENCODING 47
STARTCHAR 002F
SWIDTH 600 0
DWIDTH 24 0
BBX 4 9 1 -1
BITMAP
10
30
20
20
60
40
40
C0
80
ENDCHAR
STARTCHAR 0030
ENCODING 48
STARTCHAR 0030
SWIDTH 600 0
DWIDTH 24 0
BBX 4 7 1 0
BITMAP
E0
90
B0
D0
D0
90
E0
ENDCHAR
STARTCHAR 0031
ENCODING 49
STARTCHAR 0031
SWIDTH 600 0
DWIDTH 24 0
BBX 4 7 1 0
BITMAP
60
A0
20
20
20
20
F0
ENDCHAR
STARTCHAR 0032
ENCODING 50
STARTCHAR 0032
SWIDTH 600 0
DWIDTH 24 0
BBX 5 7 1 0
BITMAP
70
90
10
30
60
D8
F8
ENDCHAR
STARTCHAR 0033
ENCODING 51
STARTCHAR 0033
SWIDTH 600 0
DWIDTH 24 0
BBX 4 7 1 0
BITMAP
F0
30
60
70
10
90
70
ENDCHAR
STARTCHAR 0034
ENCODING 52
STARTCHAR 0034
SWIDTH 600 0
DWIDTH 24 0
BBX 4 7 1 0
BITMAP
30
20
40
D0
F0
10
30
ENDCHAR
STARTCHAR 0035
ENCODING 53
STARTCHAR 0035
SWIDTH 600 0
DWIDTH 24 0
BBX 4 7 1 0
BITMAP
F0
90
80
E0
30
B0
E0
ENDCHAR
STARTCHAR 0036
ENCODING 54
STARTCHAR 0036
SWIDTH 600 0
DWIDTH 24 0
BBX 4 7 1 0
BITMAP
E0
90
80
F0
90
90
E0
ENDCHAR
STARTCHAR 0037
ENCODING 55
STARTCHAR 0037
SWIDTH 600 0
DWIDTH 24 0
BBX 5 7 1 0
BITMAP
F8
90
10
30
20
60
40
ENDCHAR
STARTCHAR 0038
ENCODING 56
STARTCHAR 0038
SWIDTH 600 0
DWIDTH 24 0
BBX 4 7 1 0
BITMAP
70
90
F0
70
D0
90
70
ENDCHAR
STARTCHAR 0039
ENCODING 57
STARTCHAR 0039
SWIDTH 600 0
DWIDTH 24 0
BBX 4 7 1 0
BITMAP
E0
90
90
F0
10
90
E0
ENDCHAR
STARTCHAR 003A
ENCODING 58
STARTCHAR 003A
SWIDTH 600 0
DWIDTH 24 0
BBX 1 5 2 0
BITMAP
80
80
00
80
80
ENDCHAR
STARTCHAR 003B
ENCODING 59
STARTCHAR 003B
SWIDTH 600 0
DWIDTH 24 0
BBX 1 7 2 -2
BITMAP
80
80
00
80
80
80
80
ENDCHAR
STARTCHAR 003C
ENCODING 60
STARTCHAR 003C
SWIDTH 600 0
DWIDTH 24 0
BBX 4 5 1 0
BITMAP
10
60
80
C0
30
ENDCHAR
STARTCHAR 003D
ENCODING 61
STARTCHAR 003D
SWIDTH 600 0
DWIDTH 24 0
BBX 4 3 1 2
BITMAP
F0
00
F0
ENDCHAR
STARTCHAR 003E
ENCODING 62
STARTCHAR 003E
SWIDTH 600 0
DWIDTH 24 0
BBX 4 5 1 0
BITMAP
80
60
10
30
C0
ENDCHAR
STARTCHAR 003F
ENCODING 63
STARTCHAR 003F
SWIDTH 600 0
DWIDTH 24 0
BBX 5 7 1 0
BITMAP
70
D8
18
30
00
00
20
ENDCHAR
STARTCHAR 0040
ENCODING 64
STARTCHAR 0040
SWIDTH 600 0
DWIDTH 24 0
BBX 5 8 1 -1
BITMAP
70
88
F8
D8
D8
D8
F8
F0
ENDCHAR
STARTCHAR 0041
ENCODING 65
STARTCHAR 0041
SWIDTH 600 0
DWIDTH 24 0
BBX 5 7 1 0
BITMAP
20
70
50
50
70
D8
D8
ENDCHAR
STARTCHAR 0042
ENCODING 66
STARTCHAR 0042
SWIDTH 600 0
DWIDTH 24 0
BBX 5 7 0 0
BITMAP
F0
58
48
70
48
48
F8
ENDCHAR
STARTCHAR 0043
ENCODING 67
STARTCHAR 0043
SWIDTH 600 0
DWIDTH 24 0
BBX 4 7 1 0
BITMAP
F0
90
80
80
80
90
F0
ENDCHAR
STARTCHAR 0044
ENCODING 68
STARTCHAR 0044
SWIDTH 600 0
DWIDTH 24 0
BBX 5 7 0 0
BITMAP
F0
48
48
48
48
48
F0
ENDCHAR
STARTCHAR 0045
ENCODING 69
STARTCHAR 0045
SWIDTH 600 0
DWIDTH 24 0
BBX 5 7 0 0
BITMAP
F8
48
40
70
40
48
F8
ENDCHAR
STARTCHAR 0046
ENCODING 70
STARTCHAR 0046
SWIDTH 600 0
DWIDTH 24 0
BBX 5 7 1 0
BITMAP
F8
58
40
60
40
40
C0
ENDCHAR
STARTCHAR 0047
ENCODING 71
STARTCHAR 0047
SWIDTH 600 0
DWIDTH 24 0
BBX 4 7 1 0
BITMAP
F0
90
80
B0
90
90
F0
ENDCHAR
STARTCHAR 0048
ENCODING 72
STARTCHAR 0048
SWIDTH 600 0
DWIDTH 24 0
BBX 5 7 1 0
BITMAP
D8
48
48
78
48
48
D8
ENDCHAR
STARTCHAR 0049
ENCODING 73
STARTCHAR 0049
SWIDTH 600 0
DWIDTH 24 0
BBX 4 7 1 0
BITMAP
F0
20
20
20
20
20
F0
ENDCHAR
STARTCHAR 004A
ENCODING 74
STARTCHAR 004A
SWIDTH 600 0
DWIDTH 24 0
BBX 4 7 1 0
BITMAP
70
10
10
10
10
90
E0
ENDCHAR
STARTCHAR 004B
ENCODING 75
STARTCHAR 004B
SWIDTH 600 0
DWIDTH 24 0
BBX 5 7 1 0
BITMAP
D8
50
60
60
60
50
D8
ENDCHAR
STARTCHAR 004C
ENCODING 76
STARTCHAR 004C
SWIDTH 600 0
DWIDTH 24 0
BBX 5 7 1 0
BITMAP
C0
40
40
40
40
58
F8
ENDCHAR
STARTCHAR 004D
ENCODING 77
STARTCHAR 004D
SWIDTH 600 0
DWIDTH 24 0
BBX 6 7 0 0
BITMAP
CC
6C
6C
74
54
44
CC
ENDCHAR
STARTCHAR 004E
ENCODING 78
STARTCHAR 004E
SWIDTH 600 0
DWIDTH 24 0
BBX 5 7 1 0
BITMAP
D8
68
68
68
58
58
C8
ENDCHAR
STARTCHAR 004F
ENCODING 79
STARTCHAR 004F
SWIDTH 600 0
DWIDTH 24 0
BBX 4 7 1 0
BITMAP
E0
90
90
90
90
90
E0
ENDCHAR
STARTCHAR 0050
ENCODING 80
STARTCHAR 0050
SWIDTH 600 0
DWIDTH 24 0
BBX 4 7 1 0
BITMAP
F0
50
50
70
40
40
C0
ENDCHAR
STARTCHAR 0051
ENCODING 81
STARTCHAR 0051
SWIDTH 600 0
DWIDTH 24 0
BBX 5 8 1 -1
BITMAP
E0
90
90
90
D0
B0
F0
18
ENDCHAR
STARTCHAR 0052
ENCODING 82
STARTCHAR 0052
SWIDTH 600 0
DWIDTH 24 0
BBX 5 7 1 0
BITMAP
F0
48
48
70
70
50
D8
ENDCHAR
STARTCHAR 0053
ENCODING 83
STARTCHAR 0053
SWIDTH 600 0
DWIDTH 24 0
BBX 5 7 1 0
BITMAP
78
98
C0
70
10
90
F0
ENDCHAR
STARTCHAR 0054
ENCODING 84
STARTCHAR 0054
SWIDTH 600 0
DWIDTH 24 0
BBX 5 7 0 0
BITMAP
F8
A8
20
20
20
20
70
ENDCHAR
STARTCHAR 0055
ENCODING 85
STARTCHAR 0055
SWIDTH 600 0
DWIDTH 24 0
BBX 5 7 1 0
BITMAP
D8
48
48
48
48
48
70
ENDCHAR
STARTCHAR 0056
ENCODING 86
STARTCHAR 0056
SWIDTH 600 0
DWIDTH 24 0
BBX 5 7 1 0
BITMAP
D8
58
50
50
50
30
20
ENDCHAR
STARTCHAR 0057
ENCODING 87
STARTCHAR 0057
SWIDTH 600 0
DWIDTH 24 0
BBX 5 7 1 0
BITMAP
88
88
A8
E8
F0
D0
50
ENDCHAR
STARTCHAR 0058
ENCODING 88
STARTCHAR 0058
SWIDTH 600 0
DWIDTH 24 0
BBX 5 7 1 0
BITMAP
D8
50
70
20
70
50
D8
ENDCHAR
STARTCHAR 0059
ENCODING 89
STARTCHAR 0059
SWIDTH 600 0
DWIDTH 24 0
BBX 5 7 1 0
BITMAP
D8
50
70
20
20
20
70
ENDCHAR
STARTCHAR 005A
ENCODING 90
STARTCHAR 005A
SWIDTH 600 0
DWIDTH 24 0
BBX 5 7 1 0
BITMAP
F8
90
30
60
40
D8
F8
ENDCHAR
STARTCHAR 005B
ENCODING 91
STARTCHAR 005B
SWIDTH 600 0
DWIDTH 24 0
BBX 3 9 2 -1
BITMAP
E0
80
80
80
80
80
80
80
E0
ENDCHAR
STARTCHAR 005C
ENCODING 92
STARTCHAR 005C
SWIDTH 600 0
DWIDTH 24 0
BBX 4 9 1 -1
BITMAP
80
C0
40
40
60
20
20
30
10
ENDCHAR
STARTCHAR 005D
ENCODING 93
STARTCHAR 005D
SWIDTH 600 0
DWIDTH 24 0
BBX 3 9 1 -1
BITMAP
E0
20
20
20
20
20
20
20
E0
ENDCHAR
STARTCHAR 005E
ENCODING 94
STARTCHAR 005E
SWIDTH 600 0
DWIDTH 24 0
BBX 4 3 1 4
BITMAP
60
F0
90
ENDCHAR
STARTCHAR 005F
ENCODING 95
STARTCHAR 005F
SWIDTH 600 0
DWIDTH 24 0
BBX 4 1 1 -1
BITMAP
F0
ENDCHAR
STARTCHAR 0060
ENCODING 96
STARTCHAR 0060
SWIDTH 600 0
DWIDTH 24 0
BBX 2 2 2 6
BITMAP
80
40
ENDCHAR
STARTCHAR 0061
ENCODING 97
STARTCHAR 0061
SWIDTH 600 0
DWIDTH 24 0
BBX 5 5 1 0
BITMAP
70
90
78
98
F8
ENDCHAR
STARTCHAR 0062
ENCODING 98
STARTCHAR 0062
SWIDTH 600 0
DWIDTH 24 0
BBX 5 7 0 0
BITMAP
C0
40
78
48
48
48
F8
ENDCHAR
STARTCHAR 0063
ENCODING 99
STARTCHAR 0063
SWIDTH 600 0
DWIDTH 24 0
BBX 4 5 1 0
BITMAP
F0
90
80
90
F0
ENDCHAR
STARTCHAR 0064
ENCODING 100
STARTCHAR 0064
SWIDTH 600 0
DWIDTH 24 0
BBX 5 7 1 0
BITMAP
30
10
D0
B0
90
90
F8
ENDCHAR
STARTCHAR 0065
ENCODING 101
STARTCHAR 0065
SWIDTH 600 0
DWIDTH 24 0
BBX 5 5 1 0
BITMAP
70
90
F8
90
70
ENDCHAR
STARTCHAR 0066
ENCODING 102
STARTCHAR 0066
SWIDTH 600 0
DWIDTH 24 0
BBX 4 7 1 0
BITMAP
70
40
F0
40
40
40
F0
ENDCHAR
STARTCHAR 0067
ENCODING 103
STARTCHAR 0067
SWIDTH 600 0
DWIDTH 24 0
BBX 5 7 1 -2
BITMAP
F8
90
F0
80
F0
18
F0
ENDCHAR
STARTCHAR 0068
ENCODING 104
STARTCHAR 0068
SWIDTH 600 0
DWIDTH 24 0
BBX 5 7 1 0
BITMAP
C0
40
78
48
48
48
D8
ENDCHAR
STARTCHAR 0069
ENCODING 105
STARTCHAR 0069
SWIDTH 600 0
DWIDTH 24 0
BBX 4 7 1 0
BITMAP
60
00
E0
20
20
20
F0
ENDCHAR
STARTCHAR 006A
ENCODING 106
STARTCHAR 006A
SWIDTH 600 0
DWIDTH 24 0
BBX 4 9 0 -2
BITMAP
10
00
70
10
10
10
10
90
E0
ENDCHAR
STARTCHAR 006B
ENCODING 107
STARTCHAR 006B
SWIDTH 600 0
DWIDTH 24 0
BBX 5 7 1 0
BITMAP
C0
40
58
70
60
70
D8
ENDCHAR
STARTCHAR 006C
ENCODING 108
STARTCHAR 006C
SWIDTH 600 0
DWIDTH 24 0
BBX 4 7 1 0
BITMAP
E0
20
20
20
20
20
F0
ENDCHAR
STARTCHAR 006D
ENCODING 109
STARTCHAR 006D
SWIDTH 600 0
DWIDTH 24 0
BBX 6 5 0 0
BITMAP
FC
54
54
54
D4
ENDCHAR
STARTCHAR 006E
ENCODING 110
STARTCHAR 006E
SWIDTH 600 0
DWIDTH 24 0
BBX 5 5 1 0
BITMAP
F8
48
48
48
D8
ENDCHAR
STARTCHAR 006F
ENCODING 111
STARTCHAR 006F
SWIDTH 600 0
DWIDTH 24 0
BBX 4 5 1 0
BITMAP
E0
90
90
90
E0
ENDCHAR
STARTCHAR 0070
ENCODING 112
STARTCHAR 0070
SWIDTH 600 0
DWIDTH 24 0
BBX 5 7 1 -2
BITMAP
F8
48
48
48
78
40
C0
ENDCHAR
STARTCHAR 0071
ENCODING 113
STARTCHAR 0071
SWIDTH 600 0
DWIDTH 24 0
BBX 4 7 1 -2
BITMAP
D0
B0
90
90
F0
10
30
ENDCHAR
STARTCHAR 0072
ENCODING 114
STARTCHAR 0072
SWIDTH 600 0
DWIDTH 24 0
BBX 4 5 1 0
BITMAP
F0
40
40
40
E0
ENDCHAR
STARTCHAR 0073
ENCODING 115
STARTCHAR 0073
SWIDTH 600 0
DWIDTH 24 0
BBX 5 5 1 0
BITMAP
F8
D8
70
90
F0
ENDCHAR
STARTCHAR 0074
ENCODING 116
STARTCHAR 0074
SWIDTH 600 0
DWIDTH 24 0
BBX 4 7 1 0
BITMAP
40
40
F0
40
40
50
70
ENDCHAR
STARTCHAR 0075
ENCODING 117
STARTCHAR 0075
SWIDTH 600 0
DWIDTH 24 0
BBX 5 5 0 0
BITMAP
D8
48
48
48
78
ENDCHAR
STARTCHAR 0076
ENCODING 118
STARTCHAR 0076
SWIDTH 600 0
DWIDTH 24 0
BBX 5 5 1 0
BITMAP
D8
50
50
70
20
ENDCHAR
STARTCHAR 0077
ENCODING 119
STARTCHAR 0077
SWIDTH 600 0
DWIDTH 24 0
BBX 5 5 1 0
BITMAP
88
A8
E8
D0
50
ENDCHAR
STARTCHAR 0078
ENCODING 120
STARTCHAR 0078
SWIDTH 600 0
DWIDTH 24 0
BBX 5 5 1 0
BITMAP
D8
70
20
70
D8
ENDCHAR
STARTCHAR 0079
ENCODING 121
STARTCHAR 0079
SWIDTH 600 0
DWIDTH 24 0
BBX 5 7 1 -2
BITMAP
D8
50
50
70
20
20
E0
ENDCHAR
STARTCHAR 007A
ENCODING 122
STARTCHAR 007A
SWIDTH 600 0
DWIDTH 24 0
BBX 5 5 1 0
BITMAP
F8
90
20
D8
F8
ENDCHAR
STARTCHAR 007B
ENCODING 123
STARTCHAR 007B
SWIDTH 600 0
DWIDTH 24 0
BBX 3 9 1 -1
BITMAP
20
40
40
40
C0
40
40
40
60
ENDCHAR
STARTCHAR 007C
ENCODING 124
STARTCHAR 007C
SWIDTH 600 0
DWIDTH 24 0
BBX 1 9 3 -1
BITMAP
80
80
80
80
80
80
80
80
80
ENDCHAR
STARTCHAR 007D
ENCODING 125
STARTCHAR 007D
SWIDTH 600 0
DWIDTH 24 0
BBX 3 9 2 -1
BITMAP
80
40
40
40
60
40
40
40
C0
ENDCHAR
STARTCHAR 007E
ENCODING 126
STARTCHAR 007E
SWIDTH 600 0
DWIDTH 24 0
BBX 6 2 0 2
BITMAP
6C
D8
ENDCHAR
STARTCHAR 00A0
ENCODING 160
STARTCHAR 00A0
SWIDTH 600 0
DWIDTH 24 0
BBX 0 0 0 0
BITMAP
ENDCHAR
STARTCHAR 00A1
ENCODING 161
STARTCHAR 00A1
SWIDTH 600 0
DWIDTH 24 0
BBX 1 7 2 -2
BITMAP
80
00
00
80
80
80
80
ENDCHAR
STARTCHAR 00A2
ENCODING 162
STARTCHAR 00A2
SWIDTH 600 0
DWIDTH 24 0
BBX 4 7 1 -1
BITMAP
20
F0
B0
A0
B0
F0
20
ENDCHAR
STARTCHAR 00A3
ENCODING 163
STARTCHAR 00A3
SWIDTH 600 0
DWIDTH 24 0
BBX 4 7 1 0
BITMAP
70
50
40
E0
40
D0
F0
ENDCHAR
STARTCHAR 00A4
ENCODING 164
STARTCHAR 00A4
SWIDTH 600 0
DWIDTH 24 0
BBX 4 4 1 0
BITMAP
F0
90
90
F0
ENDCHAR
STARTCHAR 00A5
ENCODING 165
STARTCHAR 00A5
SWIDTH 600 0
DWIDTH 24 0
BBX 5 7 1 0
BITMAP
D8
50
50
30
F8
F8
70
ENDCHAR
STARTCHAR 00A6
ENCODING 166
STARTCHAR 00A6
SWIDTH 600 0
DWIDTH 24 0
BBX 1 9 3 -1
BITMAP
80
80
80
80
00
80
80
80
80
ENDCHAR
STARTCHAR 00A7
ENCODING 167
STARTCHAR 00A7
SWIDTH 600 0
DWIDTH 24 0
BBX 4 9 1 -1
BITMAP
60
90
80
F0
90
F0
30
90
F0
ENDCHAR
STARTCHAR 00A8
ENCODING 168
STARTCHAR 00A8
SWIDTH 600 0
DWIDTH 24 0
BBX 4 1 1 6
BITMAP
F0
ENDCHAR
STARTCHAR 00A9
ENCODING 169
STARTCHAR 00A9
SWIDTH 600 0
DWIDTH 24 0
BBX 5 8 1 -1
BITMAP
70
98
E8
C8
C8
E8
88
F0
ENDCHAR
STARTCHAR 00AA
ENCODING 170
STARTCHAR 00AA
SWIDTH 600 0
DWIDTH 24 0
BBX 3 5 2 2
BITMAP
E0
E0
A0
E0
E0
ENDCHAR
STARTCHAR 00AB
ENCODING 171
STARTCHAR 00AB
SWIDTH 600 0
DWIDTH 24 0
BBX 4 5 1 1
BITMAP
50
50
A0
A0
50
ENDCHAR
STARTCHAR 00AC
ENCODING 172
STARTCHAR 00AC
SWIDTH 600 0
DWIDTH 24 0
BBX 4 3 1 1
BITMAP
F0
10
10
ENDCHAR
STARTCHAR 00AD
ENCODING 173
STARTCHAR 00AD
SWIDTH 600 0
DWIDTH 24 0
BBX 4 1 1 3
BITMAP
F0
ENDCHAR
STARTCHAR 00AE
ENCODING 174
STARTCHAR 00AE
SWIDTH 600 0
DWIDTH 24 0
BBX 5 5 1 4
BITMAP
70
F0
E8
D0
70
ENDCHAR
STARTCHAR 00AF
ENCODING 175
STARTCHAR 00AF
SWIDTH 600 0
DWIDTH 24 0
BBX 4 1 1 6
BITMAP
F0
ENDCHAR
STARTCHAR 00B0
ENCODING 176
STARTCHAR 00B0
SWIDTH 600 0
DWIDTH 24 0
BBX 2 3 2 5
BITMAP
C0
C0
C0
ENDCHAR
STARTCHAR 00B1
ENCODING 177
STARTCHAR 00B1
SWIDTH 600 0
DWIDTH 24 0
BBX 5 5 1 0
BITMAP
20
F8
20
20
F8
ENDCHAR
STARTCHAR 00B2
ENCODING 178
STARTCHAR 00B2
SWIDTH 600 0
DWIDTH 24 0
BBX 4 5 1 3
BITMAP
E0
20
20
40
F0
ENDCHAR
STARTCHAR 00B3
ENCODING 179
STARTCHAR 00B3
SWIDTH 600 0
DWIDTH 24 0
BBX 4 5 1 3
BITMAP
F0
60
60
20
E0
ENDCHAR
STARTCHAR 00B4
ENCODING 180
STARTCHAR 00B4
SWIDTH 600 0
DWIDTH 24 0
BBX 2 2 2 6
BITMAP
40
80
ENDCHAR
STARTCHAR 00B5
ENCODING 181
STARTCHAR 00B5
SWIDTH 600 0
DWIDTH 24 0
BBX 5 7 0 -2
BITMAP
D8
48
48
48
78
40
40
ENDCHAR
STARTCHAR 00B6
ENCODING 182
STARTCHAR 00B6
SWIDTH 600 0
DWIDTH 24 0
BBX 4 7 1 0
BITMAP
F0
F0
F0
F0
30
30
30
ENDCHAR
STARTCHAR 00B7
ENCODING 183
STARTCHAR 00B7
SWIDTH 600 0
DWIDTH 24 0
BBX 1 2 2 2
BITMAP
80
80
ENDCHAR
STARTCHAR 00B8
ENCODING 184
STARTCHAR 00B8
SWIDTH 600 0
DWIDTH 24 0
BBX 2 2 2 -2
BITMAP
C0
C0
ENDCHAR
STARTCHAR 00B9
ENCODING 185
STARTCHAR 00B9
SWIDTH 600 0
DWIDTH 24 0
BBX 3 5 2 3
BITMAP
C0
C0
40
40
E0
ENDCHAR
STARTCHAR 00BA
ENCODING 186
STARTCHAR 00BA
SWIDTH 600 0
DWIDTH 24 0
BBX 3 5 1 2
BITMAP
E0
A0
A0
E0
E0
ENDCHAR
STARTCHAR 00BB
ENCODING 187
STARTCHAR 00BB
SWIDTH 600 0
DWIDTH 24 0
BBX 4 5 1 1
BITMAP
A0
A0
50
50
A0
ENDCHAR
STARTCHAR 00BC
ENCODING 188
STARTCHAR 00BC
SWIDTH 600 0
DWIDTH 24 0
BBX 5 10 1 -2
BITMAP
20
60
20
70
F8
00
20
40
70
30
ENDCHAR
STARTCHAR 00BD
ENCODING 189
STARTCHAR 00BD
SWIDTH 600 0
DWIDTH 24 0
BBX 5 10 1 -2
BITMAP
20
60
20
70
F8
00
60
10
70
70
ENDCHAR
STARTCHAR 00BE
ENCODING 190
STARTCHAR 00BE
SWIDTH 600 0
DWIDTH 24 0
BBX 4 10 1 -2
BITMAP
70
20
10
60
00
F0
20
40
70
20
ENDCHAR
STARTCHAR 00BF
ENCODING 191
STARTCHAR 00BF
SWIDTH 600 0
DWIDTH 24 0
BBX 4 7 1 -2
BITMAP
20
00
00
20
C0
D0
70
ENDCHAR
STARTCHAR 00C0
ENCODING 192
STARTCHAR 00C0
SWIDTH 600 0
DWIDTH 24 0
BBX 5 9 1 0
BITMAP
60
00
20
70
50
50
70
D8
D8
ENDCHAR
STARTCHAR 00C1
ENCODING 193
STARTCHAR 00C1
SWIDTH 600 0
DWIDTH 24 0
BBX 5 9 1 0
BITMAP
30
00
20
70
50
50
70
D8
D8
ENDCHAR
STARTCHAR 00C2
ENCODING 194
STARTCHAR 00C2
SWIDTH 600 0
DWIDTH 24 0
BBX 5 10 1 0
BITMAP
20
50
00
20
70
50
50
70
D8
D8
ENDCHAR
STARTCHAR 00C3
ENCODING 195
STARTCHAR 00C3
SWIDTH 600 0
DWIDTH 24 0
BBX 5 9 1 1
BITMAP
78
00
20
70
50
50
70
D8
D8
ENDCHAR
STARTCHAR 00C4
ENCODING 196
STARTCHAR 00C4
SWIDTH 600 0
DWIDTH 24 0
BBX 5 9 1 0
BITMAP
78
00
20
70
50
50
70
D8
D8
ENDCHAR
STARTCHAR 00C5
ENCODING 197
STARTCHAR 00C5
SWIDTH 600 0
DWIDTH 24 0
BBX 5 10 1 0
BITMAP
30
30
30
20
70
50
50
70
D8
D8
ENDCHAR
STARTCHAR 00C6
ENCODING 198
STARTCHAR 00C6
SWIDTH 600 0
DWIDTH 24 0
BBX 6 7 0 0
BITMAP
7C
34
30
5C
70
54
DC
ENDCHAR
STARTCHAR 00C7
ENCODING 199
STARTCHAR 00C7
SWIDTH 600 0
DWIDTH 24 0
BBX 4 9 1 -2
BITMAP
F0
90
80
80
80
90
F0
20
70
ENDCHAR
STARTCHAR 00C8
ENCODING 200
STARTCHAR 00C8
SWIDTH 600 0
DWIDTH 24 0
BBX 5 9 0 0
BITMAP
20
00
F8
48
40
70
40
48
F8
ENDCHAR
STARTCHAR 00C9
ENCODING 201
STARTCHAR 00C9
SWIDTH 600 0
DWIDTH 24 0
BBX 5 9 0 0
BITMAP
30
00
F8
48
40
70
40
48
F8
ENDCHAR
STARTCHAR 00CA
ENCODING 202
STARTCHAR 00CA
SWIDTH 600 0
DWIDTH 24 0
BBX 5 10 0 0
BITMAP
20
50
00
F8
48
40
70
40
48
F8
ENDCHAR
STARTCHAR 00CB
ENCODING 203
STARTCHAR 00CB
SWIDTH 600 0
DWIDTH 24 0
BBX 5 9 0 0
BITMAP
78
00
F8
48
40
70
40
48
F8
ENDCHAR
STARTCHAR 00CC
ENCODING 204
STARTCHAR 00CC
SWIDTH 600 0
DWIDTH 24 0
BBX 4 9 1 0
BITMAP
60
20
F0
20
20
20
20
20
F0
ENDCHAR
STARTCHAR 00CD
ENCODING 205
STARTCHAR 00CD
SWIDTH 600 0
DWIDTH 24 0
BBX 4 9 1 0
BITMAP
20
00
F0
20
20
20
20
20
F0
ENDCHAR
STARTCHAR 00CE
ENCODING 206
STARTCHAR 00CE
SWIDTH 600 0
DWIDTH 24 0
BBX 4 10 1 0
BITMAP
20
50
00
F0
20
20
20
20
20
F0
ENDCHAR
STARTCHAR 00CF
ENCODING 207
STARTCHAR 00CF
SWIDTH 600 0
DWIDTH 24 0
BBX 4 9 1 0
BITMAP
F0
00
F0
20
20
20
20
20
F0
ENDCHAR
STARTCHAR 00D0
ENCODING 208
STARTCHAR 00D0
SWIDTH 600 0
DWIDTH 24 0
BBX 5 7 0 0
BITMAP
F0
48
48
E8
48
48
F0
ENDCHAR
STARTCHAR 00D1
ENCODING 209
STARTCHAR 00D1
SWIDTH 600 0
DWIDTH 24 0
BBX 5 9 1 1
BITMAP
78
10
D8
68
68
68
58
58
C8
ENDCHAR
STARTCHAR 00D2
ENCODING 210
STARTCHAR 00D2
SWIDTH 600 0
DWIDTH 24 0
BBX 4 9 1 0
BITMAP
40
00
E0
90
90
90
90
90
E0
ENDCHAR
STARTCHAR 00D3
ENCODING 211
STARTCHAR 00D3
SWIDTH 600 0
DWIDTH 24 0
BBX 4 9 1 0
BITMAP
20
00
E0
90
90
90
90
90
E0
ENDCHAR
STARTCHAR 00D4
ENCODING 212
STARTCHAR 00D4
SWIDTH 600 0
DWIDTH 24 0
BBX 4 10 1 0
BITMAP
60
60
00
E0
90
90
90
90
90
E0
ENDCHAR
STARTCHAR 00D5
ENCODING 213
STARTCHAR 00D5
SWIDTH 600 0
DWIDTH 24 0
BBX 4 9 1 1
BITMAP
F0
00
E0
90
90
90
90
90
E0
ENDCHAR
STARTCHAR 00D6
ENCODING 214
STARTCHAR 00D6
SWIDTH 600 0
DWIDTH 24 0
BBX 4 9 1 0
BITMAP
F0
00
E0
90
90
90
90
90
E0
ENDCHAR
STARTCHAR 00D7
ENCODING 215
STARTCHAR 00D7
SWIDTH 600 0
DWIDTH 24 0
BBX 6 4 0 2
BITMAP
48
30
78
CC
ENDCHAR
STARTCHAR 00D8
ENCODING 216
STARTCHAR 00D8
SWIDTH 600 0
DWIDTH 24 0
BBX 4 7 1 0
BITMAP
F0
B0
B0
D0
D0
D0
E0
ENDCHAR
STARTCHAR 00D9
ENCODING 217
STARTCHAR 00D9
SWIDTH 600 0
DWIDTH 24 0
BBX 5 9 1 0
BITMAP
20
00
D8
48
48
48
48
48
70
ENDCHAR
STARTCHAR 00DA
ENCODING 218
STARTCHAR 00DA
SWIDTH 600 0
DWIDTH 24 0
BBX 5 9 1 0
BITMAP
30
00
D8
48
48
48
48
48
70
ENDCHAR
STARTCHAR 00DB
ENCODING 219
STARTCHAR 00DB
SWIDTH 600 0
DWIDTH 24 0
BBX 5 10 1 0
BITMAP
20
50
00
D8
48
48
48
48
48
70
ENDCHAR
STARTCHAR 00DC
ENCODING 220
STARTCHAR 00DC
SWIDTH 600 0
DWIDTH 24 0
BBX 5 9 1 0
BITMAP
78
00
D8
48
48
48
48
48
70
ENDCHAR
STARTCHAR 00DD
ENCODING 221
STARTCHAR 00DD
SWIDTH 600 0
DWIDTH 24 0
BBX 5 9 1 0
BITMAP
30
00
D8
50
70
20
20
20
70
ENDCHAR
STARTCHAR 00DE
ENCODING 222
STARTCHAR 00DE
SWIDTH 600 0
DWIDTH 24 0
BBX 5 7 1 0
BITMAP
C0
40
70
48
78
40
C0
ENDCHAR
STARTCHAR 00DF
ENCODING 223
STARTCHAR 00DF
SWIDTH 600 0
DWIDTH 24 0
BBX 5 7 0 0
BITMAP
70
48
48
50
48
48
F0
ENDCHAR
STARTCHAR 00E0
ENCODING 224
STARTCHAR 00E0
SWIDTH 600 0
DWIDTH 24 0
BBX 5 7 1 0
BITMAP
60
20
70
90
78
98
F8
ENDCHAR
STARTCHAR 00E1
ENCODING 225
STARTCHAR 00E1
SWIDTH 600 0
DWIDTH 24 0
BBX 5 7 1 0
BITMAP
30
00
70
90
78
98
F8
ENDCHAR
STARTCHAR 00E2
ENCODING 226
STARTCHAR 00E2
SWIDTH 600 0
DWIDTH 24 0
BBX 5 8 1 0
BITMAP
20
50
00
70
90
78
98
F8
ENDCHAR
STARTCHAR 00E3
ENCODING 227
STARTCHAR 00E3
SWIDTH 600 0
DWIDTH 24 0
BBX 5 7 1 0
BITMAP
70
00
70
90
78
98
F8
ENDCHAR
STARTCHAR 00E4
ENCODING 228
STARTCHAR 00E4
SWIDTH 600 0
DWIDTH 24 0
BBX 5 7 1 0
BITMAP
F0
00
70
90
78
98
F8
ENDCHAR
STARTCHAR 00E5
ENCODING 229
STARTCHAR 00E5
SWIDTH 600 0
DWIDTH 24 0
BBX 5 7 1 0
BITMAP
60
60
70
90
78
98
F8
ENDCHAR
STARTCHAR 00E6
ENCODING 230
STARTCHAR 00E6
SWIDTH 600 0
DWIDTH 24 0
BBX 5 5 0 0
BITMAP
F8
28
F8
A8
F8
ENDCHAR
STARTCHAR 00E7
ENCODING 231
STARTCHAR 00E7
SWIDTH 600 0
DWIDTH 24 0
BBX 4 7 1 -2
BITMAP
F0
90
80
90
F0
20
70
ENDCHAR
STARTCHAR 00E8
ENCODING 232
STARTCHAR 00E8
SWIDTH 600 0
DWIDTH 24 0
BBX 5 7 1 0
BITMAP
60
20
70
90
F8
90
70
ENDCHAR
STARTCHAR 00E9
ENCODING 233
STARTCHAR 00E9
SWIDTH 600 0
DWIDTH 24 0
BBX 5 7 1 0
BITMAP
20
00
70
90
F8
90
70
ENDCHAR
STARTCHAR 00EA
ENCODING 234
STARTCHAR 00EA
SWIDTH 600 0
DWIDTH 24 0
BBX 5 8 1 0
BITMAP
20
70
00
70
90
F8
90
70
ENDCHAR
STARTCHAR 00EB
ENCODING 235
STARTCHAR 00EB
SWIDTH 600 0
DWIDTH 24 0
BBX 5 7 1 0
BITMAP
F0
00
70
90
F8
90
70
ENDCHAR
STARTCHAR 00EC
ENCODING 236
STARTCHAR 00EC
SWIDTH 600 0
DWIDTH 24 0
BBX 4 7 1 0
BITMAP
60
20
E0
20
20
20
F0
ENDCHAR
STARTCHAR 00ED
ENCODING 237
STARTCHAR 00ED
SWIDTH 600 0
DWIDTH 24 0
BBX 4 7 1 0
BITMAP
20
00
E0
20
20
20
F0
ENDCHAR
STARTCHAR 00EE
ENCODING 238
STARTCHAR 00EE
SWIDTH 600 0
DWIDTH 24 0
BBX 4 8 1 0
BITMAP
20
50
00
E0
20
20
20
F0
ENDCHAR
STARTCHAR 00EF
ENCODING 239
STARTCHAR 00EF
SWIDTH 600 0
DWIDTH 24 0
BBX 4 7 1 0
BITMAP
F0
00
E0
20
20
20
F0
ENDCHAR
STARTCHAR 00F0
ENCODING 240
STARTCHAR 00F0
SWIDTH 600 0
DWIDTH 24 0
BBX 5 7 1 0
BITMAP
60
70
10
F0
98
90
70
ENDCHAR
STARTCHAR 00F1
ENCODING 241
STARTCHAR 00F1
SWIDTH 600 0
DWIDTH 24 0
BBX 5 7 1 0
BITMAP
68
10
F8
48
48
48
D8
ENDCHAR
STARTCHAR 00F2
ENCODING 242
STARTCHAR 00F2
SWIDTH 600 0
DWIDTH 24 0
BBX 4 7 1 0
BITMAP
40
00
E0
90
90
90
E0
ENDCHAR
STARTCHAR 00F3
ENCODING 243
STARTCHAR 00F3
SWIDTH 600 0
DWIDTH 24 0
BBX 4 7 1 0
BITMAP
20
00
E0
90
90
90
E0
ENDCHAR
STARTCHAR 00F4
ENCODING 244
STARTCHAR 00F4
SWIDTH 600 0
DWIDTH 24 0
BBX 4 8 1 0
BITMAP
60
60
00
E0
90
90
90
E0
ENDCHAR
STARTCHAR 00F5
ENCODING 245
STARTCHAR 00F5
SWIDTH 600 0
DWIDTH 24 0
BBX 4 7 1 0
BITMAP
D0
20
E0
90
90
90
E0
ENDCHAR
STARTCHAR 00F6
ENCODING 246
STARTCHAR 00F6
SWIDTH 600 0
DWIDTH 24 0
BBX 4 7 1 0
BITMAP
F0
00
E0
90
90
90
E0
ENDCHAR
STARTCHAR 00F7
ENCODING 247
STARTCHAR 00F7
SWIDTH 600 0
DWIDTH 24 0
BBX 5 5 1 1
BITMAP
20
00
F8
00
20
ENDCHAR
STARTCHAR 00F8
ENCODING 248
STARTCHAR 00F8
SWIDTH 600 0
DWIDTH 24 0
BBX 4 5 1 0
BITMAP
F0
B0
D0
D0
E0
ENDCHAR
STARTCHAR 00F9
ENCODING 249
STARTCHAR 00F9
SWIDTH 600 0
DWIDTH 24 0
BBX 5 7 0 0
BITMAP
20
00
D8
48
48
48
78
ENDCHAR
STARTCHAR 00FA
ENCODING 250
STARTCHAR 00FA
SWIDTH 600 0
DWIDTH 24 0
BBX 5 7 0 0
BITMAP
10
00
D8
48
48
48
78
ENDCHAR
STARTCHAR 00FB
ENCODING 251
STARTCHAR 00FB
SWIDTH 600 0
DWIDTH 24 0
BBX 5 8 0 0
BITMAP
30
70
00
D8
48
48
48
78
ENDCHAR
STARTCHAR 00FC
ENCODING 252
STARTCHAR 00FC
SWIDTH 600 0
DWIDTH 24 0
BBX 5 7 0 0
BITMAP
78
00
D8
48
48
48
78
ENDCHAR
STARTCHAR 00FD
ENCODING 253
STARTCHAR 00FD
SWIDTH 600 0
DWIDTH 24 0
BBX 5 9 1 -2
BITMAP
30
00
D8
50
50
70
20
20
E0
ENDCHAR
STARTCHAR 00FE
ENCODING 254
STARTCHAR 00FE
SWIDTH 600 0
DWIDTH 24 0
BBX 5 9 1 -2
BITMAP
C0
40
78
48
48
48
78
40
C0
ENDCHAR
STARTCHAR 00FF
ENCODING 255
STARTCHAR 00FF
SWIDTH 600 0
DWIDTH 24 0
BBX 5 9 1 -2
BITMAP
78
00
D8
50
50
70
20
20
E0
ENDCHAR
ENDFONT
