STARTFONT 2.1
COMMENT
COMMENT Converted from OpenType font "IosevkaCustomNerdFontMono-Bold.ttf" by "otf2bdf 3.0".
COMMENT
FONT -FreeType-IosevkaCustom Nerd Font Mono-Bold-R-Normal--16-160-72-72-C-80-ISO10646-1
SIZE 16 72 72
FONTBOUNDINGBOX 38 32 -19 -11
STARTPROPERTIES 19
FOUNDRY "FreeType"
FAMILY_NAME "IosevkaCustom Nerd Font Mono"
WEIGHT_NAME "Bold"
SLANT "R"
SETWIDTH_NAME "Normal"
ADD_STYLE_NAME ""
PIXEL_SIZE 16
POINT_SIZE 160
RESOLUTION_X 72
RESOLUTION_Y 72
SPACING "C"
AVERAGE_WIDTH 80
CHARSET_REGISTRY "ISO10646"
CHARSET_ENCODING "1"
FONT_ASCENT 15
FONT_DESCENT 4
COPYRIGHT "Copyright 2015-2026, Renzhi Li (aka. Belleve Invis, belleve@typeof.net)."
_OTF_FONTFILE "IosevkaCustomNerdFontMono-Bold.ttf"
_OTF_PSNAME "IosevkaCustomNFM-Bold"
ENDPROPERTIES
CHARS 5707
STARTCHAR 000D
ENCODING 13
STARTCHAR 000D
SWIDTH 625 0
DWIDTH 38 0
BBX 0 0 0 0
BITMAP
ENDCHAR
STARTCHAR 0020
ENCODING 32
STARTCHAR 0020
SWIDTH 625 0
DWIDTH 38 0
BBX 0 0 0 0
BITMAP
ENDCHAR
STARTCHAR 0021
ENCODING 33
STARTCHAR 0021
SWIDTH 625 0
DWIDTH 38 0
BBX 2 13 4 0
BITMAP
C0
C0
C0
C0
C0
C0
C0
C0
00
00
C0
C0
C0
ENDCHAR
STARTCHAR 0022
ENCODING 34
STARTCHAR 0022
SWIDTH 625 0
DWIDTH 38 0
BBX 6 6 2 8
BITMAP
CC
CC
CC
CC
CC
CC
ENDCHAR
STARTCHAR 0023
ENCODING 35
STARTCHAR 0023
SWIDTH 625 0
DWIDTH 38 0
BBX 9 13 1 0
BITMAP
1B00
1B00
1300
1300
7F80
7F80
3200
2600
FF00
FF00
6400
6C00
6C00
ENDCHAR
STARTCHAR 0024
ENCODING 36
STARTCHAR 0024
SWIDTH 625 0
DWIDTH 38 0
BBX 7 16 1 -2
BITMAP
30
30
76
FE
B6
B0
F0
7C
3C
36
F6
FE
FC
30
30
30
ENDCHAR
STARTCHAR 0025
ENCODING 37
STARTCHAR 0025
SWIDTH 625 0
DWIDTH 38 0
BBX 9 13 1 0
BITMAP
6300
F300
F600
F600
FC00
FC00
7800
1F00
3F80
3D80
6D80
6D80
C700
ENDCHAR
STARTCHAR 0026
ENCODING 38
STARTCHAR 0026
SWIDTH 625 0
DWIDTH 38 0
BBX 8 13 1 0
BITMAP
3C
7E
C6
C0
C0
7F
7F
E6
C6
C6
C6
FE
7E
ENDCHAR
STARTCHAR 0027
ENCODING 39
STARTCHAR 0027
SWIDTH 625 0
DWIDTH 38 0
BBX 2 6 4 8
BITMAP
C0
C0
C0
C0
C0
C0
ENDCHAR
STARTCHAR 0028
ENCODING 40
STARTCHAR 0028
SWIDTH 625 0
DWIDTH 38 0
BBX 6 17 2 -3
BITMAP
1C
3C
60
C0
C0
C0
C0
C0
C0
C0
C0
C0
C0
C0
60
3C
1C
ENDCHAR
STARTCHAR 0029
ENCODING 41
STARTCHAR 0029
SWIDTH 625 0
DWIDTH 38 0
BBX 6 17 2 -3
BITMAP
E0
F0
18
1C
0C
0C
0C
0C
0C
0C
0C
0C
0C
0C
18
F0
E0
ENDCHAR
STARTCHAR 002A
ENCODING 42
STARTCHAR 002A
SWIDTH 625 0
DWIDTH 38 0
BBX 8 8 1 5
BITMAP
18
18
FF
7C
3C
FF
18
18
ENDCHAR
STARTCHAR 002B
ENCODING 43
STARTCHAR 002B
SWIDTH 625 0
DWIDTH 38 0
BBX 7 8 1 2
BITMAP
30
30
30
FE
FE
30
30
30
ENDCHAR
STARTCHAR 002C
ENCODING 44
STARTCHAR 002C
SWIDTH 625 0
DWIDTH 38 0
BBX 3 6 3 -4
BITMAP
E0
E0
E0
60
40
C0
ENDCHAR
STARTCHAR 002D
ENCODING 45
STARTCHAR 002D
SWIDTH 625 0
DWIDTH 38 0
BBX 7 2 1 5
BITMAP
FE
FE
ENDCHAR
STARTCHAR 002E
ENCODING 46
STARTCHAR 002E
SWIDTH 625 0
DWIDTH 38 0
BBX 3 3 3 0
BITMAP
E0
E0
E0
ENDCHAR
STARTCHAR 002F
ENCODING 47
STARTCHAR 002F
SWIDTH 625 0
DWIDTH 38 0
BBX 7 17 1 -2
BITMAP
06
06
06
0C
0C
0C
0C
18
18
18
30
30
30
60
60
60
C0
ENDCHAR
STARTCHAR 0030
ENCODING 48
STARTCHAR 0030
SWIDTH 625 0
DWIDTH 38 0
BBX 7 13 1 0
BITMAP
38
7C
C6
C6
CE
DE
D6
F6
E6
C6
C6
7C
38
ENDCHAR
STARTCHAR 0031
ENCODING 49
STARTCHAR 0031
SWIDTH 625 0
DWIDTH 38 0
BBX 6 13 2 0
BITMAP
30
70
F0
B0
30
30
30
30
30
30
30
FC
FC
ENDCHAR
STARTCHAR 0032
ENCODING 50
STARTCHAR 0032
SWIDTH 625 0
DWIDTH 38 0
BBX 7 13 1 0
BITMAP
78
FC
C6
06
06
0E
0C
18
38
70
66
FE
FE
ENDCHAR
STARTCHAR 0033
ENCODING 51
STARTCHAR 0033
SWIDTH 625 0
DWIDTH 38 0
BBX 7 13 1 0
BITMAP
FE
FE
0C
18
30
3C
3C
06
06
06
C6
FC
78
ENDCHAR
STARTCHAR 0034
ENCODING 52
STARTCHAR 0034
SWIDTH 625 0
DWIDTH 38 0
BBX 7 13 1 0
BITMAP
0C
18
18
30
30
20
6C
4C
CC
FE
FE
1E
1E
ENDCHAR
STARTCHAR 0035
ENCODING 53
STARTCHAR 0035
SWIDTH 625 0
DWIDTH 38 0
BBX 6 13 2 0
BITMAP
FC
FC
CC
C0
C0
F0
F8
0C
0C
0C
CC
F8
78
ENDCHAR
STARTCHAR 0036
ENCODING 54
STARTCHAR 0036
SWIDTH 625 0
DWIDTH 38 0
BBX 7 13 1 0
BITMAP
3C
7E
C6
C0
C0
DC
FE
C6
C6
C6
C6
7C
38
ENDCHAR
STARTCHAR 0037
ENCODING 55
STARTCHAR 0037
SWIDTH 625 0
DWIDTH 38 0
BBX 7 13 1 0
BITMAP
FE
FE
C6
04
0C
0C
0C
18
18
18
30
30
30
ENDCHAR
STARTCHAR 0038
ENCODING 56
STARTCHAR 0038
SWIDTH 625 0
DWIDTH 38 0
BBX 7 13 1 0
BITMAP
7C
7C
C6
C6
EE
7C
38
6C
C6
C6
C6
FE
78
ENDCHAR
STARTCHAR 0039
ENCODING 57
STARTCHAR 0039
SWIDTH 625 0
DWIDTH 38 0
BBX 7 13 1 0
BITMAP
38
7C
C6
C6
C6
C6
FE
76
06
06
C6
FC
78
ENDCHAR
STARTCHAR 003A
ENCODING 58
STARTCHAR 003A
SWIDTH 625 0
DWIDTH 38 0
BBX 3 9 3 0
BITMAP
E0
E0
E0
00
00
00
E0
E0
E0
ENDCHAR
STARTCHAR 003B
ENCODING 59
STARTCHAR 003B
SWIDTH 625 0
DWIDTH 38 0
BBX 3 12 3 -4
BITMAP
E0
E0
E0
00
00
00
E0
E0
E0
60
40
C0
ENDCHAR
STARTCHAR 003C
ENCODING 60
STARTCHAR 003C
SWIDTH 625 0
DWIDTH 38 0
BBX 7 10 1 1
BITMAP
02
0E
1C
70
E0
C0
60
38
0E
06
ENDCHAR
STARTCHAR 003D
ENCODING 61
STARTCHAR 003D
SWIDTH 625 0
DWIDTH 38 0
BBX 7 5 1 3
BITMAP
FE
FE
00
FE
FE
ENDCHAR
STARTCHAR 003E
ENCODING 62
STARTCHAR 003E
SWIDTH 625 0
DWIDTH 38 0
BBX 7 10 1 1
BITMAP
80
E0
70
1C
0E
06
0C
38
E0
C0
ENDCHAR
STARTCHAR 003F
ENCODING 63
STARTCHAR 003F
SWIDTH 625 0
DWIDTH 38 0
BBX 7 13 2 0
BITMAP
78
FC
C6
06
06
0E
3C
38
30
00
30
30
30
ENDCHAR
STARTCHAR 0040
ENCODING 64
STARTCHAR 0040
SWIDTH 625 0
DWIDTH 38 0
BBX 9 15 1 -2
BITMAP
3E00
7F00
C380
C180
DD80
FD80
FD80
FD80
FD80
FD80
FF80
DF00
C000
7F00
3F00
ENDCHAR
STARTCHAR 0041
ENCODING 65
STARTCHAR 0041
SWIDTH 625 0
DWIDTH 38 0
BBX 8 13 1 0
BITMAP
18
3C
3C
3C
3C
24
24
7E
7E
66
42
E7
E7
ENDCHAR
STARTCHAR 0042
ENCODING 66
STARTCHAR 0042
SWIDTH 625 0
DWIDTH 38 0
BBX 8 13 0 0
BITMAP
FC
FE
63
63
63
67
7E
7E
63
63
63
FF
FC
ENDCHAR
STARTCHAR 0043
ENCODING 67
STARTCHAR 0043
SWIDTH 625 0
DWIDTH 38 0
BBX 7 13 1 0
BITMAP
3C
7E
C6
C0
C0
C0
C0
C0
C0
C0
C6
7E
3C
ENDCHAR
STARTCHAR 0044
ENCODING 68
STARTCHAR 0044
SWIDTH 625 0
DWIDTH 38 0
BBX 8 13 0 0
BITMAP
FC
FE
63
63
63
63
63
63
63
63
63
FE
FC
ENDCHAR
STARTCHAR 0045
ENCODING 69
STARTCHAR 0045
SWIDTH 625 0
DWIDTH 38 0
BBX 8 13 0 0
BITMAP
FF
FF
63
60
60
7C
7C
60
60
60
63
FF
FF
ENDCHAR
STARTCHAR 0046
ENCODING 70
STARTCHAR 0046
SWIDTH 625 0
DWIDTH 38 0
BBX 7 13 1 0
BITMAP
FE
FE
66
60
60
78
78
60
60
60
60
F0
F0
ENDCHAR
STARTCHAR 0047
ENCODING 71
STARTCHAR 0047
SWIDTH 625 0
DWIDTH 38 0
BBX 7 13 1 0
BITMAP
7E
FE
C6
C0
C0
C0
DE
DE
C6
C6
C6
FE
76
ENDCHAR
STARTCHAR 0048
ENCODING 72
STARTCHAR 0048
SWIDTH 625 0
DWIDTH 38 0
BBX 8 13 1 0
BITMAP
E7
E7
63
63
63
63
7F
7F
63
63
63
E7
E7
ENDCHAR
STARTCHAR 0049
ENCODING 73
STARTCHAR 0049
SWIDTH 625 0
DWIDTH 38 0
BBX 6 13 2 0
BITMAP
FC
FC
30
30
30
30
30
30
30
30
30
FC
FC
ENDCHAR
STARTCHAR 004A
ENCODING 74
STARTCHAR 004A
SWIDTH 625 0
DWIDTH 38 0
BBX 7 13 1 0
BITMAP
3E
3E
06
06
06
06
06
06
06
06
C6
FC
78
ENDCHAR
STARTCHAR 004B
ENCODING 75
STARTCHAR 004B
SWIDTH 625 0
DWIDTH 38 0
BBX 8 13 1 0
BITMAP
E7
E7
6C
68
78
70
70
78
78
6C
6C
E7
E7
ENDCHAR
STARTCHAR 004C
ENCODING 76
STARTCHAR 004C
SWIDTH 625 0
DWIDTH 38 0
BBX 7 13 1 0
BITMAP
F0
F0
60
60
60
60
60
60
60
60
66
FE
FE
ENDCHAR
STARTCHAR 004D
ENCODING 77
STARTCHAR 004D
SWIDTH 625 0
DWIDTH 38 0
BBX 9 13 1 0
BITMAP
E380
E380
E380
F780
F780
D580
D580
DD80
C980
C180
C180
E380
E380
ENDCHAR
STARTCHAR 004E
ENCODING 78
STARTCHAR 004E
SWIDTH 625 0
DWIDTH 38 0
BBX 8 13 1 0
BITMAP
E7
E7
73
73
73
7B
6B
6F
6F
67
67
E7
E3
ENDCHAR
STARTCHAR 004F
ENCODING 79
STARTCHAR 004F
SWIDTH 625 0
DWIDTH 38 0
BBX 7 13 1 0
BITMAP
38
7C
C6
C6
C6
C6
C6
C6
C6
C6
C6
7C
38
ENDCHAR
STARTCHAR 0050
ENCODING 80
STARTCHAR 0050
SWIDTH 625 0
DWIDTH 38 0
BBX 7 13 1 0
BITMAP
FC
FC
66
66
66
66
7E
7C
60
60
60
F0
F0
ENDCHAR
STARTCHAR 0051
ENCODING 81
STARTCHAR 0051
SWIDTH 625 0
DWIDTH 38 0
BBX 8 14 1 -1
BITMAP
38
7C
C6
C6
C6
C6
C6
C6
D6
DE
CE
7C
3E
03
ENDCHAR
STARTCHAR 0052
ENCODING 82
STARTCHAR 0052
SWIDTH 625 0
DWIDTH 38 0
BBX 9 13 1 0
BITMAP
FC00
FE00
6200
6200
6200
6200
7E00
7C00
6C00
6C00
6E00
E780
E780
ENDCHAR
STARTCHAR 0053
ENCODING 83
STARTCHAR 0053
SWIDTH 625 0
DWIDTH 38 0
BBX 7 13 1 0
BITMAP
76
FE
C6
C0
C0
70
78
1C
0E
06
C6
FE
FC
ENDCHAR
STARTCHAR 0054
ENCODING 84
STARTCHAR 0054
SWIDTH 625 0
DWIDTH 38 0
BBX 7 13 1 0
BITMAP
FE
FE
F6
30
30
30
30
30
30
30
30
7C
7C
ENDCHAR
STARTCHAR 0055
ENCODING 85
STARTCHAR 0055
SWIDTH 625 0
DWIDTH 38 0
BBX 8 13 1 0
BITMAP
E7
E7
63
63
63
63
63
63
63
63
63
3E
1C
ENDCHAR
STARTCHAR 0056
ENCODING 86
STARTCHAR 0056
SWIDTH 625 0
DWIDTH 38 0
BBX 8 13 1 0
BITMAP
E7
E7
66
66
66
66
24
3C
3C
3C
3C
18
18
ENDCHAR
STARTCHAR 0057
ENCODING 87
STARTCHAR 0057
SWIDTH 625 0
DWIDTH 38 0
BBX 9 13 1 0
BITMAP
E380
E380
4100
4100
4900
5F00
7F00
7700
7700
7700
3600
3600
3600
ENDCHAR
STARTCHAR 0058
ENCODING 88
STARTCHAR 0058
SWIDTH 625 0
DWIDTH 38 0
BBX 8 13 1 0
BITMAP
E7
E7
66
3C
3C
1C
18
3C
3C
3C
66
E7
E7
ENDCHAR
STARTCHAR 0059
ENCODING 89
STARTCHAR 0059
SWIDTH 625 0
DWIDTH 38 0
BBX 8 13 1 0
BITMAP
E7
E7
66
36
3C
3C
18
18
18
18
18
3E
3E
ENDCHAR
STARTCHAR 005A
ENCODING 90
STARTCHAR 005A
SWIDTH 625 0
DWIDTH 38 0
BBX 7 13 1 0
BITMAP
FE
FE
CE
0C
1C
18
38
30
70
60
E6
FE
FE
ENDCHAR
STARTCHAR 005B
ENCODING 91
STARTCHAR 005B
SWIDTH 625 0
DWIDTH 38 0
BBX 5 17 2 -2
BITMAP
F8
F8
C0
C0
C0
C0
C0
C0
C0
C0
C0
C0
C0
C0
C0
F8
F8
ENDCHAR
STARTCHAR 005C
ENCODING 92
STARTCHAR 005C
SWIDTH 625 0
DWIDTH 38 0
BBX 7 17 1 -2
BITMAP
C0
40
60
60
60
30
30
30
18
18
18
0C
0C
0C
06
06
06
ENDCHAR
STARTCHAR 005D
ENCODING 93
STARTCHAR 005D
SWIDTH 625 0
DWIDTH 38 0
BBX 5 17 2 -2
BITMAP
F8
F8
18
18
18
18
18
18
18
18
18
18
18
18
18
F8
F8
ENDCHAR
STARTCHAR 005E
ENCODING 94
STARTCHAR 005E
SWIDTH 625 0
DWIDTH 38 0
BBX 7 5 1 8
BITMAP
38
3C
6E
C6
42
ENDCHAR
STARTCHAR 005F
ENCODING 95
STARTCHAR 005F
SWIDTH 625 0
DWIDTH 38 0
BBX 7 2 1 -2
BITMAP
FE
FE
ENDCHAR
STARTCHAR 0060
ENCODING 96
STARTCHAR 0060
SWIDTH 625 0
DWIDTH 38 0
BBX 4 5 2 9
BITMAP
40
E0
60
30
10
ENDCHAR
STARTCHAR 0061
ENCODING 97
STARTCHAR 0061
SWIDTH 625 0
DWIDTH 38 0
BBX 8 9 1 0
BITMAP
7C
FE
C6
3E
7E
C6
C6
FF
77
ENDCHAR
STARTCHAR 0062
ENCODING 98
STARTCHAR 0062
SWIDTH 625 0
DWIDTH 38 0
BBX 8 13 1 0
BITMAP
E0
E0
60
60
6E
7F
63
63
63
63
63
FE
EE
ENDCHAR
STARTCHAR 0063
ENCODING 99
STARTCHAR 0063
SWIDTH 625 0
DWIDTH 38 0
BBX 7 9 1 0
BITMAP
7E
FE
C6
C0
C0
C0
C6
FE
7C
ENDCHAR
STARTCHAR 0064
ENCODING 100
STARTCHAR 0064
SWIDTH 625 0
DWIDTH 38 0
BBX 8 13 1 0
BITMAP
0E
0E
06
06
76
FE
C6
C6
C6
C6
C6
FF
77
ENDCHAR
STARTCHAR 0065
ENCODING 101
STARTCHAR 0065
SWIDTH 625 0
DWIDTH 38 0
BBX 7 9 1 0
BITMAP
7C
7E
C6
FE
FE
C0
C6
FE
7C
ENDCHAR
STARTCHAR 0066
ENCODING 102
STARTCHAR 0066
SWIDTH 625 0
DWIDTH 38 0
BBX 7 13 2 0
BITMAP
1C
3E
36
30
30
FC
FC
30
30
30
30
FC
FC
ENDCHAR
STARTCHAR 0067
ENCODING 103
STARTCHAR 0067
SWIDTH 625 0
DWIDTH 38 0
BBX 7 13 1 -4
BITMAP
7E
FE
C6
C6
FE
FC
C0
F8
7E
06
C6
FE
7C
ENDCHAR
STARTCHAR 0068
ENCODING 104
STARTCHAR 0068
SWIDTH 625 0
DWIDTH 38 0
BBX 8 13 1 0
BITMAP
E0
E0
60
60
6E
7F
63
63
63
63
63
E7
E7
ENDCHAR
STARTCHAR 0069
ENCODING 105
STARTCHAR 0069
SWIDTH 625 0
DWIDTH 38 0
BBX 6 13 2 0
BITMAP
38
38
30
00
F0
F0
30
30
30
30
30
FC
FC
ENDCHAR
STARTCHAR 006A
ENCODING 106
STARTCHAR 006A
SWIDTH 625 0
DWIDTH 38 0
BBX 7 17 0 -4
BITMAP
06
06
06
00
1E
1E
06
06
06
06
06
06
06
06
C6
7C
3C
ENDCHAR
STARTCHAR 006B
ENCODING 107
STARTCHAR 006B
SWIDTH 625 0
DWIDTH 38 0
BBX 8 13 1 0
BITMAP
E0
E0
60
60
67
6F
6C
78
78
78
6C
EF
E7
ENDCHAR
STARTCHAR 006C
ENCODING 108
STARTCHAR 006C
SWIDTH 625 0
DWIDTH 38 0
BBX 6 13 2 0
BITMAP
F0
F0
30
30
30
30
30
30
30
30
30
FC
FC
ENDCHAR
STARTCHAR 006D
ENCODING 109
STARTCHAR 006D
SWIDTH 625 0
DWIDTH 38 0
BBX 10 9 0 0
BITMAP
FB00
FF80
6D80
6D80
6D80
6D80
6D80
EDC0
EDC0
ENDCHAR
STARTCHAR 006E
ENCODING 110
STARTCHAR 006E
SWIDTH 625 0
DWIDTH 38 0
BBX 8 9 1 0
BITMAP
EE
FF
63
63
63
63
63
E7
E7
ENDCHAR
STARTCHAR 006F
ENCODING 111
STARTCHAR 006F
SWIDTH 625 0
DWIDTH 38 0
BBX 7 9 1 0
BITMAP
78
7C
C6
C6
C6
C6
C6
7C
7C
ENDCHAR
STARTCHAR 0070
ENCODING 112
STARTCHAR 0070
SWIDTH 625 0
DWIDTH 38 0
BBX 8 13 1 -4
BITMAP
EE
FF
63
63
63
63
63
7E
6E
60
60
F0
F0
ENDCHAR
STARTCHAR 0071
ENCODING 113
STARTCHAR 0071
SWIDTH 625 0
DWIDTH 38 0
BBX 8 13 1 -4
BITMAP
77
FF
C6
C6
C6
C6
C6
FE
76
06
06
0F
0F
ENDCHAR
STARTCHAR 0072
ENCODING 114
STARTCHAR 0072
SWIDTH 625 0
DWIDTH 38 0
BBX 7 9 1 0
BITMAP
EE
FE
66
60
60
60
60
F8
F8
ENDCHAR
STARTCHAR 0073
ENCODING 115
STARTCHAR 0073
SWIDTH 625 0
DWIDTH 38 0
BBX 7 9 1 0
BITMAP
7E
FE
C6
E0
7C
0E
C6
FE
FC
ENDCHAR
STARTCHAR 0074
ENCODING 116
STARTCHAR 0074
SWIDTH 625 0
DWIDTH 38 0
BBX 7 13 1 0
BITMAP
30
30
30
30
FC
FC
30
30
30
30
36
3C
1C
ENDCHAR
STARTCHAR 0075
ENCODING 117
STARTCHAR 0075
SWIDTH 625 0
DWIDTH 38 0
BBX 9 9 0 0
BITMAP
E700
E700
6300
6300
6300
6300
6300
7F80
3B80
ENDCHAR
STARTCHAR 0076
ENCODING 118
STARTCHAR 0076
SWIDTH 625 0
DWIDTH 38 0
BBX 8 9 1 0
BITMAP
E7
E7
66
66
24
3C
3C
3C
18
ENDCHAR
STARTCHAR 0077
ENCODING 119
STARTCHAR 0077
SWIDTH 625 0
DWIDTH 38 0
BBX 9 9 1 0
BITMAP
E380
E380
4900
5D00
7700
7700
7700
3600
3600
ENDCHAR
STARTCHAR 0078
ENCODING 120
STARTCHAR 0078
SWIDTH 625 0
DWIDTH 38 0
BBX 8 9 1 0
BITMAP
E7
E7
3C
3C
18
3C
3C
E7
E7
ENDCHAR
STARTCHAR 0079
ENCODING 121
STARTCHAR 0079
SWIDTH 625 0
DWIDTH 38 0
BBX 8 13 1 -4
BITMAP
E7
E7
66
66
24
3C
3C
38
18
18
38
70
60
ENDCHAR
STARTCHAR 007A
ENCODING 122
STARTCHAR 007A
SWIDTH 625 0
DWIDTH 38 0
BBX 7 9 1 0
BITMAP
FE
FE
CC
1C
38
70
66
FE
FE
ENDCHAR
STARTCHAR 007B
ENCODING 123
STARTCHAR 007B
SWIDTH 625 0
DWIDTH 38 0
BBX 6 17 2 -3
BITMAP
0C
1C
38
30
30
30
30
70
E0
E0
30
30
30
30
30
1C
0C
ENDCHAR
STARTCHAR 007C
ENCODING 124
STARTCHAR 007C
SWIDTH 625 0
DWIDTH 38 0
BBX 2 16 4 -2
BITMAP
C0
C0
C0
C0
C0
C0
C0
C0
C0
C0
C0
C0
C0
C0
C0
C0
ENDCHAR
STARTCHAR 007D
ENCODING 125
STARTCHAR 007D
SWIDTH 625 0
DWIDTH 38 0
BBX 6 17 2 -3
BITMAP
C0
E0
70
30
30
30
30
38
1C
1C
30
30
30
30
30
E0
C0
ENDCHAR
STARTCHAR 007E
ENCODING 126
STARTCHAR 007E
SWIDTH 625 0
DWIDTH 38 0
BBX 8 4 1 3
BITMAP
73
F3
DE
8C
ENDCHAR
STARTCHAR 00A0
ENCODING 160
STARTCHAR 00A0
SWIDTH 625 0
DWIDTH 38 0
BBX 0 0 0 0
BITMAP
ENDCHAR
STARTCHAR 00A1
ENCODING 161
STARTCHAR 00A1
SWIDTH 625 0
DWIDTH 38 0
BBX 2 13 4 -4
BITMAP
C0
C0
C0
00
00
C0
C0
C0
C0
C0
C0
C0
C0
ENDCHAR
STARTCHAR 00A2
ENCODING 162
STARTCHAR 00A2
SWIDTH 625 0
DWIDTH 38 0
BBX 7 13 1 -2
BITMAP
18
18
7E
FE
DE
D8
D8
D8
DE
FE
7C
18
18
ENDCHAR
STARTCHAR 00A3
ENCODING 163
STARTCHAR 00A3
SWIDTH 625 0
DWIDTH 38 0
BBX 7 13 1 0
BITMAP
3C
7C
66
60
60
60
F8
F8
60
60
66
FE
FE
ENDCHAR
STARTCHAR 00A4
ENCODING 164
STARTCHAR 00A4
SWIDTH 625 0
DWIDTH 38 0
BBX 9 9 1 1
BITMAP
4100
FF80
7F00
6300
6300
6300
7F00
FF80
4100
ENDCHAR
STARTCHAR 00A5
ENCODING 165
STARTCHAR 00A5
SWIDTH 625 0
DWIDTH 38 0
BBX 8 13 1 0
BITMAP
E7
E7
66
26
3E
3C
1C
7F
7F
7F
7F
3E
3E
ENDCHAR
STARTCHAR 00A6
ENCODING 166
STARTCHAR 00A6
SWIDTH 625 0
DWIDTH 38 0
BBX 2 16 4 -2
BITMAP
C0
C0
C0
C0
C0
C0
C0
00
00
C0
C0
C0
C0
C0
C0
C0
ENDCHAR
STARTCHAR 00A7
ENCODING 167
STARTCHAR 00A7
SWIDTH 625 0
DWIDTH 38 0
BBX 7 17 1 -3
BITMAP
38
7C
C6
C6
C0
F0
7C
CE
C6
C6
FC
3C
06
06
C6
FC
78
ENDCHAR
STARTCHAR 00A8
ENCODING 168
STARTCHAR 00A8
SWIDTH 625 0
DWIDTH 38 0
BBX 6 3 2 10
BITMAP
C8
DC
CC
ENDCHAR
STARTCHAR 00A9
ENCODING 169
STARTCHAR 00A9
SWIDTH 625 0
DWIDTH 38 0
BBX 8 14 1 -1
BITMAP
3C
42
81
BD
A5
A1
A1
A1
A5
B9
81
81
42
3C
ENDCHAR
STARTCHAR 00AA
ENCODING 170
STARTCHAR 00AA
SWIDTH 625 0
DWIDTH 38 0
BBX 6 8 2 3
BITMAP
70
88
78
88
98
EC
00
F8
ENDCHAR
STARTCHAR 00AB
ENCODING 171
STARTCHAR 00AB
SWIDTH 625 0
DWIDTH 38 0
BBX 8 9 1 1
BITMAP
33
36
6C
CC
D8
6C
66
32
02
ENDCHAR
STARTCHAR 00AC
ENCODING 172
STARTCHAR 00AC
SWIDTH 625 0
DWIDTH 38 0
BBX 7 5 1 2
BITMAP
FE
FE
06
06
06
ENDCHAR
STARTCHAR 00AD
ENCODING 173
STARTCHAR 00AD
SWIDTH 625 0
DWIDTH 38 0
BBX 7 2 1 5
BITMAP
FE
FE
ENDCHAR
STARTCHAR 00AE
ENCODING 174
STARTCHAR 00AE
SWIDTH 625 0
DWIDTH 38 0
BBX 8 8 1 7
BITMAP
3C
7A
AD
AD
B9
A9
6E
3C
ENDCHAR
STARTCHAR 00AF
ENCODING 175
STARTCHAR 00AF
SWIDTH 625 0
DWIDTH 38 0
BBX 7 2 1 11
BITMAP
FE
FE
ENDCHAR
STARTCHAR 00B0
ENCODING 176
STARTCHAR 00B0
SWIDTH 625 0
DWIDTH 38 0
BBX 4 5 3 9
BITMAP
60
F0
B0
F0
60
ENDCHAR
STARTCHAR 00B1
ENCODING 177
STARTCHAR 00B1
SWIDTH 625 0
DWIDTH 38 0
BBX 7 10 1 0
BITMAP
30
30
30
FE
FE
30
30
30
FE
FE
ENDCHAR
STARTCHAR 00B2
ENCODING 178
STARTCHAR 00B2
SWIDTH 625 0
DWIDTH 38 0
BBX 6 8 2 5
BITMAP
78
C8
08
18
30
60
CC
FC
ENDCHAR
STARTCHAR 00B3
ENCODING 179
STARTCHAR 00B3
SWIDTH 625 0
DWIDTH 38 0
BBX 5 8 2 5
BITMAP
F8
18
20
70
18
08
D8
70
ENDCHAR
STARTCHAR 00B4
ENCODING 180
STARTCHAR 00B4
SWIDTH 625 0
DWIDTH 38 0
BBX 5 5 3 9
BITMAP
10
38
70
E0
40
ENDCHAR
STARTCHAR 00B5
ENCODING 181
STARTCHAR 00B5
SWIDTH 625 0
DWIDTH 38 0
BBX 9 13 0 -4
BITMAP
E700
E700
6300
6300
6300
6300
6300
7F80
7B80
6000
6000
6000
6000
ENDCHAR
STARTCHAR 00B6
ENCODING 182
STARTCHAR 00B6
SWIDTH 625 0
DWIDTH 38 0
BBX 7 13 2 0
BITMAP
7E
FE
F2
F2
F2
F2
72
12
12
12
12
12
12
ENDCHAR
STARTCHAR 00B7
ENCODING 183
STARTCHAR 00B7
SWIDTH 625 0
DWIDTH 38 0
BBX 3 3 3 4
BITMAP
E0
E0
E0
ENDCHAR
STARTCHAR 00B8
ENCODING 184
STARTCHAR 00B8
SWIDTH 625 0
DWIDTH 38 0
BBX 4 4 3 -4
BITMAP
60
60
F0
E0
ENDCHAR
STARTCHAR 00B9
ENCODING 185
STARTCHAR 00B9
SWIDTH 625 0
DWIDTH 38 0
BBX 5 8 3 5
BITMAP
60
E0
20
20
20
20
20
F8
ENDCHAR
STARTCHAR 00BA
ENCODING 186
STARTCHAR 00BA
SWIDTH 625 0
DWIDTH 38 0
BBX 5 8 2 3
BITMAP
70
D8
88
88
D8
70
00
F8
ENDCHAR
STARTCHAR 00BB
ENCODING 187
STARTCHAR 00BB
SWIDTH 625 0
DWIDTH 38 0
BBX 8 9 1 1
BITMAP
D8
4C
66
36
33
26
6C
C8
08
ENDCHAR
STARTCHAR 00BC
ENCODING 188
STARTCHAR 00BC
SWIDTH 625 0
DWIDTH 38 0
BBX 7 17 1 -3
BITMAP
30
70
30
30
30
30
78
00
FE
FE
00
10
20
58
78
18
18
ENDCHAR
STARTCHAR 00BD
ENCODING 189
STARTCHAR 00BD
SWIDTH 625 0
DWIDTH 38 0
BBX 7 17 1 -3
BITMAP
30
30
30
30
30
30
38
00
FE
FE
38
4C
08
18
30
7C
7C
ENDCHAR
STARTCHAR 00BE
ENCODING 190
STARTCHAR 00BE
SWIDTH 625 0
DWIDTH 38 0
BBX 7 18 1 -3
BITMAP
78
78
18
30
38
08
48
70
00
FE
00
18
10
20
68
78
18
18
ENDCHAR
STARTCHAR 00BF
ENCODING 191
STARTCHAR 00BF
SWIDTH 625 0
DWIDTH 38 0
BBX 7 13 1 -4
BITMAP
18
18
18
00
18
38
78
C0
C0
C0
C6
7E
3C
ENDCHAR
STARTCHAR 00C0
ENCODING 192
STARTCHAR 00C0
SWIDTH 625 0
DWIDTH 38 0
BBX 8 17 1 0
BITMAP
30
38
08
00
18
3C
3C
3C
3C
24
24
7E
7E
66
42
E7
E7
ENDCHAR
STARTCHAR 00C1
ENCODING 193
STARTCHAR 00C1
SWIDTH 625 0
DWIDTH 38 0
BBX 8 17 1 0
BITMAP
0C
1C
10
00
18
3C
3C
3C
3C
24
24
7E
7E
66
42
E7
E7
ENDCHAR
STARTCHAR 00C2
ENCODING 194
STARTCHAR 00C2
SWIDTH 625 0
DWIDTH 38 0
BBX 8 17 1 0
BITMAP
18
3C
66
00
18
3C
3C
3C
3C
24
24
7E
7E
66
42
E7
E7
ENDCHAR
STARTCHAR 00C3
ENCODING 195
STARTCHAR 00C3
SWIDTH 625 0
DWIDTH 38 0
BBX 8 16 1 1
BITMAP
7E
4C
00
18
3C
3C
3C
3C
24
24
7E
7E
66
42
E7
E7
ENDCHAR
STARTCHAR 00C4
ENCODING 196
STARTCHAR 00C4
SWIDTH 625 0
DWIDTH 38 0
BBX 8 17 1 0
BITMAP
64
6E
66
00
18
3C
3C
3C
3C
24
24
7E
7E
66
42
E7
E7
ENDCHAR
STARTCHAR 00C5
ENCODING 197
STARTCHAR 00C5
SWIDTH 625 0
DWIDTH 38 0
BBX 8 17 1 0
BITMAP
18
2C
2C
18
18
3C
3C
3C
3C
24
24
7E
7E
66
42
E7
E7
ENDCHAR
STARTCHAR 00C6
ENCODING 198
STARTCHAR 00C6
SWIDTH 625 0
DWIDTH 38 0
BBX 9 13 1 0
BITMAP
3F80
3F80
1D80
1C00
3C00
3F00
2F00
2C00
7C00
7C00
6D80
EF80
EF80
ENDCHAR
STARTCHAR 00C7
ENCODING 199
STARTCHAR 00C7
SWIDTH 625 0
DWIDTH 38 0
BBX 7 17 1 -4
BITMAP
3C
7E
C6
C0
C0
C0
C0
C0
C0
C0
C6
7E
3C
18
0C
3C
3C
ENDCHAR
STARTCHAR 00C8
ENCODING 200
STARTCHAR 00C8
SWIDTH 625 0
DWIDTH 38 0
BBX 8 17 0 0
BITMAP
30
18
08
00
FF
FF
63
60
60
7C
7C
60
60
60
63
FF
FF
ENDCHAR
STARTCHAR 00C9
ENCODING 201
STARTCHAR 00C9
SWIDTH 625 0
DWIDTH 38 0
BBX 8 17 0 0
BITMAP
0C
0C
18
00
FF
FF
63
60
60
7C
7C
60
60
60
63
FF
FF
ENDCHAR
STARTCHAR 00CA
ENCODING 202
STARTCHAR 00CA
SWIDTH 625 0
DWIDTH 38 0
BBX 8 17 0 0
BITMAP
18
3C
26
00
FF
FF
63
60
60
7C
7C
60
60
60
63
FF
FF
ENDCHAR
STARTCHAR 00CB
ENCODING 203
STARTCHAR 00CB
SWIDTH 625 0
DWIDTH 38 0
BBX 8 17 0 0
BITMAP
64
6E
66
00
FF
FF
63
60
60
7C
7C
60
60
60
63
FF
FF
ENDCHAR
STARTCHAR 00CC
ENCODING 204
STARTCHAR 00CC
SWIDTH 625 0
DWIDTH 38 0
BBX 6 17 2 0
BITMAP
60
30
10
00
FC
FC
30
30
30
30
30
30
30
30
30
FC
FC
ENDCHAR
STARTCHAR 00CD
ENCODING 205
STARTCHAR 00CD
SWIDTH 625 0
DWIDTH 38 0
BBX 6 17 2 0
BITMAP
18
30
20
00
FC
FC
30
30
30
30
30
30
30
30
30
FC
FC
ENDCHAR
STARTCHAR 00CE
ENCODING 206
STARTCHAR 00CE
SWIDTH 625 0
DWIDTH 38 0
BBX 6 17 2 0
BITMAP
30
78
48
00
FC
FC
30
30
30
30
30
30
30
30
30
FC
FC
ENDCHAR
STARTCHAR 00CF
ENCODING 207
STARTCHAR 00CF
SWIDTH 625 0
DWIDTH 38 0
BBX 6 17 2 0
BITMAP
C8
DC
CC
00
FC
FC
30
30
30
30
30
30
30
30
30
FC
FC
ENDCHAR
STARTCHAR 00D0
ENCODING 208
STARTCHAR 00D0
SWIDTH 625 0
DWIDTH 38 0
BBX 8 13 1 0
BITMAP
FC
FE
63
63
63
63
F3
F3
63
63
63
FE
FC
ENDCHAR
STARTCHAR 00D1
ENCODING 209
STARTCHAR 00D1
SWIDTH 625 0
DWIDTH 38 0
BBX 8 17 1 0
BITMAP
10
3B
6E
00
E7
E7
73
73
73
7B
6B
6F
6F
67
67
E7
E3
ENDCHAR
STARTCHAR 00D2
ENCODING 210
STARTCHAR 00D2
SWIDTH 625 0
DWIDTH 38 0
BBX 7 17 1 0
BITMAP
20
30
18
00
38
7C
C6
C6
C6
C6
C6
C6
C6
C6
C6
7C
38
ENDCHAR
STARTCHAR 00D3
ENCODING 211
STARTCHAR 00D3
SWIDTH 625 0
DWIDTH 38 0
BBX 7 17 1 0
BITMAP
08
18
30
00
38
7C
C6
C6
C6
C6
C6
C6
C6
C6
C6
7C
38
ENDCHAR
STARTCHAR 00D4
ENCODING 212
STARTCHAR 00D4
SWIDTH 625 0
DWIDTH 38 0
BBX 7 17 1 0
BITMAP
38
6C
44
00
38
7C
C6
C6
C6
C6
C6
C6
C6
C6
C6
7C
38
ENDCHAR
STARTCHAR 00D5
ENCODING 213
STARTCHAR 00D5
SWIDTH 625 0
DWIDTH 38 0
BBX 7 17 1 0
BITMAP
74
FC
DC
00
38
7C
C6
C6
C6
C6
C6
C6
C6
C6
C6
7C
38
ENDCHAR
STARTCHAR 00D6
ENCODING 214
STARTCHAR 00D6
SWIDTH 625 0
DWIDTH 38 0
BBX 7 17 1 0
BITMAP
64
6E
66
00
38
7C
C6
C6
C6
C6
C6
C6
C6
C6
C6
7C
38
ENDCHAR
STARTCHAR 00D7
ENCODING 215
STARTCHAR 00D7
SWIDTH 625 0
DWIDTH 38 0
BBX 8 9 1 1
BITMAP
83
C6
6E
3C
38
7C
E6
C3
80
ENDCHAR
STARTCHAR 00D8
ENCODING 216
STARTCHAR 00D8
SWIDTH 625 0
DWIDTH 38 0
BBX 7 13 1 0
BITMAP
3E
7C
CE
CE
CE
DE
D6
F6
E6
E6
E6
7C
F8
ENDCHAR
STARTCHAR 00D9
ENCODING 217
STARTCHAR 00D9
SWIDTH 625 0
DWIDTH 38 0
BBX 8 17 1 0
BITMAP
30
18
08
00
E7
E7
63
63
63
63
63
63
63
63
63
3E
1C
ENDCHAR
STARTCHAR 00DA
ENCODING 218
STARTCHAR 00DA
SWIDTH 625 0
DWIDTH 38 0
BBX 8 17 1 0
BITMAP
04
0C
18
00
E7
E7
63
63
63
63
63
63
63
63
63
3E
1C
ENDCHAR
STARTCHAR 00DB
ENCODING 219
STARTCHAR 00DB
SWIDTH 625 0
DWIDTH 38 0
BBX 8 17 1 0
BITMAP
1C
3E
22
00
E7
E7
63
63
63
63
63
63
63
63
63
3E
1C
ENDCHAR
STARTCHAR 00DC
ENCODING 220
STARTCHAR 00DC
SWIDTH 625 0
DWIDTH 38 0
BBX 8 17 1 0
BITMAP
64
6E
66
00
E7
E7
63
63
63
63
63
63
63
63
63
3E
1C
ENDCHAR
STARTCHAR 00DD
ENCODING 221
STARTCHAR 00DD
SWIDTH 625 0
DWIDTH 38 0
BBX 8 17 1 0
BITMAP
0C
1C
18
00
E7
E7
66
36
3C
3C
18
18
18
18
18
3E
3E
ENDCHAR
STARTCHAR 00DE
ENCODING 222
STARTCHAR 00DE
SWIDTH 625 0
DWIDTH 38 0
BBX 7 13 1 0
BITMAP
F0
F0
60
78
7E
66
66
66
7E
7C
60
F0
F0
ENDCHAR
STARTCHAR 00DF
ENCODING 223
STARTCHAR 00DF
SWIDTH 625 0
DWIDTH 38 0
BBX 8 13 0 0
BITMAP
1C
3E
63
63
63
66
6E
6F
63
63
63
FE
FC
ENDCHAR
STARTCHAR 00E0
ENCODING 224
STARTCHAR 00E0
SWIDTH 625 0
DWIDTH 38 0
BBX 8 13 1 0
BITMAP
20
30
18
00
7C
FE
C6
3E
7E
C6
C6
FF
77
ENDCHAR
STARTCHAR 00E1
ENCODING 225
STARTCHAR 00E1
SWIDTH 625 0
DWIDTH 38 0
BBX 8 13 1 0
BITMAP
08
18
30
00
7C
FE
C6
3E
7E
C6
C6
FF
77
ENDCHAR
STARTCHAR 00E2
ENCODING 226
STARTCHAR 00E2
SWIDTH 625 0
DWIDTH 38 0
BBX 8 13 1 0
BITMAP
38
6C
44
00
7C
FE
C6
3E
7E
C6
C6
FF
77
ENDCHAR
STARTCHAR 00E3
ENCODING 227
STARTCHAR 00E3
SWIDTH 625 0
DWIDTH 38 0
BBX 8 13 1 0
BITMAP
76
FC
4C
00
7C
FE
C6
3E
7E
C6
C6
FF
77
ENDCHAR
STARTCHAR 00E4
ENCODING 228
STARTCHAR 00E4
SWIDTH 625 0
DWIDTH 38 0
BBX 8 13 1 0
BITMAP
66
6E
64
00
7C
FE
C6
3E
7E
C6
C6
FF
77
ENDCHAR
STARTCHAR 00E5
ENCODING 229
STARTCHAR 00E5
SWIDTH 625 0
DWIDTH 38 0
BBX 8 13 1 0
BITMAP
38
28
38
00
7C
FE
C6
3E
7E
C6
C6
FF
77
ENDCHAR
STARTCHAR 00E6
ENCODING 230
STARTCHAR 00E6
SWIDTH 625 0
DWIDTH 38 0
BBX 8 9 1 0
BITMAP
6E
FF
DB
7F
FF
D8
DB
FF
6E
ENDCHAR
STARTCHAR 00E7
ENCODING 231
STARTCHAR 00E7
SWIDTH 625 0
DWIDTH 38 0
BBX 7 13 1 -4
BITMAP
7E
FE
C6
C0
C0
C0
C6
FE
7C
18
0C
3C
3C
ENDCHAR
STARTCHAR 00E8
ENCODING 232
STARTCHAR 00E8
SWIDTH 625 0
DWIDTH 38 0
BBX 7 13 1 0
BITMAP
20
30
18
00
7C
7E
C6
FE
FE
C0
C6
FE
7C
ENDCHAR
STARTCHAR 00E9
ENCODING 233
STARTCHAR 00E9
SWIDTH 625 0
DWIDTH 38 0
BBX 7 13 1 0
BITMAP
08
18
30
00
7C
7E
C6
FE
FE
C0
C6
FE
7C
ENDCHAR
STARTCHAR 00EA
ENCODING 234
STARTCHAR 00EA
SWIDTH 625 0
DWIDTH 38 0
BBX 7 13 1 0
BITMAP
38
6C
44
00
7C
7E
C6
FE
FE
C0
C6
FE
7C
ENDCHAR
STARTCHAR 00EB
ENCODING 235
STARTCHAR 00EB
SWIDTH 625 0
DWIDTH 38 0
BBX 7 13 1 0
BITMAP
66
6E
64
00
7C
7E
C6
FE
FE
C0
C6
FE
7C
ENDCHAR
STARTCHAR 00EC
ENCODING 236
STARTCHAR 00EC
SWIDTH 625 0
DWIDTH 38 0
BBX 6 13 2 0
BITMAP
60
30
10
00
F0
F0
30
30
30
30
30
FC
FC
ENDCHAR
STARTCHAR 00ED
ENCODING 237
STARTCHAR 00ED
SWIDTH 625 0
DWIDTH 38 0
BBX 6 13 2 0
BITMAP
18
30
20
00
F0
F0
30
30
30
30
30
FC
FC
ENDCHAR
STARTCHAR 00EE
ENCODING 238
STARTCHAR 00EE
SWIDTH 625 0
DWIDTH 38 0
BBX 6 13 2 0
BITMAP
30
78
48
00
F0
F0
30
30
30
30
30
FC
FC
ENDCHAR
STARTCHAR 00EF
ENCODING 239
STARTCHAR 00EF
SWIDTH 625 0
DWIDTH 38 0
BBX 6 13 2 0
BITMAP
CC
DC
C8
00
F0
F0
30
30
30
30
30
FC
FC
ENDCHAR
STARTCHAR 00F0
ENCODING 240
STARTCHAR 00F0
SWIDTH 625 0
DWIDTH 38 0
BBX 7 13 1 0
BITMAP
20
70
1E
7C
4C
76
FE
C6
C6
C6
C6
7C
38
ENDCHAR
STARTCHAR 00F1
ENCODING 241
STARTCHAR 00F1
SWIDTH 625 0
DWIDTH 38 0
BBX 8 13 1 0
BITMAP
3B
6E
24
00
EE
FF
63
63
63
63
63
E7
E7
ENDCHAR
STARTCHAR 00F2
ENCODING 242
STARTCHAR 00F2
SWIDTH 625 0
DWIDTH 38 0
BBX 7 13 1 0
BITMAP
20
30
18
00
78
7C
C6
C6
C6
C6
C6
7C
7C
ENDCHAR
STARTCHAR 00F3
ENCODING 243
STARTCHAR 00F3
SWIDTH 625 0
DWIDTH 38 0
BBX 7 13 1 0
BITMAP
08
18
30
00
78
7C
C6
C6
C6
C6
C6
7C
7C
ENDCHAR
STARTCHAR 00F4
ENCODING 244
STARTCHAR 00F4
SWIDTH 625 0
DWIDTH 38 0
BBX 7 13 1 0
BITMAP
38
6C
44
00
78
7C
C6
C6
C6
C6
C6
7C
7C
ENDCHAR
STARTCHAR 00F5
ENCODING 245
STARTCHAR 00F5
SWIDTH 625 0
DWIDTH 38 0
BBX 7 13 1 0
BITMAP
76
FC
4C
00
78
7C
C6
C6
C6
C6
C6
7C
7C
ENDCHAR
STARTCHAR 00F6
ENCODING 246
STARTCHAR 00F6
SWIDTH 625 0
DWIDTH 38 0
BBX 7 13 1 0
BITMAP
66
6E
64
00
78
7C
C6
C6
C6
C6
C6
7C
7C
ENDCHAR
STARTCHAR 00F7
ENCODING 247
STARTCHAR 00F7
SWIDTH 625 0
DWIDTH 38 0
BBX 7 9 1 1
BITMAP
30
30
00
FE
FE
00
00
30
30
ENDCHAR
STARTCHAR 00F8
ENCODING 248
STARTCHAR 00F8
SWIDTH 625 0
DWIDTH 38 0
BBX 7 9 1 0
BITMAP
7E
7C
CE
DE
D6
F6
E6
7C
FC
ENDCHAR
STARTCHAR 00F9
ENCODING 249
STARTCHAR 00F9
SWIDTH 625 0
DWIDTH 38 0
BBX 9 13 0 0
BITMAP
1000
1800
0800
0000
E700
E700
6300
6300
6300
6300
6300
7F80
3B80
ENDCHAR
STARTCHAR 00FA
ENCODING 250
STARTCHAR 00FA
SWIDTH 625 0
DWIDTH 38 0
BBX 9 13 0 0
BITMAP
0400
0C00
0800
0000
E700
E700
6300
6300
6300
6300
6300
7F80
3B80
ENDCHAR
STARTCHAR 00FB
ENCODING 251
STARTCHAR 00FB
SWIDTH 625 0
DWIDTH 38 0
BBX 9 13 0 0
BITMAP
1C00
3600
2200
0000
E700
E700
6300
6300
6300
6300
6300
7F80
3B80
ENDCHAR
STARTCHAR 00FC
ENCODING 252
STARTCHAR 00FC
SWIDTH 625 0
DWIDTH 38 0
BBX 9 13 0 0
BITMAP
3300
3700
3200
0000
E700
E700
6300
6300
6300
6300
6300
7F80
3B80
ENDCHAR
STARTCHAR 00FD
ENCODING 253
STARTCHAR 00FD
SWIDTH 625 0
DWIDTH 38 0
BBX 8 17 1 -4
BITMAP
0C
1C
10
00
E7
E7
66
66
24
3C
3C
38
18
18
38
70
60
ENDCHAR
STARTCHAR 00FE
ENCODING 254
STARTCHAR 00FE
SWIDTH 625 0
DWIDTH 38 0
BBX 8 17 1 -4
BITMAP
E0
E0
60
60
6E
7F
63
63
63
63
63
7E
6E
60
60
F0
F0
ENDCHAR
STARTCHAR 00FF
ENCODING 255
STARTCHAR 00FF
SWIDTH 625 0
DWIDTH 38 0
BBX 8 17 1 -4
BITMAP
66
6E
64
00
E7
E7
66
66
24
3C
3C
38
18
18
38
70
60
ENDCHAR
ENDFONT
