STARTFONT 2.1
COMMENT
COMMENT Converted from OpenType font "IosevkaCustomNerdFontMono-Regular.ttf" by "otf2bdf 3.0".
COMMENT
FONT -FreeType-IosevkaCustom Nerd Font Mono-Medium-R-Normal--16-160-72-72-C-77-ISO10646-1
SIZE 16 72 72
FONTBOUNDINGBOX 38 30 -19 -9
STARTPROPERTIES 19
FOUNDRY "FreeType"
FAMILY_NAME "IosevkaCustom Nerd Font Mono"
WEIGHT_NAME "Medium"
SLANT "R"
SETWIDTH_NAME "Normal"
ADD_STYLE_NAME ""
PIXEL_SIZE 16
POINT_SIZE 160
RESOLUTION_X 72
RESOLUTION_Y 72
SPACING "C"
AVERAGE_WIDTH 77
CHARSET_REGISTRY "ISO10646"
CHARSET_ENCODING "1"
FONT_ASCENT 15
FONT_DESCENT 4
COPYRIGHT "Copyright 2015-2026, Renzhi Li (aka. Belleve Invis, belleve@typeof.net)."
_OTF_FONTFILE "IosevkaCustomNerdFontMono-Regular.ttf"
_OTF_PSNAME "IosevkaCustomNFM"
ENDPROPERTIES
CHARS 5707
STARTCHAR 000D
ENCODING 13
STARTCHAR 000D
SWIDTH 625 0
DWIDTH 38 0
BBX 0 0 0 0
BITMAP
ENDCHAR
STARTCHAR 0020
ENCODING 32
STARTCHAR 0020
SWIDTH 625 0
DWIDTH 38 0
BBX 0 0 0 0
BITMAP
ENDCHAR
STARTCHAR 0021
ENCODING 33
STARTCHAR 0021
SWIDTH 625 0
DWIDTH 38 0
BBX 1 13 4 0
BITMAP
80
80
80
80
80
80
80
80
00
00
00
80
80
ENDCHAR
STARTCHAR 0022
ENCODING 34
STARTCHAR 0022
SWIDTH 625 0
DWIDTH 38 0
BBX 5 6 2 8
BITMAP
88
88
88
88
88
88
ENDCHAR
STARTCHAR 0023
ENCODING 35
STARTCHAR 0023
SWIDTH 625 0
DWIDTH 38 0
BBX 9 13 1 0
BITMAP
1900
1300
1300
1300
7F80
3200
3200
2600
2600
FF00
2400
6400
4C00
ENDCHAR
STARTCHAR 0024
ENCODING 36
STARTCHAR 0024
SWIDTH 625 0
DWIDTH 38 0
BBX 7 17 2 -2
BITMAP
10
10
10
7A
D6
92
90
F0
38
1C
12
92
D6
BC
10
10
10
ENDCHAR
STARTCHAR 0025
ENCODING 37
STARTCHAR 0025
SWIDTH 625 0
DWIDTH 38 0
BBX 8 13 1 0
BITMAP
E3
92
96
94
9C
F8
18
17
39
29
69
49
C7
ENDCHAR
STARTCHAR 0026
ENCODING 38
STARTCHAR 0026
SWIDTH 625 0
DWIDTH 38 0
BBX 7 13 2 0
BITMAP
78
CC
84
80
80
C4
7E
C4
84
84
84
CC
74
ENDCHAR
STARTCHAR 0027
ENCODING 39
STARTCHAR 0027
SWIDTH 625 0
DWIDTH 38 0
BBX 1 6 4 8
BITMAP
80
80
80
80
80
80
ENDCHAR
STARTCHAR 0028
ENCODING 40
STARTCHAR 0028
SWIDTH 625 0
DWIDTH 38 0
BBX 5 17 2 -3
BITMAP
38
60
C0
80
80
80
80
80
80
80
80
80
80
80
C0
60
38
ENDCHAR
STARTCHAR 0029
ENCODING 41
STARTCHAR 0029
SWIDTH 625 0
DWIDTH 38 0
BBX 5 17 3 -3
BITMAP
C0
70
10
18
08
08
08
08
08
08
08
08
08
18
10
30
E0
ENDCHAR
STARTCHAR 002A
ENCODING 42
STARTCHAR 002A
SWIDTH 625 0
DWIDTH 38 0
BBX 7 8 1 5
BITMAP
10
12
D6
78
78
D6
12
10
ENDCHAR
STARTCHAR 002B
ENCODING 43
STARTCHAR 002B
SWIDTH 625 0
DWIDTH 38 0
BBX 7 7 2 2
BITMAP
10
10
10
FE
10
10
10
ENDCHAR
STARTCHAR 002C
ENCODING 44
STARTCHAR 002C
SWIDTH 625 0
DWIDTH 38 0
BBX 2 6 4 -4
BITMAP
C0
C0
40
40
80
80
ENDCHAR
STARTCHAR 002D
ENCODING 45
STARTCHAR 002D
SWIDTH 625 0
DWIDTH 38 0
BBX 7 1 2 5
BITMAP
FE
ENDCHAR
STARTCHAR 002E
ENCODING 46
STARTCHAR 002E
SWIDTH 625 0
DWIDTH 38 0
BBX 2 2 4 0
BITMAP
C0
C0
ENDCHAR
STARTCHAR 002F
ENCODING 47
STARTCHAR 002F
SWIDTH 625 0
DWIDTH 38 0
BBX 6 17 2 -2
BITMAP
04
0C
0C
08
18
18
10
10
30
20
20
60
40
40
C0
80
80
ENDCHAR
STARTCHAR 0030
ENCODING 48
STARTCHAR 0030
SWIDTH 625 0
DWIDTH 38 0
BBX 6 13 2 0
BITMAP
78
CC
84
84
8C
94
A4
A4
C4
84
84
CC
78
ENDCHAR
STARTCHAR 0031
ENCODING 49
STARTCHAR 0031
SWIDTH 625 0
DWIDTH 38 0
BBX 6 13 2 0
BITMAP
30
70
D0
10
10
10
10
10
10
10
10
10
FC
ENDCHAR
STARTCHAR 0032
ENCODING 50
STARTCHAR 0032
SWIDTH 625 0
DWIDTH 38 0
BBX 7 13 1 0
BITMAP
3C
66
C2
02
02
06
0C
08
18
30
60
C2
FE
ENDCHAR
STARTCHAR 0033
ENCODING 51
STARTCHAR 0033
SWIDTH 625 0
DWIDTH 38 0
BBX 7 13 1 0
BITMAP
FE
06
0C
18
30
3C
06
06
02
02
86
CC
78
ENDCHAR
STARTCHAR 0034
ENCODING 52
STARTCHAR 0034
SWIDTH 625 0
DWIDTH 38 0
BBX 7 13 1 0
BITMAP
0C
08
18
10
30
20
64
44
C4
FE
04
04
1E
ENDCHAR
STARTCHAR 0035
ENCODING 53
STARTCHAR 0035
SWIDTH 625 0
DWIDTH 38 0
BBX 7 13 1 0
BITMAP
7E
42
42
40
40
7C
06
02
02
02
C6
64
3C
ENDCHAR
STARTCHAR 0036
ENCODING 54
STARTCHAR 0036
SWIDTH 625 0
DWIDTH 38 0
BBX 6 13 2 0
BITMAP
78
CC
84
80
80
B8
CC
84
84
84
84
CC
78
ENDCHAR
STARTCHAR 0037
ENCODING 55
STARTCHAR 0037
SWIDTH 625 0
DWIDTH 38 0
BBX 6 13 2 0
BITMAP
FC
84
04
0C
08
08
18
10
10
30
20
20
60
ENDCHAR
STARTCHAR 0038
ENCODING 56
STARTCHAR 0038
SWIDTH 625 0
DWIDTH 38 0
BBX 6 13 2 0
BITMAP
78
CC
84
84
CC
78
70
58
8C
84
84
CC
78
ENDCHAR
STARTCHAR 0039
ENCODING 57
STARTCHAR 0039
SWIDTH 625 0
DWIDTH 38 0
BBX 6 13 2 0
BITMAP
78
CC
84
84
84
84
CC
74
04
04
84
CC
78
ENDCHAR
STARTCHAR 003A
ENCODING 58
STARTCHAR 003A
SWIDTH 625 0
DWIDTH 38 0
BBX 2 9 4 0
BITMAP
C0
C0
00
00
00
00
00
C0
C0
ENDCHAR
STARTCHAR 003B
ENCODING 59
STARTCHAR 003B
SWIDTH 625 0
DWIDTH 38 0
BBX 2 13 4 -4
BITMAP
C0
C0
00
00
00
00
00
C0
C0
40
40
80
80
ENDCHAR
STARTCHAR 003C
ENCODING 60
STARTCHAR 003C
SWIDTH 625 0
DWIDTH 38 0
BBX 7 9 2 2
BITMAP
06
18
30
C0
C0
60
38
0C
06
ENDCHAR
STARTCHAR 003D
ENCODING 61
STARTCHAR 003D
SWIDTH 625 0
DWIDTH 38 0
BBX 7 4 2 4
BITMAP
FE
00
00
FE
ENDCHAR
STARTCHAR 003E
ENCODING 62
STARTCHAR 003E
SWIDTH 625 0
DWIDTH 38 0
BBX 7 9 1 2
BITMAP
C0
30
18
06
06
0C
38
60
C0
ENDCHAR
STARTCHAR 003F
ENCODING 63
STARTCHAR 003F
SWIDTH 625 0
DWIDTH 38 0
BBX 7 13 1 0
BITMAP
3C
66
C2
02
02
06
1C
10
10
00
00
10
10
ENDCHAR
STARTCHAR 0040
ENCODING 64
STARTCHAR 0040
SWIDTH 625 0
DWIDTH 38 0
BBX 8 14 1 -1
BITMAP
7C
C7
81
BD
A5
A5
A5
A5
A5
A5
BF
80
C0
7E
ENDCHAR
STARTCHAR 0041
ENCODING 65
STARTCHAR 0041
SWIDTH 625 0
DWIDTH 38 0
BBX 8 13 1 0
BITMAP
18
18
18
18
3C
24
24
24
7E
66
42
42
E7
ENDCHAR
STARTCHAR 0042
ENCODING 66
STARTCHAR 0042
SWIDTH 625 0
DWIDTH 38 0
BBX 8 13 1 0
BITMAP
FC
46
42
42
42
46
7C
46
41
41
41
46
FC
ENDCHAR
STARTCHAR 0043
ENCODING 67
STARTCHAR 0043
SWIDTH 625 0
DWIDTH 38 0
BBX 6 13 2 0
BITMAP
78
CC
84
80
80
80
80
80
80
80
84
CC
78
ENDCHAR
STARTCHAR 0044
ENCODING 68
STARTCHAR 0044
SWIDTH 625 0
DWIDTH 38 0
BBX 7 13 1 0
BITMAP
F8
44
46
42
42
42
42
42
42
42
46
44
F8
ENDCHAR
STARTCHAR 0045
ENCODING 69
STARTCHAR 0045
SWIDTH 625 0
DWIDTH 38 0
BBX 7 13 1 0
BITMAP
FE
42
40
40
40
40
7C
40
40
40
40
42
FE
ENDCHAR
STARTCHAR 0046
ENCODING 70
STARTCHAR 0046
SWIDTH 625 0
DWIDTH 38 0
BBX 7 13 1 0
BITMAP
FE
42
42
40
40
40
7C
40
40
40
40
40
F0
ENDCHAR
STARTCHAR 0047
ENCODING 71
STARTCHAR 0047
SWIDTH 625 0
DWIDTH 38 0
BBX 6 13 2 0
BITMAP
74
CC
84
80
80
80
9C
84
84
84
84
DC
74
ENDCHAR
STARTCHAR 0048
ENCODING 72
STARTCHAR 0048
SWIDTH 625 0
DWIDTH 38 0
BBX 8 13 1 0
BITMAP
E7
42
42
42
42
42
7E
42
42
42
42
42
E7
ENDCHAR
STARTCHAR 0049
ENCODING 73
STARTCHAR 0049
SWIDTH 625 0
DWIDTH 38 0
BBX 6 13 2 0
BITMAP
FC
10
10
10
10
10
10
10
10
10
10
10
FC
ENDCHAR
STARTCHAR 004A
ENCODING 74
STARTCHAR 004A
SWIDTH 625 0
DWIDTH 38 0
BBX 6 13 2 0
BITMAP
3C
04
04
04
04
04
04
04
04
04
84
CC
78
ENDCHAR
STARTCHAR 004B
ENCODING 75
STARTCHAR 004B
SWIDTH 625 0
DWIDTH 38 0
BBX 8 13 1 0
BITMAP
E7
44
4C
48
58
50
70
78
48
4C
44
46
E3
ENDCHAR
STARTCHAR 004C
ENCODING 76
STARTCHAR 004C
SWIDTH 625 0
DWIDTH 38 0
BBX 7 13 1 0
BITMAP
F0
40
40
40
40
40
40
40
40
40
40
42
FE
ENDCHAR
STARTCHAR 004D
ENCODING 77
STARTCHAR 004D
SWIDTH 625 0
DWIDTH 38 0
BBX 9 13 1 0
BITMAP
E380
6300
6300
6500
5500
5500
5500
4900
4900
4100
4100
4100
E380
ENDCHAR
STARTCHAR 004E
ENCODING 78
STARTCHAR 004E
SWIDTH 625 0
DWIDTH 38 0
BBX 8 13 1 0
BITMAP
E7
62
62
62
52
52
52
4A
4A
4A
46
46
E6
ENDCHAR
STARTCHAR 004F
ENCODING 79
STARTCHAR 004F
SWIDTH 625 0
DWIDTH 38 0
BBX 6 13 2 0
BITMAP
78
CC
84
84
84
84
84
84
84
84
84
CC
78
ENDCHAR
STARTCHAR 0050
ENCODING 80
STARTCHAR 0050
SWIDTH 625 0
DWIDTH 38 0
BBX 7 13 1 0
BITMAP
FC
46
46
42
42
42
46
7C
40
40
40
40
F0
ENDCHAR
STARTCHAR 0051
ENCODING 81
STARTCHAR 0051
SWIDTH 625 0
DWIDTH 38 0
BBX 7 14 2 -1
BITMAP
78
CC
84
84
84
84
84
84
A4
94
9C
CC
7C
06
ENDCHAR
STARTCHAR 0052
ENCODING 82
STARTCHAR 0052
SWIDTH 625 0
DWIDTH 38 0
BBX 9 13 1 0
BITMAP
FE00
4200
4300
4100
4100
4100
4300
7E00
4C00
4C00
4600
4200
E380
ENDCHAR
STARTCHAR 0053
ENCODING 83
STARTCHAR 0053
SWIDTH 625 0
DWIDTH 38 0
BBX 6 13 2 0
BITMAP
74
CC
84
80
80
E0
70
18
0C
04
84
CC
B8
ENDCHAR
STARTCHAR 0054
ENCODING 84
STARTCHAR 0054
SWIDTH 625 0
DWIDTH 38 0
BBX 7 13 2 0
BITMAP
FE
92
92
10
10
10
10
10
10
10
10
10
78
ENDCHAR
STARTCHAR 0055
ENCODING 85
STARTCHAR 0055
SWIDTH 625 0
DWIDTH 38 0
BBX 8 13 1 0
BITMAP
E7
42
42
42
42
42
42
42
42
42
42
66
3C
ENDCHAR
STARTCHAR 0056
ENCODING 86
STARTCHAR 0056
SWIDTH 625 0
DWIDTH 38 0
BBX 9 13 1 0
BITMAP
E380
4100
6300
6300
2200
2200
2200
3600
1400
1400
1400
1C00
1C00
ENDCHAR
STARTCHAR 0057
ENCODING 87
STARTCHAR 0057
SWIDTH 625 0
DWIDTH 38 0
BBX 9 13 1 0
BITMAP
E380
4100
4100
4100
4900
4900
5900
7700
3600
3600
3600
3600
2200
ENDCHAR
STARTCHAR 0058
ENCODING 88
STARTCHAR 0058
SWIDTH 625 0
DWIDTH 38 0
BBX 8 13 1 0
BITMAP
E7
66
24
24
18
18
18
18
18
24
24
66
E7
ENDCHAR
STARTCHAR 0059
ENCODING 89
STARTCHAR 0059
SWIDTH 625 0
DWIDTH 38 0
BBX 8 13 1 0
BITMAP
E7
66
26
24
34
14
18
08
08
08
08
08
3C
ENDCHAR
STARTCHAR 005A
ENCODING 90
STARTCHAR 005A
SWIDTH 625 0
DWIDTH 38 0
BBX 6 13 2 0
BITMAP
FC
8C
0C
18
18
10
30
20
60
40
C0
84
FC
ENDCHAR
STARTCHAR 005B
ENCODING 91
STARTCHAR 005B
SWIDTH 625 0
DWIDTH 38 0
BBX 5 16 3 -2
BITMAP
F8
80
80
80
80
80
80
80
80
80
80
80
80
80
80
F8
ENDCHAR
STARTCHAR 005C
ENCODING 92
STARTCHAR 005C
SWIDTH 625 0
DWIDTH 38 0
BBX 7 17 1 -2
BITMAP
C0
40
40
60
20
20
30
10
10
18
08
08
0C
04
04
06
02
ENDCHAR
STARTCHAR 005D
ENCODING 93
STARTCHAR 005D
SWIDTH 625 0
DWIDTH 38 0
BBX 5 16 2 -2
BITMAP
F8
08
08
08
08
08
08
08
08
08
08
08
08
08
08
F8
ENDCHAR
STARTCHAR 005E
ENCODING 94
STARTCHAR 005E
SWIDTH 625 0
DWIDTH 38 0
BBX 7 5 1 7
BITMAP
18
2C
66
C2
02
ENDCHAR
STARTCHAR 005F
ENCODING 95
STARTCHAR 005F
SWIDTH 625 0
DWIDTH 38 0
BBX 7 1 2 -1
BITMAP
FE
ENDCHAR
STARTCHAR 0060
ENCODING 96
STARTCHAR 0060
SWIDTH 625 0
DWIDTH 38 0
BBX 4 3 2 10
BITMAP
C0
60
30
ENDCHAR
STARTCHAR 0061
ENCODING 97
STARTCHAR 0061
SWIDTH 625 0
DWIDTH 38 0
BBX 8 9 1 0
BITMAP
3C
66
C2
02
3E
62
C2
C6
7B
ENDCHAR
STARTCHAR 0062
ENCODING 98
STARTCHAR 0062
SWIDTH 625 0
DWIDTH 38 0
BBX 7 13 1 0
BITMAP
C0
40
40
40
5C
66
42
42
42
42
42
66
DC
ENDCHAR
STARTCHAR 0063
ENCODING 99
STARTCHAR 0063
SWIDTH 625 0
DWIDTH 38 0
BBX 6 9 2 0
BITMAP
74
CC
84
80
80
80
84
CC
78
ENDCHAR
STARTCHAR 0064
ENCODING 100
STARTCHAR 0064
SWIDTH 625 0
DWIDTH 38 0
BBX 7 13 2 0
BITMAP
0C
04
04
04
74
CC
84
84
84
84
84
CC
76
ENDCHAR
STARTCHAR 0065
ENCODING 101
STARTCHAR 0065
SWIDTH 625 0
DWIDTH 38 0
BBX 7 9 1 0
BITMAP
7C
64
C6
82
FE
80
C2
46
3C
ENDCHAR
STARTCHAR 0066
ENCODING 102
STARTCHAR 0066
SWIDTH 625 0
DWIDTH 38 0
BBX 7 13 2 0
BITMAP
1C
34
22
20
20
FC
20
20
20
20
20
20
FC
ENDCHAR
STARTCHAR 0067
ENCODING 103
STARTCHAR 0067
SWIDTH 625 0
DWIDTH 38 0
BBX 7 13 2 -4
BITMAP
7E
CC
84
84
CC
78
80
80
7C
06
06
84
7C
ENDCHAR
STARTCHAR 0068
ENCODING 104
STARTCHAR 0068
SWIDTH 625 0
DWIDTH 38 0
BBX 8 13 1 0
BITMAP
C0
40
40
40
5C
66
42
42
42
42
42
42
E7
ENDCHAR
STARTCHAR 0069
ENCODING 105
STARTCHAR 0069
SWIDTH 625 0
DWIDTH 38 0
BBX 6 13 2 0
BITMAP
30
30
00
00
F0
10
10
10
10
10
10
10
FC
ENDCHAR
STARTCHAR 006A
ENCODING 106
STARTCHAR 006A
SWIDTH 625 0
DWIDTH 38 0
BBX 7 17 0 -4
BITMAP
06
06
00
00
3C
04
04
04
04
04
04
04
04
04
84
CC
78
ENDCHAR
STARTCHAR 006B
ENCODING 107
STARTCHAR 006B
SWIDTH 625 0
DWIDTH 38 0
BBX 8 13 1 0
BITMAP
C0
40
40
40
47
4C
48
50
70
78
4C
44
E7
ENDCHAR
STARTCHAR 006C
ENCODING 108
STARTCHAR 006C
SWIDTH 625 0
DWIDTH 38 0
BBX 6 13 2 0
BITMAP
F0
10
10
10
10
10
10
10
10
10
10
10
FC
ENDCHAR
STARTCHAR 006D
ENCODING 109
STARTCHAR 006D
SWIDTH 625 0
DWIDTH 38 0
BBX 9 9 0 0
BITMAP
F700
5B00
4900
4900
4900
4900
4900
4900
C980
ENDCHAR
STARTCHAR 006E
ENCODING 110
STARTCHAR 006E
SWIDTH 625 0
DWIDTH 38 0
BBX 8 9 1 0
BITMAP
DC
66
42
42
42
42
42
42
E7
ENDCHAR
STARTCHAR 006F
ENCODING 111
STARTCHAR 006F
SWIDTH 625 0
DWIDTH 38 0
BBX 6 9 2 0
BITMAP
78
CC
84
84
84
84
84
CC
78
ENDCHAR
STARTCHAR 0070
ENCODING 112
STARTCHAR 0070
SWIDTH 625 0
DWIDTH 38 0
BBX 8 13 1 -4
BITMAP
DE
63
41
41
41
41
41
63
5E
40
40
40
F0
ENDCHAR
STARTCHAR 0071
ENCODING 113
STARTCHAR 0071
SWIDTH 625 0
DWIDTH 38 0
BBX 8 13 2 -4
BITMAP
77
CC
84
84
84
84
84
CC
74
04
04
04
0F
ENDCHAR
STARTCHAR 0072
ENCODING 114
STARTCHAR 0072
SWIDTH 625 0
DWIDTH 38 0
BBX 7 9 1 0
BITMAP
EE
36
20
20
20
20
20
20
F8
ENDCHAR
STARTCHAR 0073
ENCODING 115
STARTCHAR 0073
SWIDTH 625 0
DWIDTH 38 0
BBX 6 9 2 0
BITMAP
74
CC
84
C0
78
0C
84
CC
B8
ENDCHAR
STARTCHAR 0074
ENCODING 116
STARTCHAR 0074
SWIDTH 625 0
DWIDTH 38 0
BBX 7 13 1 0
BITMAP
20
20
20
20
FC
20
20
20
20
20
26
34
1C
ENDCHAR
STARTCHAR 0075
ENCODING 117
STARTCHAR 0075
SWIDTH 625 0
DWIDTH 38 0
BBX 8 9 1 0
BITMAP
C6
42
42
42
42
42
42
66
3B
ENDCHAR
STARTCHAR 0076
ENCODING 118
STARTCHAR 0076
SWIDTH 625 0
DWIDTH 38 0
BBX 9 9 1 0
BITMAP
E380
6300
6300
2200
3600
3600
1400
1C00
1C00
ENDCHAR
STARTCHAR 0077
ENCODING 119
STARTCHAR 0077
SWIDTH 625 0
DWIDTH 38 0
BBX 9 9 1 0
BITMAP
E380
4100
4900
4900
5500
7700
3600
3600
2200
ENDCHAR
STARTCHAR 0078
ENCODING 120
STARTCHAR 0078
SWIDTH 625 0
DWIDTH 38 0
BBX 8 9 1 0
BITMAP
E7
24
3C
18
18
18
3C
24
E7
ENDCHAR
STARTCHAR 0079
ENCODING 121
STARTCHAR 0079
SWIDTH 625 0
DWIDTH 38 0
BBX 8 13 1 -4
BITMAP
E7
42
66
24
24
24
18
18
18
18
10
30
60
ENDCHAR
STARTCHAR 007A
ENCODING 122
STARTCHAR 007A
SWIDTH 625 0
DWIDTH 38 0
BBX 6 9 2 0
BITMAP
FC
8C
08
10
30
60
40
C4
FC
ENDCHAR
STARTCHAR 007B
ENCODING 123
STARTCHAR 007B
SWIDTH 625 0
DWIDTH 38 0
BBX 5 17 2 -2
BITMAP
18
30
20
20
20
20
20
60
C0
60
20
20
20
20
20
30
18
ENDCHAR
STARTCHAR 007C
ENCODING 124
STARTCHAR 007C
SWIDTH 625 0
DWIDTH 38 0
BBX 1 17 4 -2
BITMAP
80
80
80
80
80
80
80
80
80
80
80
80
80
80
80
80
80
ENDCHAR
STARTCHAR 007D
ENCODING 125
STARTCHAR 007D
SWIDTH 625 0
DWIDTH 38 0
BBX 5 17 2 -2
BITMAP
C0
60
20
20
20
20
20
30
18
30
20
20
20
20
20
60
C0
ENDCHAR
STARTCHAR 007E
ENCODING 126
STARTCHAR 007E
SWIDTH 625 0
DWIDTH 38 0
BBX 7 4 1 3
BITMAP
22
72
DE
8C
ENDCHAR
STARTCHAR 00A0
ENCODING 160
STARTCHAR 00A0
SWIDTH 625 0
DWIDTH 38 0
BBX 0 0 0 0
BITMAP
ENDCHAR
STARTCHAR 00A1
ENCODING 161
STARTCHAR 00A1
SWIDTH 625 0
DWIDTH 38 0
BBX 1 13 4 -4
BITMAP
80
80
00
00
00
80
80
80
80
80
80
80
80
ENDCHAR
STARTCHAR 00A2
ENCODING 162
STARTCHAR 00A2
SWIDTH 625 0
DWIDTH 38 0
BBX 7 13 2 -2
BITMAP
10
10
7A
D6
92
90
90
90
92
D6
7C
10
10
ENDCHAR
STARTCHAR 00A3
ENCODING 163
STARTCHAR 00A3
SWIDTH 625 0
DWIDTH 38 0
BBX 7 13 1 0
BITMAP
1C
36
26
20
20
20
F8
20
20
20
60
42
FE
ENDCHAR
STARTCHAR 00A4
ENCODING 164
STARTCHAR 00A4
SWIDTH 625 0
DWIDTH 38 0
BBX 7 8 1 2
BITMAP
FE
66
42
42
42
66
7E
02
ENDCHAR
STARTCHAR 00A5
ENCODING 165
STARTCHAR 00A5
SWIDTH 625 0
DWIDTH 38 0
BBX 8 13 1 0
BITMAP
E7
67
26
26
34
1C
18
7F
08
08
7F
08
3C
ENDCHAR
STARTCHAR 00A6
ENCODING 166
STARTCHAR 00A6
SWIDTH 625 0
DWIDTH 38 0
BBX 1 16 4 -2
BITMAP
80
80
80
80
80
80
80
00
00
80
80
80
80
80
80
80
ENDCHAR
STARTCHAR 00A7
ENCODING 167
STARTCHAR 00A7
SWIDTH 625 0
DWIDTH 38 0
BBX 6 16 2 -2
BITMAP
78
CC
84
80
C0
78
DC
84
84
CC
78
0C
04
84
CC
78
ENDCHAR
STARTCHAR 00A8
ENCODING 168
STARTCHAR 00A8
SWIDTH 625 0
DWIDTH 38 0
BBX 6 2 2 10
BITMAP
CC
CC
ENDCHAR
STARTCHAR 00A9
ENCODING 169
STARTCHAR 00A9
SWIDTH 625 0
DWIDTH 38 0
BBX 7 14 1 -1
BITMAP
78
C4
86
BA
AA
A2
A2
A2
A2
AA
BA
86
C6
7C
ENDCHAR
STARTCHAR 00AA
ENCODING 170
STARTCHAR 00AA
SWIDTH 625 0
DWIDTH 38 0
BBX 5 8 2 3
BITMAP
F0
88
78
88
98
E8
00
F8
ENDCHAR
STARTCHAR 00AB
ENCODING 171
STARTCHAR 00AB
SWIDTH 625 0
DWIDTH 38 0
BBX 7 9 1 1
BITMAP
12
26
64
48
C8
4C
24
32
02
ENDCHAR
STARTCHAR 00AC
ENCODING 172
STARTCHAR 00AC
SWIDTH 625 0
DWIDTH 38 0
BBX 7 5 1 1
BITMAP
FE
02
02
02
02
ENDCHAR
STARTCHAR 00AD
ENCODING 173
STARTCHAR 00AD
SWIDTH 625 0
DWIDTH 38 0
BBX 7 1 2 5
BITMAP
FE
ENDCHAR
STARTCHAR 00AE
ENCODING 174
STARTCHAR 00AE
SWIDTH 625 0
DWIDTH 38 0
BBX 7 8 1 7
BITMAP
78
C4
BE
AA
BA
B2
EE
7C
ENDCHAR
STARTCHAR 00AF
ENCODING 175
STARTCHAR 00AF
SWIDTH 625 0
DWIDTH 38 0
BBX 7 1 2 11
BITMAP
FE
ENDCHAR
STARTCHAR 00B0
ENCODING 176
STARTCHAR 00B0
SWIDTH 625 0
DWIDTH 38 0
BBX 3 4 3 9
BITMAP
E0
A0
A0
E0
ENDCHAR
STARTCHAR 00B1
ENCODING 177
STARTCHAR 00B1
SWIDTH 625 0
DWIDTH 38 0
BBX 7 9 2 0
BITMAP
10
10
10
FE
10
10
10
00
FE
ENDCHAR
STARTCHAR 00B2
ENCODING 178
STARTCHAR 00B2
SWIDTH 625 0
DWIDTH 38 0
BBX 5 8 2 5
BITMAP
70
88
08
18
30
60
C8
F8
ENDCHAR
STARTCHAR 00B3
ENCODING 179
STARTCHAR 00B3
SWIDTH 625 0
DWIDTH 38 0
BBX 5 8 2 5
BITMAP
F8
10
20
70
18
08
88
70
ENDCHAR
STARTCHAR 00B4
ENCODING 180
STARTCHAR 00B4
SWIDTH 625 0
DWIDTH 38 0
BBX 3 5 4 9
BITMAP
20
20
40
C0
80
ENDCHAR
STARTCHAR 00B5
ENCODING 181
STARTCHAR 00B5
SWIDTH 625 0
DWIDTH 38 0
BBX 8 13 1 -4
BITMAP
C6
42
42
42
42
42
42
66
7B
40
40
40
40
ENDCHAR
STARTCHAR 00B6
ENCODING 182
STARTCHAR 00B6
SWIDTH 625 0
DWIDTH 38 0
BBX 6 13 2 0
BITMAP
7C
F4
F4
F4
F4
F4
74
14
14
14
14
14
14
ENDCHAR
STARTCHAR 00B7
ENCODING 183
STARTCHAR 00B7
SWIDTH 625 0
DWIDTH 38 0
BBX 2 2 4 5
BITMAP
C0
C0
ENDCHAR
STARTCHAR 00B8
ENCODING 184
STARTCHAR 00B8
SWIDTH 625 0
DWIDTH 38 0
BBX 4 3 3 -4
BITMAP
40
30
F0
ENDCHAR
STARTCHAR 00B9
ENCODING 185
STARTCHAR 00B9
SWIDTH 625 0
DWIDTH 38 0
BBX 5 8 3 5
BITMAP
60
A0
20
20
20
20
20
F8
ENDCHAR
STARTCHAR 00BA
ENCODING 186
STARTCHAR 00BA
SWIDTH 625 0
DWIDTH 38 0
BBX 5 8 2 3
BITMAP
70
88
88
88
88
70
00
F8
ENDCHAR
STARTCHAR 00BB
ENCODING 187
STARTCHAR 00BB
SWIDTH 625 0
DWIDTH 38 0
BBX 7 9 1 1
BITMAP
C8
4C
24
32
12
26
64
48
08
ENDCHAR
STARTCHAR 00BC
ENCODING 188
STARTCHAR 00BC
SWIDTH 625 0
DWIDTH 38 0
BBX 7 18 2 -3
BITMAP
10
30
10
10
10
10
10
78
00
FE
00
00
18
10
20
48
7C
18
ENDCHAR
STARTCHAR 00BD
ENCODING 189
STARTCHAR 00BD
SWIDTH 625 0
DWIDTH 38 0
BBX 6 18 1 -3
BITMAP
10
30
10
10
10
10
10
38
00
FC
00
38
48
08
08
30
60
78
ENDCHAR
STARTCHAR 00BE
ENCODING 190
STARTCHAR 00BE
SWIDTH 625 0
DWIDTH 38 0
BBX 7 17 2 -3
BITMAP
78
08
30
38
08
48
78
00
FE
00
08
10
30
20
48
78
18
ENDCHAR
STARTCHAR 00BF
ENCODING 191
STARTCHAR 00BF
SWIDTH 625 0
DWIDTH 38 0
BBX 6 13 2 -4
BITMAP
10
10
00
00
10
10
70
C0
80
80
84
CC
78
ENDCHAR
STARTCHAR 00C0
ENCODING 192
STARTCHAR 00C0
SWIDTH 625 0
DWIDTH 38 0
BBX 8 17 1 0
BITMAP
30
10
08
00
18
18
18
18
3C
24
24
24
7E
66
42
42
E7
ENDCHAR
STARTCHAR 00C1
ENCODING 193
STARTCHAR 00C1
SWIDTH 625 0
DWIDTH 38 0
BBX 8 17 1 0
BITMAP
0C
08
10
00
18
18
18
18
3C
24
24
24
7E
66
42
42
E7
ENDCHAR
STARTCHAR 00C2
ENCODING 194
STARTCHAR 00C2
SWIDTH 625 0
DWIDTH 38 0
BBX 8 17 1 0
BITMAP
18
3C
24
00
18
18
18
18
3C
24
24
24
7E
66
42
42
E7
ENDCHAR
STARTCHAR 00C3
ENCODING 195
STARTCHAR 00C3
SWIDTH 625 0
DWIDTH 38 0
BBX 8 17 1 0
BITMAP
32
7E
4C
00
18
18
18
18
3C
24
24
24
7E
66
42
42
E7
ENDCHAR
STARTCHAR 00C4
ENCODING 196
STARTCHAR 00C4
SWIDTH 625 0
DWIDTH 38 0
BBX 8 16 1 0
BITMAP
66
64
00
18
18
18
18
3C
24
24
24
7E
66
42
42
E7
ENDCHAR
STARTCHAR 00C5
ENCODING 197
STARTCHAR 00C5
SWIDTH 625 0
DWIDTH 38 0
BBX 8 17 1 0
BITMAP
18
28
18
00
18
18
18
18
3C
24
24
24
7E
66
42
42
E7
ENDCHAR
STARTCHAR 00C6
ENCODING 198
STARTCHAR 00C6
SWIDTH 625 0
DWIDTH 38 0
BBX 8 13 1 0
BITMAP
3F
1D
1D
14
14
34
37
24
24
7C
64
45
E7
ENDCHAR
STARTCHAR 00C7
ENCODING 199
STARTCHAR 00C7
SWIDTH 625 0
DWIDTH 38 0
BBX 6 17 2 -4
BITMAP
78
CC
84
80
80
80
80
80
80
80
84
CC
78
10
08
08
70
ENDCHAR
STARTCHAR 00C8
ENCODING 200
STARTCHAR 00C8
SWIDTH 625 0
DWIDTH 38 0
BBX 7 17 1 0
BITMAP
20
10
00
00
FE
42
40
40
40
40
7C
40
40
40
40
42
FE
ENDCHAR
STARTCHAR 00C9
ENCODING 201
STARTCHAR 00C9
SWIDTH 625 0
DWIDTH 38 0
BBX 7 17 1 0
BITMAP
0C
18
10
00
FE
42
40
40
40
40
7C
40
40
40
40
42
FE
ENDCHAR
STARTCHAR 00CA
ENCODING 202
STARTCHAR 00CA
SWIDTH 625 0
DWIDTH 38 0
BBX 7 17 1 0
BITMAP
18
38
64
00
FE
42
40
40
40
40
7C
40
40
40
40
42
FE
ENDCHAR
STARTCHAR 00CB
ENCODING 203
STARTCHAR 00CB
SWIDTH 625 0
DWIDTH 38 0
BBX 7 16 1 0
BITMAP
66
64
00
FE
42
40
40
40
40
7C
40
40
40
40
42
FE
ENDCHAR
STARTCHAR 00CC
ENCODING 204
STARTCHAR 00CC
SWIDTH 625 0
DWIDTH 38 0
BBX 6 17 2 0
BITMAP
60
30
10
00
FC
10
10
10
10
10
10
10
10
10
10
10
FC
ENDCHAR
STARTCHAR 00CD
ENCODING 205
STARTCHAR 00CD
SWIDTH 625 0
DWIDTH 38 0
BBX 6 17 2 0
BITMAP
08
10
10
00
FC
10
10
10
10
10
10
10
10
10
10
10
FC
ENDCHAR
STARTCHAR 00CE
ENCODING 206
STARTCHAR 00CE
SWIDTH 625 0
DWIDTH 38 0
BBX 6 17 2 0
BITMAP
10
28
48
00
FC
10
10
10
10
10
10
10
10
10
10
10
FC
ENDCHAR
STARTCHAR 00CF
ENCODING 207
STARTCHAR 00CF
SWIDTH 625 0
DWIDTH 38 0
BBX 6 16 2 0
BITMAP
CC
C8
00
FC
10
10
10
10
10
10
10
10
10
10
10
FC
ENDCHAR
STARTCHAR 00D0
ENCODING 208
STARTCHAR 00D0
SWIDTH 625 0
DWIDTH 38 0
BBX 8 13 1 0
BITMAP
FC
46
43
41
41
41
F1
41
41
41
43
46
FC
ENDCHAR
STARTCHAR 00D1
ENCODING 209
STARTCHAR 00D1
SWIDTH 625 0
DWIDTH 38 0
BBX 8 17 1 0
BITMAP
32
7E
4C
00
E7
62
62
62
52
52
52
4A
4A
4A
46
46
E6
ENDCHAR
STARTCHAR 00D2
ENCODING 210
STARTCHAR 00D2
SWIDTH 625 0
DWIDTH 38 0
BBX 6 17 2 0
BITMAP
40
20
10
00
78
CC
84
84
84
84
84
84
84
84
84
CC
78
ENDCHAR
STARTCHAR 00D3
ENCODING 211
STARTCHAR 00D3
SWIDTH 625 0
DWIDTH 38 0
BBX 6 17 2 0
BITMAP
10
10
20
00
78
CC
84
84
84
84
84
84
84
84
84
CC
78
ENDCHAR
STARTCHAR 00D4
ENCODING 212
STARTCHAR 00D4
SWIDTH 625 0
DWIDTH 38 0
BBX 6 17 2 0
BITMAP
30
58
48
00
78
CC
84
84
84
84
84
84
84
84
84
CC
78
ENDCHAR
STARTCHAR 00D5
ENCODING 213
STARTCHAR 00D5
SWIDTH 625 0
DWIDTH 38 0
BBX 6 17 2 0
BITMAP
64
EC
98
00
78
CC
84
84
84
84
84
84
84
84
84
CC
78
ENDCHAR
STARTCHAR 00D6
ENCODING 214
STARTCHAR 00D6
SWIDTH 625 0
DWIDTH 38 0
BBX 6 16 2 0
BITMAP
CC
C8
00
78
CC
84
84
84
84
84
84
84
84
84
CC
78
ENDCHAR
STARTCHAR 00D7
ENCODING 215
STARTCHAR 00D7
SWIDTH 625 0
DWIDTH 38 0
BBX 8 8 1 1
BITMAP
83
C6
64
38
18
2C
66
C3
ENDCHAR
STARTCHAR 00D8
ENCODING 216
STARTCHAR 00D8
SWIDTH 625 0
DWIDTH 38 0
BBX 6 15 2 -1
BITMAP
04
7C
CC
8C
9C
94
94
A4
A4
A4
C4
C4
CC
F8
80
ENDCHAR
STARTCHAR 00D9
ENCODING 217
STARTCHAR 00D9
SWIDTH 625 0
DWIDTH 38 0
BBX 8 17 1 0
BITMAP
30
10
08
00
E7
42
42
42
42
42
42
42
42
42
42
66
3C
ENDCHAR
STARTCHAR 00DA
ENCODING 218
STARTCHAR 00DA
SWIDTH 625 0
DWIDTH 38 0
BBX 8 17 1 0
BITMAP
0C
08
10
00
E7
42
42
42
42
42
42
42
42
42
42
66
3C
ENDCHAR
STARTCHAR 00DB
ENCODING 219
STARTCHAR 00DB
SWIDTH 625 0
DWIDTH 38 0
BBX 8 17 1 0
BITMAP
18
2C
24
00
E7
42
42
42
42
42
42
42
42
42
42
66
3C
ENDCHAR
STARTCHAR 00DC
ENCODING 220
STARTCHAR 00DC
SWIDTH 625 0
DWIDTH 38 0
BBX 8 16 1 0
BITMAP
66
64
00
E7
42
42
42
42
42
42
42
42
42
42
66
3C
ENDCHAR
STARTCHAR 00DD
ENCODING 221
STARTCHAR 00DD
SWIDTH 625 0
DWIDTH 38 0
BBX 8 17 1 0
BITMAP
04
08
10
00
E7
66
26
24
34
14
18
08
08
08
08
08
3C
ENDCHAR
STARTCHAR 00DE
ENCODING 222
STARTCHAR 00DE
SWIDTH 625 0
DWIDTH 38 0
BBX 7 13 1 0
BITMAP
F0
40
40
7C
46
42
42
42
46
7C
40
40
F0
ENDCHAR
STARTCHAR 00DF
ENCODING 223
STARTCHAR 00DF
SWIDTH 625 0
DWIDTH 38 0
BBX 7 13 1 0
BITMAP
3C
66
42
42
42
46
4C
46
42
42
42
46
DC
ENDCHAR
STARTCHAR 00E0
ENCODING 224
STARTCHAR 00E0
SWIDTH 625 0
DWIDTH 38 0
BBX 8 13 1 0
BITMAP
20
30
18
00
3C
66
C2
02
3E
62
C2
C6
7B
ENDCHAR
STARTCHAR 00E1
ENCODING 225
STARTCHAR 00E1
SWIDTH 625 0
DWIDTH 38 0
BBX 8 13 1 0
BITMAP
0C
08
10
00
3C
66
C2
02
3E
62
C2
C6
7B
ENDCHAR
STARTCHAR 00E2
ENCODING 226
STARTCHAR 00E2
SWIDTH 625 0
DWIDTH 38 0
BBX 8 13 1 0
BITMAP
18
2C
44
00
3C
66
C2
02
3E
62
C2
C6
7B
ENDCHAR
STARTCHAR 00E3
ENCODING 227
STARTCHAR 00E3
SWIDTH 625 0
DWIDTH 38 0
BBX 8 13 1 0
BITMAP
32
56
CC
00
3C
66
C2
02
3E
62
C2
C6
7B
ENDCHAR
STARTCHAR 00E4
ENCODING 228
STARTCHAR 00E4
SWIDTH 625 0
DWIDTH 38 0
BBX 8 13 1 0
BITMAP
66
66
00
00
3C
66
C2
02
3E
62
C2
C6
7B
ENDCHAR
STARTCHAR 00E5
ENCODING 229
STARTCHAR 00E5
SWIDTH 625 0
DWIDTH 38 0
BBX 8 13 1 0
BITMAP
18
28
38
00
3C
66
C2
02
3E
62
C2
C6
7B
ENDCHAR
STARTCHAR 00E6
ENCODING 230
STARTCHAR 00E6
SWIDTH 625 0
DWIDTH 38 0
BBX 7 9 1 0
BITMAP
EC
D6
92
12
7E
90
92
96
EC
ENDCHAR
STARTCHAR 00E7
ENCODING 231
STARTCHAR 00E7
SWIDTH 625 0
DWIDTH 38 0
BBX 6 13 2 -4
BITMAP
74
CC
84
80
80
80
84
CC
78
10
08
08
70
ENDCHAR
STARTCHAR 00E8
ENCODING 232
STARTCHAR 00E8
SWIDTH 625 0
DWIDTH 38 0
BBX 7 13 1 0
BITMAP
20
30
10
00
7C
64
C6
82
FE
80
C2
46
3C
ENDCHAR
STARTCHAR 00E9
ENCODING 233
STARTCHAR 00E9
SWIDTH 625 0
DWIDTH 38 0
BBX 7 13 1 0
BITMAP
08
18
10
00
7C
64
C6
82
FE
80
C2
46
3C
ENDCHAR
STARTCHAR 00EA
ENCODING 234
STARTCHAR 00EA
SWIDTH 625 0
DWIDTH 38 0
BBX 7 13 1 0
BITMAP
38
28
44
00
7C
64
C6
82
FE
80
C2
46
3C
ENDCHAR
STARTCHAR 00EB
ENCODING 235
STARTCHAR 00EB
SWIDTH 625 0
DWIDTH 38 0
BBX 7 13 1 0
BITMAP
66
66
00
00
7C
64
C6
82
FE
80
C2
46
3C
ENDCHAR
STARTCHAR 00EC
ENCODING 236
STARTCHAR 00EC
SWIDTH 625 0
DWIDTH 38 0
BBX 6 13 2 0
BITMAP
60
30
10
00
F0
10
10
10
10
10
10
10
FC
ENDCHAR
STARTCHAR 00ED
ENCODING 237
STARTCHAR 00ED
SWIDTH 625 0
DWIDTH 38 0
BBX 6 13 2 0
BITMAP
08
10
10
00
F0
10
10
10
10
10
10
10
FC
ENDCHAR
STARTCHAR 00EE
ENCODING 238
STARTCHAR 00EE
SWIDTH 625 0
DWIDTH 38 0
BBX 6 13 2 0
BITMAP
30
68
40
00
F0
10
10
10
10
10
10
10
FC
ENDCHAR
STARTCHAR 00EF
ENCODING 239
STARTCHAR 00EF
SWIDTH 625 0
DWIDTH 38 0
BBX 6 13 2 0
BITMAP
CC
CC
00
00
F0
10
10
10
10
10
10
10
FC
ENDCHAR
STARTCHAR 00F0
ENCODING 240
STARTCHAR 00F0
SWIDTH 625 0
DWIDTH 38 0
BBX 6 13 2 0
BITMAP
40
70
1C
F8
0C
7C
CC
84
84
84
84
CC
78
ENDCHAR
STARTCHAR 00F1
ENCODING 241
STARTCHAR 00F1
SWIDTH 625 0
DWIDTH 38 0
BBX 8 13 1 0
BITMAP
32
7E
4C
00
DC
66
42
42
42
42
42
42
E7
ENDCHAR
STARTCHAR 00F2
ENCODING 242
STARTCHAR 00F2
SWIDTH 625 0
DWIDTH 38 0
BBX 6 13 2 0
BITMAP
40
20
10
00
78
CC
84
84
84
84
84
CC
78
ENDCHAR
STARTCHAR 00F3
ENCODING 243
STARTCHAR 00F3
SWIDTH 625 0
DWIDTH 38 0
BBX 6 13 2 0
BITMAP
10
10
20
00
78
CC
84
84
84
84
84
CC
78
ENDCHAR
STARTCHAR 00F4
ENCODING 244
STARTCHAR 00F4
SWIDTH 625 0
DWIDTH 38 0
BBX 6 13 2 0
BITMAP
30
58
48
00
78
CC
84
84
84
84
84
CC
78
ENDCHAR
STARTCHAR 00F5
ENCODING 245
STARTCHAR 00F5
SWIDTH 625 0
DWIDTH 38 0
BBX 6 13 2 0
BITMAP
64
EC
98
00
78
CC
84
84
84
84
84
CC
78
ENDCHAR
STARTCHAR 00F6
ENCODING 246
STARTCHAR 00F6
SWIDTH 625 0
DWIDTH 38 0
BBX 6 13 2 0
BITMAP
CC
CC
00
00
78
CC
84
84
84
84
84
CC
78
ENDCHAR
STARTCHAR 00F7
ENCODING 247
STARTCHAR 00F7
SWIDTH 625 0
DWIDTH 38 0
BBX 7 9 2 1
BITMAP
10
10
00
00
FE
00
00
10
10
ENDCHAR
STARTCHAR 00F8
ENCODING 248
STARTCHAR 00F8
SWIDTH 625 0
DWIDTH 38 0
BBX 6 9 2 0
BITMAP
7C
CC
9C
94
B4
A4
C4
CC
F8
ENDCHAR
STARTCHAR 00F9
ENCODING 249
STARTCHAR 00F9
SWIDTH 625 0
DWIDTH 38 0
BBX 8 13 1 0
BITMAP
20
10
08
00
C6
42
42
42
42
42
42
66
3B
ENDCHAR
STARTCHAR 00FA
ENCODING 250
STARTCHAR 00FA
SWIDTH 625 0
DWIDTH 38 0
BBX 8 13 1 0
BITMAP
0C
08
10
00
C6
42
42
42
42
42
42
66
3B
ENDCHAR
STARTCHAR 00FB
ENCODING 251
STARTCHAR 00FB
SWIDTH 625 0
DWIDTH 38 0
BBX 8 13 1 0
BITMAP
18
2C
24
00
C6
42
42
42
42
42
42
66
3B
ENDCHAR
STARTCHAR 00FC
ENCODING 252
STARTCHAR 00FC
SWIDTH 625 0
DWIDTH 38 0
BBX 8 13 1 0
BITMAP
66
66
00
00
C6
42
42
42
42
42
42
66
3B
ENDCHAR
STARTCHAR 00FD
ENCODING 253
STARTCHAR 00FD
SWIDTH 625 0
DWIDTH 38 0
BBX 8 17 1 -4
BITMAP
04
08
10
00
E7
42
66
24
24
24
18
18
18
18
10
30
60
ENDCHAR
STARTCHAR 00FE
ENCODING 254
STARTCHAR 00FE
SWIDTH 625 0
DWIDTH 38 0
BBX 8 17 1 -4
BITMAP
C0
40
40
40
5E
63
41
41
41
41
41
63
5E
40
40
40
F0
ENDCHAR
STARTCHAR 00FF
ENCODING 255
STARTCHAR 00FF
SWIDTH 625 0
DWIDTH 38 0
BBX 8 17 1 -4
BITMAP
66
66
00
00
E7
42
66
24
24
24
18
18
18
18
10
30
60
ENDCHAR
ENDFONT
