STARTFONT 2.1
COMMENT
COMMENT Converted from OpenType font "IosevkaCustomNerdFontMono-Regular.ttf" by "otf2bdf 3.0".
COMMENT
FONT -FreeType-IosevkaCustom Nerd Font Mono-Medium-R-Normal--12-120-72-72-C-60-ISO10646-1
SIZE 12 72 72
FONTBOUNDINGBOX 29 21 -14 -7
STARTPROPERTIES 19
FOUNDRY "FreeType"
FAMILY_NAME "IosevkaCustom Nerd Font Mono"
WEIGHT_NAME "Medium"
SLANT "R"
SETWIDTH_NAME "Normal"
ADD_STYLE_NAME ""
PIXEL_SIZE 12
POINT_SIZE 120
RESOLUTION_X 72
RESOLUTION_Y 72
SPACING "C"
AVERAGE_WIDTH 60
CHARSET_REGISTRY "ISO10646"
CHARSET_ENCODING "1"
FONT_ASCENT 11
FONT_DESCENT 3
COPYRIGHT "Copyright 2015-2026, Renzhi Li (aka. Belleve Invis, belleve@typeof.net)."
_OTF_FONTFILE "IosevkaCustomNerdFontMono-Regular.ttf"
_OTF_PSNAME "IosevkaCustomNFM"
ENDPROPERTIES
CHARS 5707
STARTCHAR 000D
ENCODING 13
STARTCHAR 000D
SWIDTH 583 0
DWIDTH 29 0
BBX 0 0 0 0
BITMAP
ENDCHAR
STARTCHAR 0020
ENCODING 32
STARTCHAR 0020
SWIDTH 583 0
DWIDTH 29 0
BBX 0 0 0 0
BITMAP
ENDCHAR
STARTCHAR 0021
ENCODING 33
STARTCHAR 0021
SWIDTH 583 0
DWIDTH 29 0
BBX 1 8 3 0
BITMAP
80
80
80
80
80
00
00
80
ENDCHAR
STARTCHAR 0022
ENCODING 34
STARTCHAR 0022
SWIDTH 583 0
DWIDTH 29 0
BBX 4 4 2 5
BITMAP
90
90
90
90
ENDCHAR
STARTCHAR 0023
ENCODING 35
STARTCHAR 0023
SWIDTH 583 0
DWIDTH 29 0
BBX 7 8 0 0
BITMAP
14
24
7E
28
28
FC
48
48
ENDCHAR
STARTCHAR 0024
ENCODING 36
STARTCHAR 0024
SWIDTH 583 0
DWIDTH 29 0
BBX 5 11 1 -2
BITMAP
20
78
A8
A0
60
30
28
A8
F0
20
20
ENDCHAR
STARTCHAR 0025
ENCODING 37
STARTCHAR 0025
SWIDTH 583 0
DWIDTH 29 0
BBX 6 8 1 0
BITMAP
EC
A8
B0
F0
3C
34
54
DC
ENDCHAR
STARTCHAR 0026
ENCODING 38
STARTCHAR 0026
SWIDTH 583 0
DWIDTH 29 0
BBX 6 8 0 0
BITMAP
78
40
48
3C
48
88
88
78
ENDCHAR
STARTCHAR 0027
ENCODING 39
STARTCHAR 0027
SWIDTH 583 0
DWIDTH 29 0
BBX 1 4 3 5
BITMAP
80
80
80
80
ENDCHAR
STARTCHAR 0028
ENCODING 40
STARTCHAR 0028
SWIDTH 583 0
DWIDTH 29 0
BBX 4 12 1 -2
BITMAP
30
40
80
80
80
80
80
80
80
80
40
30
ENDCHAR
STARTCHAR 0029
ENCODING 41
STARTCHAR 0029
SWIDTH 583 0
DWIDTH 29 0
BBX 4 12 2 -2
BITMAP
C0
20
10
10
10
10
10
10
10
10
20
C0
ENDCHAR
STARTCHAR 002A
ENCODING 42
STARTCHAR 002A
SWIDTH 583 0
DWIDTH 29 0
BBX 5 5 1 3
BITMAP
20
A8
70
F8
20
ENDCHAR
STARTCHAR 002B
ENCODING 43
STARTCHAR 002B
SWIDTH 583 0
DWIDTH 29 0
BBX 5 5 1 1
BITMAP
20
20
F8
20
20
ENDCHAR
STARTCHAR 002C
ENCODING 44
STARTCHAR 002C
SWIDTH 583 0
DWIDTH 29 0
BBX 2 4 3 -2
BITMAP
C0
C0
80
80
ENDCHAR
STARTCHAR 002D
ENCODING 45
STARTCHAR 002D
SWIDTH 583 0
DWIDTH 29 0
BBX 5 1 1 3
BITMAP
F8
ENDCHAR
STARTCHAR 002E
ENCODING 46
STARTCHAR 002E
SWIDTH 583 0
DWIDTH 29 0
BBX 1 2 3 0
BITMAP
80
80
ENDCHAR
STARTCHAR 002F
ENCODING 47
STARTCHAR 002F
SWIDTH 583 0
DWIDTH 29 0
BBX 5 11 1 -2
BITMAP
08
08
10
10
20
20
20
40
40
40
80
ENDCHAR
STARTCHAR 0030
ENCODING 48
STARTCHAR 0030
SWIDTH 583 0
DWIDTH 29 0
BBX 5 8 1 0
BITMAP
70
88
98
A8
A8
C8
88
70
ENDCHAR
STARTCHAR 0031
ENCODING 49
STARTCHAR 0031
SWIDTH 583 0
DWIDTH 29 0
BBX 5 8 1 0
BITMAP
60
A0
20
20
20
20
20
F8
ENDCHAR
STARTCHAR 0032
ENCODING 50
STARTCHAR 0032
SWIDTH 583 0
DWIDTH 29 0
BBX 5 8 1 0
BITMAP
70
88
08
18
10
20
48
F8
ENDCHAR
STARTCHAR 0033
ENCODING 51
STARTCHAR 0033
SWIDTH 583 0
DWIDTH 29 0
BBX 5 8 1 0
BITMAP
F8
10
20
70
08
08
88
F0
ENDCHAR
STARTCHAR 0034
ENCODING 52
STARTCHAR 0034
SWIDTH 583 0
DWIDTH 29 0
BBX 6 8 1 0
BITMAP
08
10
20
28
48
FC
08
1C
ENDCHAR
STARTCHAR 0035
ENCODING 53
STARTCHAR 0035
SWIDTH 583 0
DWIDTH 29 0
BBX 5 8 1 0
BITMAP
F8
88
80
F0
18
08
88
70
ENDCHAR
STARTCHAR 0036
ENCODING 54
STARTCHAR 0036
SWIDTH 583 0
DWIDTH 29 0
BBX 5 8 1 0
BITMAP
70
88
80
B0
C8
88
88
70
ENDCHAR
STARTCHAR 0037
ENCODING 55
STARTCHAR 0037
SWIDTH 583 0
DWIDTH 29 0
BBX 5 8 1 0
BITMAP
F8
88
10
10
30
20
20
40
ENDCHAR
STARTCHAR 0038
ENCODING 56
STARTCHAR 0038
SWIDTH 583 0
DWIDTH 29 0
BBX 5 8 1 0
BITMAP
70
88
88
50
70
88
88
70
ENDCHAR
STARTCHAR 0039
ENCODING 57
STARTCHAR 0039
SWIDTH 583 0
DWIDTH 29 0
BBX 5 8 1 0
BITMAP
70
88
88
88
78
08
88
70
ENDCHAR
STARTCHAR 003A
ENCODING 58
STARTCHAR 003A
SWIDTH 583 0
DWIDTH 29 0
BBX 1 6 3 0
BITMAP
80
80
00
00
80
80
ENDCHAR
STARTCHAR 003B
ENCODING 59
STARTCHAR 003B
SWIDTH 583 0
DWIDTH 29 0
BBX 1 8 3 -2
BITMAP
80
80
00
00
80
80
80
80
ENDCHAR
STARTCHAR 003C
ENCODING 60
STARTCHAR 003C
SWIDTH 583 0
DWIDTH 29 0
BBX 5 6 1 1
BITMAP
08
30
C0
80
60
18
ENDCHAR
STARTCHAR 003D
ENCODING 61
STARTCHAR 003D
SWIDTH 583 0
DWIDTH 29 0
BBX 5 3 1 2
BITMAP
F8
00
F8
ENDCHAR
STARTCHAR 003E
ENCODING 62
STARTCHAR 003E
SWIDTH 583 0
DWIDTH 29 0
BBX 5 6 1 1
BITMAP
80
60
18
08
30
C0
ENDCHAR
STARTCHAR 003F
ENCODING 63
STARTCHAR 003F
SWIDTH 583 0
DWIDTH 29 0
BBX 5 8 1 0
BITMAP
70
88
08
30
20
00
00
20
ENDCHAR
STARTCHAR 0040
ENCODING 64
STARTCHAR 0040
SWIDTH 583 0
DWIDTH 29 0
BBX 6 10 1 -1
BITMAP
78
84
B4
B4
B4
B4
B4
BC
80
78
ENDCHAR
STARTCHAR 0041
ENCODING 65
STARTCHAR 0041
SWIDTH 583 0
DWIDTH 29 0
BBX 7 8 0 0
BITMAP
10
28
28
28
38
44
44
EE
ENDCHAR
STARTCHAR 0042
ENCODING 66
STARTCHAR 0042
SWIDTH 583 0
DWIDTH 29 0
BBX 6 8 0 0
BITMAP
F8
44
44
78
44
44
44
F8
ENDCHAR
STARTCHAR 0043
ENCODING 67
STARTCHAR 0043
SWIDTH 583 0
DWIDTH 29 0
BBX 5 8 1 0
BITMAP
78
88
80
80
80
80
88
70
ENDCHAR
STARTCHAR 0044
ENCODING 68
STARTCHAR 0044
SWIDTH 583 0
DWIDTH 29 0
BBX 6 8 0 0
BITMAP
F8
44
44
44
44
44
44
F8
ENDCHAR
STARTCHAR 0045
ENCODING 69
STARTCHAR 0045
SWIDTH 583 0
DWIDTH 29 0
BBX 6 8 0 0
BITMAP
FC
44
40
78
40
40
44
FC
ENDCHAR
STARTCHAR 0046
ENCODING 70
STARTCHAR 0046
SWIDTH 583 0
DWIDTH 29 0
BBX 6 8 1 0
BITMAP
FC
44
40
78
40
40
40
E0
ENDCHAR
STARTCHAR 0047
ENCODING 71
STARTCHAR 0047
SWIDTH 583 0
DWIDTH 29 0
BBX 5 8 1 0
BITMAP
78
88
80
98
88
88
88
78
ENDCHAR
STARTCHAR 0048
ENCODING 72
STARTCHAR 0048
SWIDTH 583 0
DWIDTH 29 0
BBX 7 8 0 0
BITMAP
EE
44
44
7C
44
44
44
EE
ENDCHAR
STARTCHAR 0049
ENCODING 73
STARTCHAR 0049
SWIDTH 583 0
DWIDTH 29 0
BBX 5 8 1 0
BITMAP
F8
20
20
20
20
20
20
F8
ENDCHAR
STARTCHAR 004A
ENCODING 74
STARTCHAR 004A
SWIDTH 583 0
DWIDTH 29 0
BBX 5 8 1 0
BITMAP
38
08
08
08
08
08
88
70
ENDCHAR
STARTCHAR 004B
ENCODING 75
STARTCHAR 004B
SWIDTH 583 0
DWIDTH 29 0
BBX 6 8 0 0
BITMAP
EC
48
50
60
70
50
48
E4
ENDCHAR
STARTCHAR 004C
ENCODING 76
STARTCHAR 004C
SWIDTH 583 0
DWIDTH 29 0
BBX 6 8 1 0
BITMAP
E0
40
40
40
40
40
44
FC
ENDCHAR
STARTCHAR 004D
ENCODING 77
STARTCHAR 004D
SWIDTH 583 0
DWIDTH 29 0
BBX 8 8 0 0
BITMAP
E7
66
66
5A
5A
42
42
E7
ENDCHAR
STARTCHAR 004E
ENCODING 78
STARTCHAR 004E
SWIDTH 583 0
DWIDTH 29 0
BBX 7 8 0 0
BITMAP
CE
64
64
54
54
4C
4C
E4
ENDCHAR
STARTCHAR 004F
ENCODING 79
STARTCHAR 004F
SWIDTH 583 0
DWIDTH 29 0
BBX 5 8 1 0
BITMAP
70
88
88
88
88
88
88
70
ENDCHAR
STARTCHAR 0050
ENCODING 80
STARTCHAR 0050
SWIDTH 583 0
DWIDTH 29 0
BBX 6 8 0 0
BITMAP
F8
44
44
44
78
40
40
E0
ENDCHAR
STARTCHAR 0051
ENCODING 81
STARTCHAR 0051
SWIDTH 583 0
DWIDTH 29 0
BBX 5 9 1 -1
BITMAP
70
88
88
88
88
A8
98
78
08
ENDCHAR
STARTCHAR 0052
ENCODING 82
STARTCHAR 0052
SWIDTH 583 0
DWIDTH 29 0
BBX 7 8 0 0
BITMAP
F8
44
44
44
78
58
48
E6
ENDCHAR
STARTCHAR 0053
ENCODING 83
STARTCHAR 0053
SWIDTH 583 0
DWIDTH 29 0
BBX 5 8 1 0
BITMAP
78
88
80
40
30
08
88
F0
ENDCHAR
STARTCHAR 0054
ENCODING 84
STARTCHAR 0054
SWIDTH 583 0
DWIDTH 29 0
BBX 5 8 1 0
BITMAP
F8
A8
20
20
20
20
20
70
ENDCHAR
STARTCHAR 0055
ENCODING 85
STARTCHAR 0055
SWIDTH 583 0
DWIDTH 29 0
BBX 7 8 0 0
BITMAP
EE
44
44
44
44
44
44
38
ENDCHAR
STARTCHAR 0056
ENCODING 86
STARTCHAR 0056
SWIDTH 583 0
DWIDTH 29 0
BBX 7 8 0 0
BITMAP
E6
44
24
28
28
28
18
10
ENDCHAR
STARTCHAR 0057
ENCODING 87
STARTCHAR 0057
SWIDTH 583 0
DWIDTH 29 0
BBX 7 8 0 0
BITMAP
C6
44
54
54
6C
6C
2C
28
ENDCHAR
STARTCHAR 0058
ENCODING 88
STARTCHAR 0058
SWIDTH 583 0
DWIDTH 29 0
BBX 7 8 0 0
BITMAP
EE
28
28
10
10
28
28
EE
ENDCHAR
STARTCHAR 0059
ENCODING 89
STARTCHAR 0059
SWIDTH 583 0
DWIDTH 29 0
BBX 7 8 0 0
BITMAP
EE
6C
28
28
10
10
10
38
ENDCHAR
STARTCHAR 005A
ENCODING 90
STARTCHAR 005A
SWIDTH 583 0
DWIDTH 29 0
BBX 5 8 1 0
BITMAP
F8
98
10
20
20
40
C8
F8
ENDCHAR
STARTCHAR 005B
ENCODING 91
STARTCHAR 005B
SWIDTH 583 0
DWIDTH 29 0
BBX 4 11 2 -2
BITMAP
F0
80
80
80
80
80
80
80
80
80
F0
ENDCHAR
STARTCHAR 005C
ENCODING 92
STARTCHAR 005C
SWIDTH 583 0
DWIDTH 29 0
BBX 5 11 1 -2
BITMAP
80
40
40
40
20
20
20
10
10
08
08
ENDCHAR
STARTCHAR 005D
ENCODING 93
STARTCHAR 005D
SWIDTH 583 0
DWIDTH 29 0
BBX 4 11 1 -2
BITMAP
F0
10
10
10
10
10
10
10
10
10
F0
ENDCHAR
STARTCHAR 005E
ENCODING 94
STARTCHAR 005E
SWIDTH 583 0
DWIDTH 29 0
BBX 5 3 1 5
BITMAP
30
50
88
ENDCHAR
STARTCHAR 005F
ENCODING 95
STARTCHAR 005F
SWIDTH 583 0
DWIDTH 29 0
BBX 5 1 1 -1
BITMAP
F8
ENDCHAR
STARTCHAR 0060
ENCODING 96
STARTCHAR 0060
SWIDTH 583 0
DWIDTH 29 0
BBX 2 2 2 6
BITMAP
80
40
ENDCHAR
STARTCHAR 0061
ENCODING 97
STARTCHAR 0061
SWIDTH 583 0
DWIDTH 29 0
BBX 6 6 1 0
BITMAP
70
88
78
88
88
7C
ENDCHAR
STARTCHAR 0062
ENCODING 98
STARTCHAR 0062
SWIDTH 583 0
DWIDTH 29 0
BBX 6 8 0 0
BITMAP
C0
40
58
64
44
44
44
F8
ENDCHAR
STARTCHAR 0063
ENCODING 99
STARTCHAR 0063
SWIDTH 583 0
DWIDTH 29 0
BBX 5 6 1 0
BITMAP
78
88
80
80
88
70
ENDCHAR
STARTCHAR 0064
ENCODING 100
STARTCHAR 0064
SWIDTH 583 0
DWIDTH 29 0
BBX 6 8 1 0
BITMAP
18
08
68
98
88
88
88
7C
ENDCHAR
STARTCHAR 0065
ENCODING 101
STARTCHAR 0065
SWIDTH 583 0
DWIDTH 29 0
BBX 5 6 1 0
BITMAP
70
88
F8
80
88
70
ENDCHAR
STARTCHAR 0066
ENCODING 102
STARTCHAR 0066
SWIDTH 583 0
DWIDTH 29 0
BBX 5 8 2 0
BITMAP
30
48
40
F0
40
40
40
F0
ENDCHAR
STARTCHAR 0067
ENCODING 103
STARTCHAR 0067
SWIDTH 583 0
DWIDTH 29 0
BBX 6 8 1 -2
BITMAP
7C
88
70
80
78
08
88
78
ENDCHAR
STARTCHAR 0068
ENCODING 104
STARTCHAR 0068
SWIDTH 583 0
DWIDTH 29 0
BBX 7 8 0 0
BITMAP
C0
40
58
64
44
44
44
EE
ENDCHAR
STARTCHAR 0069
ENCODING 105
STARTCHAR 0069
SWIDTH 583 0
DWIDTH 29 0
BBX 5 8 1 0
BITMAP
20
00
E0
20
20
20
20
F8
ENDCHAR
STARTCHAR 006A
ENCODING 106
STARTCHAR 006A
SWIDTH 583 0
DWIDTH 29 0
BBX 5 10 0 -2
BITMAP
08
00
38
08
08
08
08
08
88
70
ENDCHAR
STARTCHAR 006B
ENCODING 107
STARTCHAR 006B
SWIDTH 583 0
DWIDTH 29 0
BBX 6 8 0 0
BITMAP
C0
40
4C
58
70
70
48
EC
ENDCHAR
STARTCHAR 006C
ENCODING 108
STARTCHAR 006C
SWIDTH 583 0
DWIDTH 29 0
BBX 5 8 1 0
BITMAP
E0
20
20
20
20
20
20
F8
ENDCHAR
STARTCHAR 006D
ENCODING 109
STARTCHAR 006D
SWIDTH 583 0
DWIDTH 29 0
BBX 7 6 0 0
BITMAP
FC
54
54
54
54
D6
ENDCHAR
STARTCHAR 006E
ENCODING 110
STARTCHAR 006E
SWIDTH 583 0
DWIDTH 29 0
BBX 7 6 0 0
BITMAP
F8
44
44
44
44
EE
ENDCHAR
STARTCHAR 006F
ENCODING 111
STARTCHAR 006F
SWIDTH 583 0
DWIDTH 29 0
BBX 5 6 1 0
BITMAP
70
88
88
88
88
70
ENDCHAR
STARTCHAR 0070
ENCODING 112
STARTCHAR 0070
SWIDTH 583 0
DWIDTH 29 0
BBX 6 8 0 -2
BITMAP
F8
44
44
44
44
78
40
E0
ENDCHAR
STARTCHAR 0071
ENCODING 113
STARTCHAR 0071
SWIDTH 583 0
DWIDTH 29 0
BBX 6 8 1 -2
BITMAP
7C
88
88
88
88
78
08
1C
ENDCHAR
STARTCHAR 0072
ENCODING 114
STARTCHAR 0072
SWIDTH 583 0
DWIDTH 29 0
BBX 5 6 1 0
BITMAP
F8
48
40
40
40
E0
ENDCHAR
STARTCHAR 0073
ENCODING 115
STARTCHAR 0073
SWIDTH 583 0
DWIDTH 29 0
BBX 5 6 1 0
BITMAP
78
88
C0
38
88
F0
ENDCHAR
STARTCHAR 0074
ENCODING 116
STARTCHAR 0074
SWIDTH 583 0
DWIDTH 29 0
BBX 5 8 2 0
BITMAP
40
40
F0
40
40
40
48
30
ENDCHAR
STARTCHAR 0075
ENCODING 117
STARTCHAR 0075
SWIDTH 583 0
DWIDTH 29 0
BBX 7 6 0 0
BITMAP
CC
44
44
44
44
3E
ENDCHAR
STARTCHAR 0076
ENCODING 118
STARTCHAR 0076
SWIDTH 583 0
DWIDTH 29 0
BBX 7 6 0 0
BITMAP
E6
44
28
28
28
10
ENDCHAR
STARTCHAR 0077
ENCODING 119
STARTCHAR 0077
SWIDTH 583 0
DWIDTH 29 0
BBX 7 6 0 0
BITMAP
C6
44
54
6C
6C
2C
ENDCHAR
STARTCHAR 0078
ENCODING 120
STARTCHAR 0078
SWIDTH 583 0
DWIDTH 29 0
BBX 6 6 1 0
BITMAP
DC
50
30
30
50
DC
ENDCHAR
STARTCHAR 0079
ENCODING 121
STARTCHAR 0079
SWIDTH 583 0
DWIDTH 29 0
BBX 7 8 0 -2
BITMAP
EE
44
28
28
18
10
10
60
ENDCHAR
STARTCHAR 007A
ENCODING 122
STARTCHAR 007A
SWIDTH 583 0
DWIDTH 29 0
BBX 5 6 1 0
BITMAP
F8
90
30
60
48
F8
ENDCHAR
STARTCHAR 007B
ENCODING 123
STARTCHAR 007B
SWIDTH 583 0
DWIDTH 29 0
BBX 5 11 1 -2
BITMAP
18
20
20
20
20
C0
20
20
20
20
18
ENDCHAR
STARTCHAR 007C
ENCODING 124
STARTCHAR 007C
SWIDTH 583 0
DWIDTH 29 0
BBX 1 11 3 -2
BITMAP
80
80
80
80
80
80
80
80
80
80
80
ENDCHAR
STARTCHAR 007D
ENCODING 125
STARTCHAR 007D
SWIDTH 583 0
DWIDTH 29 0
BBX 5 11 1 -2
BITMAP
C0
20
20
20
20
18
20
20
20
20
C0
ENDCHAR
STARTCHAR 007E
ENCODING 126
STARTCHAR 007E
SWIDTH 583 0
DWIDTH 29 0
BBX 5 2 1 3
BITMAP
E8
98
ENDCHAR
STARTCHAR 00A0
ENCODING 160
STARTCHAR 00A0
SWIDTH 583 0
DWIDTH 29 0
BBX 0 0 0 0
BITMAP
ENDCHAR
STARTCHAR 00A1
ENCODING 161
STARTCHAR 00A1
SWIDTH 583 0
DWIDTH 29 0
BBX 1 8 3 -2
BITMAP
80
00
00
80
80
80
80
80
ENDCHAR
STARTCHAR 00A2
ENCODING 162
STARTCHAR 00A2
SWIDTH 583 0
DWIDTH 29 0
BBX 5 8 1 -1
BITMAP
20
78
A8
A0
A0
A8
70
20
ENDCHAR
STARTCHAR 00A3
ENCODING 163
STARTCHAR 00A3
SWIDTH 583 0
DWIDTH 29 0
BBX 5 8 1 0
BITMAP
70
48
40
E0
40
40
48
F8
ENDCHAR
STARTCHAR 00A4
ENCODING 164
STARTCHAR 00A4
SWIDTH 583 0
DWIDTH 29 0
BBX 5 5 1 1
BITMAP
F8
88
88
88
F8
ENDCHAR
STARTCHAR 00A5
ENCODING 165
STARTCHAR 00A5
SWIDTH 583 0
DWIDTH 29 0
BBX 7 8 0 0
BITMAP
EE
24
28
18
7C
10
7C
38
ENDCHAR
STARTCHAR 00A6
ENCODING 166
STARTCHAR 00A6
SWIDTH 583 0
DWIDTH 29 0
BBX 1 11 3 -2
BITMAP
80
80
80
80
80
00
80
80
80
80
80
ENDCHAR
STARTCHAR 00A7
ENCODING 167
STARTCHAR 00A7
SWIDTH 583 0
DWIDTH 29 0
BBX 5 11 1 -2
BITMAP
70
88
80
E0
98
88
C8
38
08
88
70
ENDCHAR
STARTCHAR 00A8
ENCODING 168
STARTCHAR 00A8
SWIDTH 583 0
DWIDTH 29 0
BBX 5 1 1 7
BITMAP
D8
ENDCHAR
STARTCHAR 00A9
ENCODING 169
STARTCHAR 00A9
SWIDTH 583 0
DWIDTH 29 0
BBX 6 10 1 -1
BITMAP
78
CC
84
F4
C4
C4
C4
F4
CC
78
ENDCHAR
STARTCHAR 00AA
ENCODING 170
STARTCHAR 00AA
SWIDTH 583 0
DWIDTH 29 0
BBX 4 6 2 2
BITMAP
70
10
F0
F0
00
F0
ENDCHAR
STARTCHAR 00AB
ENCODING 171
STARTCHAR 00AB
SWIDTH 583 0
DWIDTH 29 0
BBX 5 6 1 1
BITMAP
28
48
90
90
50
28
ENDCHAR
STARTCHAR 00AC
ENCODING 172
STARTCHAR 00AC
SWIDTH 583 0
DWIDTH 29 0
BBX 5 3 1 1
BITMAP
F8
08
08
ENDCHAR
STARTCHAR 00AD
ENCODING 173
STARTCHAR 00AD
SWIDTH 583 0
DWIDTH 29 0
BBX 5 1 1 3
BITMAP
F8
ENDCHAR
STARTCHAR 00AE
ENCODING 174
STARTCHAR 00AE
SWIDTH 583 0
DWIDTH 29 0
BBX 6 6 1 5
BITMAP
78
FC
D4
F4
DC
78
ENDCHAR
STARTCHAR 00AF
ENCODING 175
STARTCHAR 00AF
SWIDTH 583 0
DWIDTH 29 0
BBX 5 1 1 7
BITMAP
F8
ENDCHAR
STARTCHAR 00B0
ENCODING 176
STARTCHAR 00B0
SWIDTH 583 0
DWIDTH 29 0
BBX 3 3 2 6
BITMAP
C0
A0
C0
ENDCHAR
STARTCHAR 00B1
ENCODING 177
STARTCHAR 00B1
SWIDTH 583 0
DWIDTH 29 0
BBX 5 6 1 0
BITMAP
20
20
F8
20
20
F8
ENDCHAR
STARTCHAR 00B2
ENCODING 178
STARTCHAR 00B2
SWIDTH 583 0
DWIDTH 29 0
BBX 4 6 2 4
BITMAP
E0
90
10
20
40
F0
ENDCHAR
STARTCHAR 00B3
ENCODING 179
STARTCHAR 00B3
SWIDTH 583 0
DWIDTH 29 0
BBX 4 6 2 4
BITMAP
F0
20
60
10
90
E0
ENDCHAR
STARTCHAR 00B4
ENCODING 180
STARTCHAR 00B4
SWIDTH 583 0
DWIDTH 29 0
BBX 3 3 3 6
BITMAP
60
C0
80
ENDCHAR
STARTCHAR 00B5
ENCODING 181
STARTCHAR 00B5
SWIDTH 583 0
DWIDTH 29 0
BBX 7 8 0 -2
BITMAP
CC
44
44
44
44
7E
40
40
ENDCHAR
STARTCHAR 00B6
ENCODING 182
STARTCHAR 00B6
SWIDTH 583 0
DWIDTH 29 0
BBX 5 8 1 0
BITMAP
F8
E8
E8
E8
28
28
28
28
ENDCHAR
STARTCHAR 00B7
ENCODING 183
STARTCHAR 00B7
SWIDTH 583 0
DWIDTH 29 0
BBX 1 2 3 3
BITMAP
80
80
ENDCHAR
STARTCHAR 00B8
ENCODING 184
STARTCHAR 00B8
SWIDTH 583 0
DWIDTH 29 0
BBX 3 3 2 -3
BITMAP
40
20
E0
ENDCHAR
STARTCHAR 00B9
ENCODING 185
STARTCHAR 00B9
SWIDTH 583 0
DWIDTH 29 0
BBX 3 6 2 4
BITMAP
C0
40
40
40
40
E0
ENDCHAR
STARTCHAR 00BA
ENCODING 186
STARTCHAR 00BA
SWIDTH 583 0
DWIDTH 29 0
BBX 4 6 2 2
BITMAP
60
90
90
60
00
F0
ENDCHAR
STARTCHAR 00BB
ENCODING 187
STARTCHAR 00BB
SWIDTH 583 0
DWIDTH 29 0
BBX 5 6 1 1
BITMAP
80
50
48
28
50
90
ENDCHAR
STARTCHAR 00BC
ENCODING 188
STARTCHAR 00BC
SWIDTH 583 0
DWIDTH 29 0
BBX 5 12 1 -2
BITMAP
20
60
20
20
70
00
F8
00
20
50
F0
30
ENDCHAR
STARTCHAR 00BD
ENCODING 189
STARTCHAR 00BD
SWIDTH 583 0
DWIDTH 29 0
BBX 5 12 1 -2
BITMAP
20
60
20
20
70
00
F8
70
10
20
40
F0
ENDCHAR
STARTCHAR 00BE
ENCODING 190
STARTCHAR 00BE
SWIDTH 583 0
DWIDTH 29 0
BBX 5 12 1 -2
BITMAP
70
20
30
10
70
00
F8
00
20
50
70
10
ENDCHAR
STARTCHAR 00BF
ENCODING 191
STARTCHAR 00BF
SWIDTH 583 0
DWIDTH 29 0
BBX 5 8 1 -2
BITMAP
20
00
20
60
80
80
88
70
ENDCHAR
STARTCHAR 00C0
ENCODING 192
STARTCHAR 00C0
SWIDTH 583 0
DWIDTH 29 0
BBX 7 11 0 0
BITMAP
20
10
00
10
28
28
28
38
44
44
EE
ENDCHAR
STARTCHAR 00C1
ENCODING 193
STARTCHAR 00C1
SWIDTH 583 0
DWIDTH 29 0
BBX 7 11 0 0
BITMAP
08
10
00
10
28
28
28
38
44
44
EE
ENDCHAR
STARTCHAR 00C2
ENCODING 194
STARTCHAR 00C2
SWIDTH 583 0
DWIDTH 29 0
BBX 7 11 0 0
BITMAP
18
28
00
10
28
28
28
38
44
44
EE
ENDCHAR
STARTCHAR 00C3
ENCODING 195
STARTCHAR 00C3
SWIDTH 583 0
DWIDTH 29 0
BBX 7 11 0 0
BITMAP
34
58
00
10
28
28
28
38
44
44
EE
ENDCHAR
STARTCHAR 00C4
ENCODING 196
STARTCHAR 00C4
SWIDTH 583 0
DWIDTH 29 0
BBX 7 11 0 0
BITMAP
6C
00
00
10
28
28
28
38
44
44
EE
ENDCHAR
STARTCHAR 00C5
ENCODING 197
STARTCHAR 00C5
SWIDTH 583 0
DWIDTH 29 0
BBX 7 11 0 0
BITMAP
18
18
00
10
28
28
28
38
44
44
EE
ENDCHAR
STARTCHAR 00C6
ENCODING 198
STARTCHAR 00C6
SWIDTH 583 0
DWIDTH 29 0
BBX 6 8 0 0
BITMAP
3C
34
30
5C
50
70
54
DC
ENDCHAR
STARTCHAR 00C7
ENCODING 199
STARTCHAR 00C7
SWIDTH 583 0
DWIDTH 29 0
BBX 5 10 1 -2
BITMAP
78
88
80
80
80
80
88
70
30
70
ENDCHAR
STARTCHAR 00C8
ENCODING 200
STARTCHAR 00C8
SWIDTH 583 0
DWIDTH 29 0
BBX 6 11 0 0
BITMAP
20
10
00
FC
44
40
78
40
40
44
FC
ENDCHAR
STARTCHAR 00C9
ENCODING 201
STARTCHAR 00C9
SWIDTH 583 0
DWIDTH 29 0
BBX 6 11 0 0
BITMAP
08
10
00
FC
44
40
78
40
40
44
FC
ENDCHAR
STARTCHAR 00CA
ENCODING 202
STARTCHAR 00CA
SWIDTH 583 0
DWIDTH 29 0
BBX 6 11 0 0
BITMAP
30
28
00
FC
44
40
78
40
40
44
FC
ENDCHAR
STARTCHAR 00CB
ENCODING 203
STARTCHAR 00CB
SWIDTH 583 0
DWIDTH 29 0
BBX 6 11 0 0
BITMAP
6C
00
00
FC
44
40
78
40
40
44
FC
ENDCHAR
STARTCHAR 00CC
ENCODING 204
STARTCHAR 00CC
SWIDTH 583 0
DWIDTH 29 0
BBX 5 11 1 0
BITMAP
40
20
00
F8
20
20
20
20
20
20
F8
ENDCHAR
STARTCHAR 00CD
ENCODING 205
STARTCHAR 00CD
SWIDTH 583 0
DWIDTH 29 0
BBX 5 11 1 0
BITMAP
10
20
00
F8
20
20
20
20
20
20
F8
ENDCHAR
STARTCHAR 00CE
ENCODING 206
STARTCHAR 00CE
SWIDTH 583 0
DWIDTH 29 0
BBX 5 11 1 0
BITMAP
20
50
00
F8
20
20
20
20
20
20
F8
ENDCHAR
STARTCHAR 00CF
ENCODING 207
STARTCHAR 00CF
SWIDTH 583 0
DWIDTH 29 0
BBX 5 11 1 0
BITMAP
D8
00
00
F8
20
20
20
20
20
20
F8
ENDCHAR
STARTCHAR 00D0
ENCODING 208
STARTCHAR 00D0
SWIDTH 583 0
DWIDTH 29 0
BBX 6 8 0 0
BITMAP
F8
44
44
E4
44
44
44
F8
ENDCHAR
STARTCHAR 00D1
ENCODING 209
STARTCHAR 00D1
SWIDTH 583 0
DWIDTH 29 0
BBX 7 11 0 0
BITMAP
34
58
00
CE
64
64
54
54
4C
4C
E4
ENDCHAR
STARTCHAR 00D2
ENCODING 210
STARTCHAR 00D2
SWIDTH 583 0
DWIDTH 29 0
BBX 5 11 1 0
BITMAP
40
20
00
70
88
88
88
88
88
88
70
ENDCHAR
STARTCHAR 00D3
ENCODING 211
STARTCHAR 00D3
SWIDTH 583 0
DWIDTH 29 0
BBX 5 11 1 0
BITMAP
10
20
00
70
88
88
88
88
88
88
70
ENDCHAR
STARTCHAR 00D4
ENCODING 212
STARTCHAR 00D4
SWIDTH 583 0
DWIDTH 29 0
BBX 5 11 1 0
BITMAP
20
50
00
70
88
88
88
88
88
88
70
ENDCHAR
STARTCHAR 00D5
ENCODING 213
STARTCHAR 00D5
SWIDTH 583 0
DWIDTH 29 0
BBX 5 11 1 0
BITMAP
68
B0
00
70
88
88
88
88
88
88
70
ENDCHAR
STARTCHAR 00D6
ENCODING 214
STARTCHAR 00D6
SWIDTH 583 0
DWIDTH 29 0
BBX 5 11 1 0
BITMAP
D8
00
00
70
88
88
88
88
88
88
70
ENDCHAR
STARTCHAR 00D7
ENCODING 215
STARTCHAR 00D7
SWIDTH 583 0
DWIDTH 29 0
BBX 6 5 1 2
BITMAP
C8
70
30
58
8C
ENDCHAR
STARTCHAR 00D8
ENCODING 216
STARTCHAR 00D8
SWIDTH 583 0
DWIDTH 29 0
BBX 5 8 1 0
BITMAP
78
98
98
A8
A8
C8
C8
F0
ENDCHAR
STARTCHAR 00D9
ENCODING 217
STARTCHAR 00D9
SWIDTH 583 0
DWIDTH 29 0
BBX 7 11 0 0
BITMAP
20
10
00
EE
44
44
44
44
44
44
38
ENDCHAR
STARTCHAR 00DA
ENCODING 218
STARTCHAR 00DA
SWIDTH 583 0
DWIDTH 29 0
BBX 7 11 0 0
BITMAP
08
10
00
EE
44
44
44
44
44
44
38
ENDCHAR
STARTCHAR 00DB
ENCODING 219
STARTCHAR 00DB
SWIDTH 583 0
DWIDTH 29 0
BBX 7 11 0 0
BITMAP
38
28
00
EE
44
44
44
44
44
44
38
ENDCHAR
STARTCHAR 00DC
ENCODING 220
STARTCHAR 00DC
SWIDTH 583 0
DWIDTH 29 0
BBX 7 11 0 0
BITMAP
6C
00
00
EE
44
44
44
44
44
44
38
ENDCHAR
STARTCHAR 00DD
ENCODING 221
STARTCHAR 00DD
SWIDTH 583 0
DWIDTH 29 0
BBX 7 11 0 0
BITMAP
08
10
00
EE
6C
28
28
10
10
10
38
ENDCHAR
STARTCHAR 00DE
ENCODING 222
STARTCHAR 00DE
SWIDTH 583 0
DWIDTH 29 0
BBX 6 8 0 0
BITMAP
E0
78
44
44
44
78
40
E0
ENDCHAR
STARTCHAR 00DF
ENCODING 223
STARTCHAR 00DF
SWIDTH 583 0
DWIDTH 29 0
BBX 6 8 0 0
BITMAP
38
44
44
58
44
44
44
D8
ENDCHAR
STARTCHAR 00E0
ENCODING 224
STARTCHAR 00E0
SWIDTH 583 0
DWIDTH 29 0
BBX 6 9 1 0
BITMAP
40
20
00
70
88
78
88
88
7C
ENDCHAR
STARTCHAR 00E1
ENCODING 225
STARTCHAR 00E1
SWIDTH 583 0
DWIDTH 29 0
BBX 6 9 1 0
BITMAP
10
20
00
70
88
78
88
88
7C
ENDCHAR
STARTCHAR 00E2
ENCODING 226
STARTCHAR 00E2
SWIDTH 583 0
DWIDTH 29 0
BBX 6 9 1 0
BITMAP
20
50
00
70
88
78
88
88
7C
ENDCHAR
STARTCHAR 00E3
ENCODING 227
STARTCHAR 00E3
SWIDTH 583 0
DWIDTH 29 0
BBX 6 8 1 0
BITMAP
F8
00
70
88
78
88
88
7C
ENDCHAR
STARTCHAR 00E4
ENCODING 228
STARTCHAR 00E4
SWIDTH 583 0
DWIDTH 29 0
BBX 6 8 1 0
BITMAP
D8
00
70
88
78
88
88
7C
ENDCHAR
STARTCHAR 00E5
ENCODING 229
STARTCHAR 00E5
SWIDTH 583 0
DWIDTH 29 0
BBX 6 8 1 0
BITMAP
30
30
70
88
78
88
88
7C
ENDCHAR
STARTCHAR 00E6
ENCODING 230
STARTCHAR 00E6
SWIDTH 583 0
DWIDTH 29 0
BBX 5 6 1 0
BITMAP
F8
A8
F8
A0
A8
F8
ENDCHAR
STARTCHAR 00E7
ENCODING 231
STARTCHAR 00E7
SWIDTH 583 0
DWIDTH 29 0
BBX 5 8 1 -2
BITMAP
78
88
80
80
88
70
30
70
ENDCHAR
STARTCHAR 00E8
ENCODING 232
STARTCHAR 00E8
SWIDTH 583 0
DWIDTH 29 0
BBX 5 9 1 0
BITMAP
40
20
00
70
88
F8
80
88
70
ENDCHAR
STARTCHAR 00E9
ENCODING 233
STARTCHAR 00E9
SWIDTH 583 0
DWIDTH 29 0
BBX 5 9 1 0
BITMAP
10
20
00
70
88
F8
80
88
70
ENDCHAR
STARTCHAR 00EA
ENCODING 234
STARTCHAR 00EA
SWIDTH 583 0
DWIDTH 29 0
BBX 5 9 1 0
BITMAP
20
50
00
70
88
F8
80
88
70
ENDCHAR
STARTCHAR 00EB
ENCODING 235
STARTCHAR 00EB
SWIDTH 583 0
DWIDTH 29 0
BBX 5 8 1 0
BITMAP
D8
00
70
88
F8
80
88
70
ENDCHAR
STARTCHAR 00EC
ENCODING 236
STARTCHAR 00EC
SWIDTH 583 0
DWIDTH 29 0
BBX 5 9 1 0
BITMAP
40
20
00
E0
20
20
20
20
F8
ENDCHAR
STARTCHAR 00ED
ENCODING 237
STARTCHAR 00ED
SWIDTH 583 0
DWIDTH 29 0
BBX 5 9 1 0
BITMAP
10
20
00
E0
20
20
20
20
F8
ENDCHAR
STARTCHAR 00EE
ENCODING 238
STARTCHAR 00EE
SWIDTH 583 0
DWIDTH 29 0
BBX 5 9 1 0
BITMAP
20
50
00
E0
20
20
20
20
F8
ENDCHAR
STARTCHAR 00EF
ENCODING 239
STARTCHAR 00EF
SWIDTH 583 0
DWIDTH 29 0
BBX 5 8 1 0
BITMAP
D8
00
E0
20
20
20
20
F8
ENDCHAR
STARTCHAR 00F0
ENCODING 240
STARTCHAR 00F0
SWIDTH 583 0
DWIDTH 29 0
BBX 5 8 1 0
BITMAP
60
38
50
68
98
88
88
70
ENDCHAR
STARTCHAR 00F1
ENCODING 241
STARTCHAR 00F1
SWIDTH 583 0
DWIDTH 29 0
BBX 7 8 0 0
BITMAP
7C
00
F8
44
44
44
44
EE
ENDCHAR
STARTCHAR 00F2
ENCODING 242
STARTCHAR 00F2
SWIDTH 583 0
DWIDTH 29 0
BBX 5 9 1 0
BITMAP
40
20
00
70
88
88
88
88
70
ENDCHAR
STARTCHAR 00F3
ENCODING 243
STARTCHAR 00F3
SWIDTH 583 0
DWIDTH 29 0
BBX 5 9 1 0
BITMAP
10
20
00
70
88
88
88
88
70
ENDCHAR
STARTCHAR 00F4
ENCODING 244
STARTCHAR 00F4
SWIDTH 583 0
DWIDTH 29 0
BBX 5 9 1 0
BITMAP
20
50
00
70
88
88
88
88
70
ENDCHAR
STARTCHAR 00F5
ENCODING 245
STARTCHAR 00F5
SWIDTH 583 0
DWIDTH 29 0
BBX 5 8 1 0
BITMAP
F8
00
70
88
88
88
88
70
ENDCHAR
STARTCHAR 00F6
ENCODING 246
STARTCHAR 00F6
SWIDTH 583 0
DWIDTH 29 0
BBX 5 8 1 0
BITMAP
D8
00
70
88
88
88
88
70
ENDCHAR
STARTCHAR 00F7
ENCODING 247
STARTCHAR 00F7
SWIDTH 583 0
DWIDTH 29 0
BBX 5 6 1 1
BITMAP
20
00
F8
00
00
20
ENDCHAR
STARTCHAR 00F8
ENCODING 248
STARTCHAR 00F8
SWIDTH 583 0
DWIDTH 29 0
BBX 5 6 1 0
BITMAP
78
98
A8
A8
C8
F0
ENDCHAR
STARTCHAR 00F9
ENCODING 249
STARTCHAR 00F9
SWIDTH 583 0
DWIDTH 29 0
BBX 7 9 0 0
BITMAP
20
10
00
CC
44
44
44
44
3E
ENDCHAR
STARTCHAR 00FA
ENCODING 250
STARTCHAR 00FA
SWIDTH 583 0
DWIDTH 29 0
BBX 7 9 0 0
BITMAP
08
10
00
CC
44
44
44
44
3E
ENDCHAR
STARTCHAR 00FB
ENCODING 251
STARTCHAR 00FB
SWIDTH 583 0
DWIDTH 29 0
BBX 7 9 0 0
BITMAP
10
28
00
CC
44
44
44
44
3E
ENDCHAR
STARTCHAR 00FC
ENCODING 252
STARTCHAR 00FC
SWIDTH 583 0
DWIDTH 29 0
BBX 7 8 0 0
BITMAP
6C
00
CC
44
44
44
44
3E
ENDCHAR
STARTCHAR 00FD
ENCODING 253
STARTCHAR 00FD
SWIDTH 583 0
DWIDTH 29 0
BBX 7 11 0 -2
BITMAP
08
10
00
EE
44
28
28
18
10
10
60
ENDCHAR
STARTCHAR 00FE
ENCODING 254
STARTCHAR 00FE
SWIDTH 583 0
DWIDTH 29 0
BBX 6 10 0 -2
BITMAP
C0
40
58
64
44
44
44
78
40
E0
ENDCHAR
STARTCHAR 00FF
ENCODING 255
STARTCHAR 00FF
SWIDTH 583 0
DWIDTH 29 0
BBX 7 10 0 -2
BITMAP
6C
00
EE
44
28
28
18
10
10
60
ENDCHAR
ENDFONT
